<svg xmlns="http://www.w3.org/2000/svg" width="171.254" height="184.659" viewBox="0 0 171.254 184.659">
  <g id="Grupo_109419" data-name="Grupo 109419" transform="translate(-320.176 289.97)">
    <g id="OBJECTS" transform="translate(320.176 -289.97)">
      <g id="Grupo_108747" data-name="Grupo 108747" transform="translate(3.851 12.134)">
        <g id="Grupo_108744" data-name="Grupo 108744">
          <path id="Trazado_115660" data-name="Trazado 115660" d="M113.185,73.875q-.052-1.888-.105-3.775a3.7,3.7,0,0,0-.168-1.064c-.1-.2-20.048-.016-23.967-.044-3.848-.027-23.019.051-23.128.053-.512.009-.42.6-.432.6,0,.089-.025,16.83-.007,25.229.115.11,8.268.082,12.051.086,3.935,0,7.87-.013,11.806-.019,3.864-.007,21.39.063,23.3-.124a1.425,1.425,0,0,0,.149-.032,1.237,1.237,0,0,0,.433-.119c.059-3.942.081-7.888.018-11.793C113.083,79.857,113.127,76.863,113.185,73.875Z" transform="translate(-65.371 -68.941)" fill="#ffbb39"/>
          <path id="Trazado_115661" data-name="Trazado 115661" d="M113.2,73.849q-.051-1.874-.1-3.749a3.681,3.681,0,0,0-.168-1.063c-.1-.2-20.048-.016-23.967-.044-3.848-.027-23.019.051-23.128.053-.512.009-.42.6-.432.6,0,.028,0,1.69,0,4.216,2.91.01,8.123.007,11.007.008q6.425,0,12.85,0C92.954,73.864,108.206,73.883,113.2,73.849Z" transform="translate(-65.382 -68.941)" fill="#345995"/>
          <path id="Trazado_115662" data-name="Trazado 115662" d="M164.671,73.7a1.273,1.273,0,0,1-.077-1.148,1.463,1.463,0,0,1,.219-.335,1.36,1.36,0,0,1,.183-.171,1.3,1.3,0,0,1,.411-.2,1.5,1.5,0,0,1,.29-.066,1.726,1.726,0,0,1,.3.012,1.253,1.253,0,0,1,.752.4,1.3,1.3,0,0,1-1.651,1.972A1.281,1.281,0,0,1,164.671,73.7Z" transform="translate(-120.589 -70.52)" fill="#ffd075"/>
          <path id="Trazado_115663" data-name="Trazado 115663" d="M156,73.7a1.273,1.273,0,0,1-.078-1.148,1.464,1.464,0,0,1,.219-.335,1.36,1.36,0,0,1,.183-.171,1.3,1.3,0,0,1,.411-.2,1.5,1.5,0,0,1,.29-.066,1.726,1.726,0,0,1,.3.012,1.253,1.253,0,0,1,.752.4,1.3,1.3,0,0,1-1.651,1.972A1.281,1.281,0,0,1,156,73.7Z" transform="translate(-115.758 -70.52)" fill="#fff"/>
          <path id="Trazado_115664" data-name="Trazado 115664" d="M147.327,73.7a1.272,1.272,0,0,1-.077-1.148,1.463,1.463,0,0,1,.219-.335,1.36,1.36,0,0,1,.183-.171,1.3,1.3,0,0,1,.411-.2,1.5,1.5,0,0,1,.29-.066,1.726,1.726,0,0,1,.3.012,1.253,1.253,0,0,1,.752.4,1.3,1.3,0,0,1-1.651,1.972A1.281,1.281,0,0,1,147.327,73.7Z" transform="translate(-110.927 -70.52)" fill="#fff"/>
        </g>
        <g id="Grupo_108746" data-name="Grupo 108746" transform="translate(2.615 7.46)">
          <path id="Trazado_115665" data-name="Trazado 115665" d="M113.858,88.842c-.031-.78-.061-1.56-.094-2.339,0-.083-.057-.6-.149-.66-.087-.125-17.855-.012-21.345-.029-3.426-.017-20.5.03-20.6.031-.456.005-.374.37-.384.37,0,.055-.021,10.43,0,15.635.1.068,7.364.051,10.732.054,3.5,0,7.009-.008,10.514-.011,3.441,0,19.05.041,20.748-.074.05,0,.087-.014.133-.02a1.5,1.5,0,0,0,.386-.074c.053-2.443.072-4.889.015-7.308C113.767,92.548,113.806,90.693,113.858,88.842Z" transform="translate(-71.276 -85.783)" fill="#fff"/>
          <g id="Grupo_108745" data-name="Grupo 108745" transform="translate(6.315 4.335)">
            <path id="Trazado_115666" data-name="Trazado 115666" d="M88.21,103.056a2.555,2.555,0,0,1-.345.082,2.438,2.438,0,0,1-.4.03,1.5,1.5,0,0,1-.488-.078,1.022,1.022,0,0,1-.392-.237,1.111,1.111,0,0,1-.259-.41,1.679,1.679,0,0,1-.1-.6v-1.424a2.3,2.3,0,0,0-.013-.251.5.5,0,0,0-.082-.224.556.556,0,0,0-.207-.177,1.108,1.108,0,0,0-.4-.1v-.6a1.09,1.09,0,0,0,.4-.1.552.552,0,0,0,.207-.177.5.5,0,0,0,.082-.225,2.3,2.3,0,0,0,.013-.25V96.892a1.284,1.284,0,0,1,.354-1,1.266,1.266,0,0,1,.881-.319,2.439,2.439,0,0,1,.4.03,2.559,2.559,0,0,1,.345.082v.561a1.445,1.445,0,0,0-.22-.017h-.246a.886.886,0,0,0-.557.147.765.765,0,0,0-.186.613v1.476c0,.063,0,.14-.013.229a.852.852,0,0,1-.074.268.741.741,0,0,1-.186.246.77.77,0,0,1-.341.164.775.775,0,0,1,.341.164.747.747,0,0,1,.186.246.852.852,0,0,1,.074.268c.008.089.013.166.013.229v1.476a.766.766,0,0,0,.186.613.886.886,0,0,0,.557.147h.246a1.5,1.5,0,0,0,.22-.017Z" transform="translate(-85.533 -95.571)" fill="#4c5980"/>
            <path id="Trazado_115667" data-name="Trazado 115667" d="M93.452,109.64a.467.467,0,0,1-.371-.138.545.545,0,0,1-.121-.372.556.556,0,0,1,.121-.38.568.568,0,0,1,.743,0,.558.558,0,0,1,.121.38.547.547,0,0,1-.121.372A.468.468,0,0,1,93.452,109.64Z" transform="translate(-89.67 -102.836)" fill="#4c5980"/>
            <path id="Trazado_115668" data-name="Trazado 115668" d="M97.936,109.64a.468.468,0,0,1-.372-.138.545.545,0,0,1-.121-.372.556.556,0,0,1,.121-.38.568.568,0,0,1,.743,0,.556.556,0,0,1,.121.38.545.545,0,0,1-.121.372A.467.467,0,0,1,97.936,109.64Z" transform="translate(-92.168 -102.836)" fill="#4c5980"/>
            <path id="Trazado_115669" data-name="Trazado 115669" d="M102.419,109.64a.467.467,0,0,1-.371-.138.545.545,0,0,1-.121-.372.556.556,0,0,1,.121-.38.568.568,0,0,1,.742,0,.556.556,0,0,1,.121.38.545.545,0,0,1-.121.372A.467.467,0,0,1,102.419,109.64Z" transform="translate(-94.666 -102.836)" fill="#4c5980"/>
            <path id="Trazado_115670" data-name="Trazado 115670" d="M105.533,102.5a1.5,1.5,0,0,0,.22.017H106a.889.889,0,0,0,.557-.147.767.767,0,0,0,.186-.613v-1.476c0-.063,0-.14.013-.229a.851.851,0,0,1,.074-.268.735.735,0,0,1,.186-.246.775.775,0,0,1,.341-.164.77.77,0,0,1-.341-.164.729.729,0,0,1-.186-.246.851.851,0,0,1-.074-.268c-.009-.089-.013-.166-.013-.229V96.987a.767.767,0,0,0-.186-.613.888.888,0,0,0-.557-.147h-.246a1.445,1.445,0,0,0-.22.017v-.561a2.553,2.553,0,0,1,.345-.082,2.449,2.449,0,0,1,.4-.03,1.267,1.267,0,0,1,.881.319,1.285,1.285,0,0,1,.354,1v1.425a2.294,2.294,0,0,0,.013.25.492.492,0,0,0,.082.225.552.552,0,0,0,.207.177,1.09,1.09,0,0,0,.4.1v.6a1.108,1.108,0,0,0-.4.1.556.556,0,0,0-.207.177.492.492,0,0,0-.082.224,2.3,2.3,0,0,0-.013.251v1.424a1.679,1.679,0,0,1-.1.6,1.111,1.111,0,0,1-.259.41,1.026,1.026,0,0,1-.392.237,1.5,1.5,0,0,1-.488.078,2.448,2.448,0,0,1-.4-.03,2.55,2.55,0,0,1-.345-.082Z" transform="translate(-96.675 -95.571)" fill="#4c5980"/>
            <path id="Trazado_115671" data-name="Trazado 115671" d="M112.3,102.8l2.616-7.114h.82l-2.616,7.114Z" transform="translate(-100.443 -95.636)" fill="#4c5980"/>
            <path id="Trazado_115672" data-name="Trazado 115672" d="M122,102v-.57l3.178-1.451v.691l-2.444,1.045,2.444,1.044v.691Z" transform="translate(-105.85 -98.025)" fill="#4c5980"/>
            <path id="Trazado_115673" data-name="Trazado 115673" d="M132.419,109.64a.468.468,0,0,1-.372-.138.545.545,0,0,1-.121-.372.556.556,0,0,1,.121-.38.568.568,0,0,1,.743,0,.556.556,0,0,1,.121.38.545.545,0,0,1-.121.372A.467.467,0,0,1,132.419,109.64Z" transform="translate(-111.378 -102.836)" fill="#4c5980"/>
            <path id="Trazado_115674" data-name="Trazado 115674" d="M136.9,109.64a.467.467,0,0,1-.371-.138.542.542,0,0,1-.121-.372.554.554,0,0,1,.121-.38.568.568,0,0,1,.742,0,.556.556,0,0,1,.121.38.545.545,0,0,1-.121.372A.467.467,0,0,1,136.9,109.64Z" transform="translate(-113.875 -102.836)" fill="#4c5980"/>
            <path id="Trazado_115675" data-name="Trazado 115675" d="M141.385,109.64a.467.467,0,0,1-.371-.138.542.542,0,0,1-.121-.372.554.554,0,0,1,.121-.38.568.568,0,0,1,.742,0,.556.556,0,0,1,.121.38.545.545,0,0,1-.121.372A.467.467,0,0,1,141.385,109.64Z" transform="translate(-116.373 -102.836)" fill="#4c5980"/>
            <path id="Trazado_115676" data-name="Trazado 115676" d="M145.864,103.447v-.691l2.443-1.044-2.443-1.045v-.691l3.177,1.451V102Z" transform="translate(-119.142 -98.025)" fill="#4c5980"/>
          </g>
        </g>
      </g>
      <g id="Grupo_108750" data-name="Grupo 108750" transform="translate(0 92.387)">
        <g id="Grupo_108748" data-name="Grupo 108748" transform="translate(0)">
          <path id="Trazado_115677" data-name="Trazado 115677" d="M116.611,266.43q-.064-6.237-.13-12.473a30.967,30.967,0,0,0-.21-3.515c-.122-.669-25.127-.04-30.038-.129-4.823-.088-28.85.183-28.987.19-.642.031-.527,1.973-.542,1.973,0,.293-.042,55.61-.024,83.363.144.364,10.362.265,15.1.279,4.932.013,9.864-.047,14.8-.07,4.842-.023,26.809.2,29.2-.423a1,1,0,0,0,.187-.108,1.013,1.013,0,0,0,.543-.393c.077-13.025.107-26.063.03-38.966C116.479,286.194,116.537,276.3,116.611,266.43Z" transform="translate(-56.676 -250.13)" fill="#4c5980"/>
          <path id="Trazado_115678" data-name="Trazado 115678" d="M116.532,255.621q-.009-.832-.017-1.664a30.867,30.867,0,0,0-.21-3.515c-.122-.669-25.127-.04-30.038-.129-4.823-.088-28.85.183-28.987.19-.642.031-.527,1.973-.542,1.973,0,.041,0,1.169,0,3.153,3.709.01,10.112.007,13.682.009q8.107,0,16.214,0C91.232,255.634,109.927,255.655,116.532,255.621Z" transform="translate(-56.71 -250.13)" fill="#345995"/>
          <path id="Trazado_115679" data-name="Trazado 115679" d="M181.56,255.331a1.275,1.275,0,0,1-.077-1.148,1.478,1.478,0,0,1,.219-.335,1.387,1.387,0,0,1,.183-.171,1.294,1.294,0,0,1,.411-.2,1.483,1.483,0,0,1,.289-.066,1.681,1.681,0,0,1,.3.012,1.25,1.25,0,0,1,.752.4,1.3,1.3,0,0,1-1.651,1.972A1.282,1.282,0,0,1,181.56,255.331Z" transform="translate(-126.147 -251.955)" fill="#ffd075"/>
          <path id="Trazado_115680" data-name="Trazado 115680" d="M172.888,255.331a1.275,1.275,0,0,1-.078-1.148,1.479,1.479,0,0,1,.219-.335,1.388,1.388,0,0,1,.183-.171,1.3,1.3,0,0,1,.411-.2,1.5,1.5,0,0,1,.29-.066,1.682,1.682,0,0,1,.3.012,1.25,1.25,0,0,1,.752.4,1.3,1.3,0,0,1-1.651,1.972A1.282,1.282,0,0,1,172.888,255.331Z" transform="translate(-121.316 -251.955)" fill="#fff"/>
          <path id="Trazado_115681" data-name="Trazado 115681" d="M164.216,255.331a1.275,1.275,0,0,1-.078-1.148,1.463,1.463,0,0,1,.219-.335,1.387,1.387,0,0,1,.183-.171,1.3,1.3,0,0,1,.411-.2,1.5,1.5,0,0,1,.29-.066,1.681,1.681,0,0,1,.3.012,1.252,1.252,0,0,1,.752.4,1.3,1.3,0,0,1-1.651,1.972A1.285,1.285,0,0,1,164.216,255.331Z" transform="translate(-116.485 -251.955)" fill="#fff"/>
        </g>
        <g id="Grupo_108749" data-name="Grupo 108749" transform="translate(4.003 9.638)">
          <path id="Trazado_115682" data-name="Trazado 115682" d="M88.777,271.89c-2.943.084-9.76.041-11.5.047-2.159.006-4.317.023-6.476.019-1.294,0-3.516.007-5.024-.011a1.275,1.275,0,0,0-.058.442c0,.016,0,.625,0,1.652,1.46.023,3.872.012,5.232.015,2.109,0,4.218-.013,6.326-.019,1.775-.005,8.931.042,11.581-.057q-.009-.581-.016-1.161C88.835,272.708,88.814,272.118,88.777,271.89Z" transform="translate(-65.715 -271.89)" fill="#345995"/>
          <path id="Trazado_115683" data-name="Trazado 115683" d="M89.058,285.536c-1.412.084-4.682.041-5.519.046-1.036.006-2.071.023-3.107.019-.62,0-1.687.007-2.409-.011a2.656,2.656,0,0,0-.028.442c0,.016,0,.625,0,1.652.7.023,1.858.012,2.51.015,1.012,0,2.023-.013,3.034-.019.852-.006,4.284.041,5.555-.058q0-.581-.008-1.161C89.086,286.354,89.076,285.764,89.058,285.536Z" transform="translate(-72.556 -279.492)" fill="#ffd075"/>
          <path id="Trazado_115684" data-name="Trazado 115684" d="M97.559,421.96c-2.5.083-8.28.041-9.759.046-1.831.006-3.662.023-5.494.019-1.1,0-2.983.007-4.262-.011a1.509,1.509,0,0,0-.049.442c0,.016,0,.625,0,1.652,1.239.023,3.285.012,4.439.015,1.789,0,3.577-.013,5.366-.019,1.506-.006,7.577.041,9.824-.057,0-.388-.009-.775-.014-1.162C97.608,422.778,97.591,422.188,97.559,421.96Z" transform="translate(-72.556 -355.491)" fill="#ffd075"/>
          <path id="Trazado_115685" data-name="Trazado 115685" d="M113.416,285.536c-.953.084-3.158.041-3.723.046-.7.006-1.4.023-2.1.019-.419,0-1.138.007-1.626-.011a3.855,3.855,0,0,0-.019.442c0,.016,0,.625,0,1.652.473.023,1.253.012,1.693.015.683,0,1.365-.013,2.047-.019.574-.006,2.89.041,3.748-.058l-.005-1.161C113.435,286.354,113.428,285.764,113.416,285.536Z" transform="translate(-88.131 -279.492)" fill="#7991d1"/>
          <path id="Trazado_115686" data-name="Trazado 115686" d="M120.381,340.675c-1.412.084-4.682.041-5.518.046-1.036.006-2.071.023-3.107.02-.621,0-1.687.007-2.41-.011a2.687,2.687,0,0,0-.027.442c0,.016,0,.625,0,1.652.7.023,1.858.012,2.51.015,1.012,0,2.023-.012,3.034-.019.852-.005,4.284.041,5.555-.057q0-.581-.008-1.162C120.409,341.493,120.4,340.9,120.381,340.675Z" transform="translate(-90.005 -310.209)" fill="#ffd075"/>
          <path id="Trazado_115687" data-name="Trazado 115687" d="M144.739,340.675c-.953.084-3.158.041-3.723.046-.7.006-1.4.023-2.1.02-.419,0-1.138.007-1.626-.011a3.857,3.857,0,0,0-.019.442c0,.016,0,.625,0,1.652.473.023,1.253.012,1.693.015.683,0,1.365-.012,2.047-.019.574-.005,2.89.041,3.748-.057q0-.581-.005-1.162C144.758,341.493,144.751,340.9,144.739,340.675Z" transform="translate(-105.58 -310.209)" fill="#7991d1"/>
          <path id="Trazado_115688" data-name="Trazado 115688" d="M121.7,381.835c-.953.084-3.158.041-3.723.046-.7.006-1.4.023-2.1.019-.419,0-1.138.007-1.626-.01a3.855,3.855,0,0,0-.019.442v1.652c.472.023,1.253.012,1.693.015.682,0,1.365-.012,2.047-.019.574-.005,2.891.041,3.748-.057q0-.581-.006-1.162C121.719,382.653,121.712,382.063,121.7,381.835Z" transform="translate(-92.746 -333.138)" fill="#7991d1"/>
          <path id="Trazado_115689" data-name="Trazado 115689" d="M121.7,390.766c-.953.084-3.158.041-3.723.046-.7.006-1.4.023-2.1.019-.419,0-1.138.008-1.626-.01a3.855,3.855,0,0,0-.019.442v1.652c.472.023,1.253.012,1.693.015.682,0,1.365-.013,2.047-.019.574-.005,2.891.041,3.748-.057q0-.581-.006-1.162C121.719,391.584,121.712,390.994,121.7,390.766Z" transform="translate(-92.746 -338.113)" fill="#7991d1"/>
          <path id="Trazado_115690" data-name="Trazado 115690" d="M139.689,285.536c-1.738.084-5.765.041-6.8.046-1.275.006-2.55.023-3.825.019-.764,0-2.077.007-2.967-.011a2.136,2.136,0,0,0-.034.442c0,.016,0,.625,0,1.652.862.023,2.287.012,3.091.015,1.245,0,2.491-.013,3.736-.019,1.048-.006,5.275.041,6.84-.058q0-.581-.01-1.161C139.724,286.354,139.711,285.764,139.689,285.536Z" transform="translate(-99.336 -279.492)" fill="#7991d1"/>
          <path id="Trazado_115691" data-name="Trazado 115691" d="M131.134,299.265c-3.993.09-13.242.044-15.608.05-2.929.007-5.857.025-8.786.02-1.755,0-4.77.008-6.815-.011a1.1,1.1,0,0,0-.078.475c0,.018,0,.672,0,1.775,1.981.026,5.253.013,7.1.016,2.861,0,5.721-.014,8.582-.021,2.408-.006,12.117.044,15.711-.062-.008-.416-.014-.832-.022-1.248A8.746,8.746,0,0,0,131.134,299.265Z" transform="translate(-84.729 -287.14)" fill="#ffd075"/>
          <path id="Trazado_115692" data-name="Trazado 115692" d="M131.134,308.584c-3.993.09-13.242.044-15.608.05-2.929.007-5.857.025-8.786.021-1.755,0-4.77.008-6.815-.012a1.1,1.1,0,0,0-.078.475c0,.017,0,.671,0,1.775,1.981.025,5.253.013,7.1.016,2.861,0,5.721-.014,8.582-.02,2.408-.006,12.117.044,15.711-.062-.008-.416-.014-.832-.022-1.248A8.76,8.76,0,0,0,131.134,308.584Z" transform="translate(-84.729 -292.331)" fill="#fff"/>
          <path id="Trazado_115693" data-name="Trazado 115693" d="M123.249,317.9c-2.987.09-9.9.044-11.674.05-2.191.007-4.381.025-6.572.021-1.312,0-3.568.008-5.1-.012a1.454,1.454,0,0,0-.058.475c0,.017,0,.672,0,1.775,1.482.025,3.93.013,5.31.016,2.14,0,4.28-.014,6.419-.02,1.8-.006,9.063.044,11.752-.062q-.008-.624-.016-1.248C123.308,318.782,123.286,318.148,123.249,317.9Z" transform="translate(-84.729 -297.523)" fill="#fff"/>
          <path id="Trazado_115694" data-name="Trazado 115694" d="M123.249,410.837c-2.987.09-9.9.044-11.674.05-2.191.007-4.381.025-6.572.02-1.312,0-3.568.008-5.1-.011a1.451,1.451,0,0,0-.058.475c0,.018,0,.672,0,1.775,1.482.026,3.93.013,5.31.016,2.14,0,4.28-.014,6.419-.021,1.8-.006,9.063.044,11.752-.062q-.008-.624-.016-1.248C123.308,411.716,123.286,411.082,123.249,410.837Z" transform="translate(-84.729 -349.294)" fill="#ffd075"/>
          <path id="Trazado_115695" data-name="Trazado 115695" d="M145.371,353.886c-3.993.09-13.241.044-15.607.05-2.929.007-5.857.025-8.786.02-1.755,0-4.77.008-6.816-.011a1.1,1.1,0,0,0-.078.475c0,.018,0,.672,0,1.775,1.981.026,5.254.013,7.1.016,2.861,0,5.721-.014,8.582-.021,2.408-.006,12.117.044,15.711-.061q-.011-.625-.023-1.248A8.655,8.655,0,0,0,145.371,353.886Z" transform="translate(-92.66 -317.568)" fill="#fff"/>
          <path id="Trazado_115696" data-name="Trazado 115696" d="M145.371,363.2c-3.993.09-13.241.044-15.607.05-2.929.007-5.857.025-8.786.02-1.755,0-4.77.008-6.816-.011a1.1,1.1,0,0,0-.078.475c0,.018,0,.672,0,1.775,1.981.025,5.254.013,7.1.016,2.861,0,5.721-.014,8.582-.021,2.408-.006,12.117.044,15.711-.061q-.011-.625-.023-1.248A8.663,8.663,0,0,0,145.371,363.2Z" transform="translate(-92.66 -322.76)" fill="#fff"/>
          <path id="Trazado_115697" data-name="Trazado 115697" d="M137.486,372.524c-2.987.09-9.9.044-11.674.05-2.191.007-4.381.025-6.572.021-1.313,0-3.568.008-5.1-.012a1.449,1.449,0,0,0-.058.475c0,.017,0,.672,0,1.775,1.482.025,3.93.013,5.31.016,2.14,0,4.28-.014,6.419-.02,1.8-.006,9.063.044,11.752-.062-.006-.416-.011-.832-.017-1.248C137.545,373.4,137.524,372.769,137.486,372.524Z" transform="translate(-92.66 -327.951)" fill="#fff"/>
          <path id="Trazado_115698" data-name="Trazado 115698" d="M126.487,399.511c-1.583.09-5.249.044-6.187.05-1.161.007-2.322.025-3.483.021-.7,0-1.891.008-2.7-.012a2.67,2.67,0,0,0-.031.475c0,.017,0,.672,0,1.775.785.025,2.083.013,2.814.016,1.134,0,2.268-.014,3.4-.02.954-.006,4.8.044,6.228-.062q0-.624-.009-1.248C126.518,400.39,126.507,399.756,126.487,399.511Z" transform="translate(-92.66 -342.985)" fill="#fff"/>
          <path id="Trazado_115699" data-name="Trazado 115699" d="M159.473,399.511c-1.918.09-6.36.044-7.5.05-1.407.007-2.813.025-4.22.021-.843,0-2.291.008-3.274-.012a2.246,2.246,0,0,0-.037.475c0,.017,0,.672,0,1.775.951.025,2.523.013,3.41.016,1.374,0,2.748-.014,4.122-.02,1.157-.006,5.82.044,7.546-.062q-.005-.624-.011-1.248C159.511,400.39,159.5,399.756,159.473,399.511Z" transform="translate(-109.574 -342.985)" fill="#fff"/>
          <path id="Trazado_115700" data-name="Trazado 115700" d="M79,343.753q-.015-2.555-.03-5.109-.029-5.109-.059-10.218-.06-10.329-.12-20.657-.035-5.886-.062-11.773a.193.193,0,0,0-.385,0q.141,20.658.227,41.315l.031,5.775c.011,1.985-.089,4.022.116,6a.115.115,0,0,0,.229,0C79.11,347.325,79.011,345.518,79,343.753Z" transform="translate(-72.75 -285.216)" fill="#7991d1"/>
          <path id="Trazado_115701" data-name="Trazado 115701" d="M100.63,335.523c.017-2.468.043-4.936.042-7.4a.177.177,0,0,0-.354,0c-.133,8.729-.143,17.461-.2,26.19-.017,2.468-.048,4.936-.021,7.4a.151.151,0,0,0,.3,0C100.623,352.989,100.57,344.25,100.63,335.523Z" transform="translate(-84.86 -303.117)" fill="#7991d1"/>
        </g>
      </g>
      <g id="Grupo_108759" data-name="Grupo 108759" transform="translate(55.21 40.584)">
        <g id="Grupo_108751" data-name="Grupo 108751">
          <path id="Trazado_115702" data-name="Trazado 115702" d="M297.018,150.207q-.124-6.517-.254-13.034a17.754,17.754,0,0,0-.405-3.673c-.236-.7-48.508-.048-57.989-.143-9.309-.093-55.7.184-55.96.19-1.238.032-1.016,2.062-1.045,2.061,0,.306-.066,58.111-.025,87.112.279.38,48.2.248,57.721.225,9.348-.023,51.756.212,56.368-.434a2.606,2.606,0,0,0,.361-.113,2.346,2.346,0,0,0,1.048-.411c.145-13.611.2-27.236.048-40.718C296.77,170.859,296.877,160.525,297.018,150.207Z" transform="translate(-181.326 -133.171)" fill="#fff"/>
          <path id="Trazado_115703" data-name="Trazado 115703" d="M239.094,138.687c8.683-.023,41.638.158,57.742-.168q-.013-.674-.026-1.347a17.781,17.781,0,0,0-.4-3.673c-.237-.7-48.508-.048-57.99-.143-9.309-.094-55.7.184-55.96.19-1.238.032-1.016,2.062-1.045,2.061,0,.041,0,1.134,0,3.053C198.221,138.8,230.863,138.708,239.094,138.687Z" transform="translate(-181.371 -133.171)" fill="#345995"/>
          <path id="Trazado_115704" data-name="Trazado 115704" d="M422.2,204.423q-.012,11.217-.017,22.434t0,22.434c0,4.126-.065,8.261.049,12.387-5.153.221-10.319.409-15.462.792-.135.01-.139.215,0,.213,5.155-.058,10.316-.313,15.466-.534a.239.239,0,0,0,.1-.029.159.159,0,0,0,.218-.145c.12-3.751.065-7.512.077-11.264q.018-5.585.025-11.17c.012-7.478.058-14.956.048-22.434-.006-4.228.009-8.456.013-12.684A.262.262,0,0,0,422.2,204.423Z" transform="translate(-306.861 -172.723)" fill="#d5dfe9"/>
          <path id="Trazado_115705" data-name="Trazado 115705" d="M442.2,156.519c-.021-.281-.452-.289-.444,0,.074,2.938.207,5.869.206,8.809s-.087,5.874-.209,8.809c-.012.3.445.3.462,0,.171-2.933.237-5.871.233-8.809S442.422,159.444,442.2,156.519Z" transform="translate(-326.404 -146.059)" fill="#d5dfe9"/>
          <path id="Trazado_115706" data-name="Trazado 115706" d="M431.707,138.973a1.089,1.089,0,0,1-.066-.981,1.251,1.251,0,0,1,.187-.286,1.176,1.176,0,0,1,.156-.145,1.1,1.1,0,0,1,.351-.173,1.293,1.293,0,0,1,.247-.056,1.442,1.442,0,0,1,.255.011,1.066,1.066,0,0,1,.642.338,1.107,1.107,0,0,1-1.409,1.683A1.1,1.1,0,0,1,431.707,138.973Z" transform="translate(-320.723 -135.488)" fill="#ffd075"/>
          <path id="Trazado_115707" data-name="Trazado 115707" d="M424.3,138.973a1.089,1.089,0,0,1-.066-.981,1.25,1.25,0,0,1,.187-.286,1.178,1.178,0,0,1,.156-.145,1.109,1.109,0,0,1,.351-.173,1.294,1.294,0,0,1,.247-.056,1.443,1.443,0,0,1,.255.011,1.066,1.066,0,0,1,.642.338,1.107,1.107,0,0,1-1.409,1.683A1.094,1.094,0,0,1,424.3,138.973Z" transform="translate(-316.599 -135.488)" fill="#fff"/>
          <path id="Trazado_115708" data-name="Trazado 115708" d="M416.9,138.973a1.087,1.087,0,0,1-.066-.981,1.25,1.25,0,0,1,.187-.286,1.174,1.174,0,0,1,.156-.145,1.108,1.108,0,0,1,.351-.173,1.294,1.294,0,0,1,.247-.056,1.443,1.443,0,0,1,.255.011,1.066,1.066,0,0,1,.642.338,1.105,1.105,0,1,1-1.771,1.293Z" transform="translate(-312.475 -135.488)" fill="#fff"/>
        </g>
        <g id="Grupo_108758" data-name="Grupo 108758" transform="translate(12.132 16.186)">
          <g id="Grupo_108756" data-name="Grupo 108756">
            <g id="Grupo_108752" data-name="Grupo 108752">
              <path id="Trazado_115709" data-name="Trazado 115709" d="M209.3,175.486v-5.072a.558.558,0,0,1,.591-.52l6.353-.092,5.982-.087a13.913,13.913,0,0,1,2.915,5.568c-3.988.462-8,.582-12,.7a10.607,10.607,0,0,1-3.713-.329C209.4,175.534,209.3,175.614,209.3,175.486Z" transform="translate(-209.044 -169.715)" fill="#ffbb39"/>
              <path id="Trazado_115710" data-name="Trazado 115710" d="M247.552,203.585c.11-7.068.032-14.014-.039-21.033a4.445,4.445,0,0,0-.3-1.987,1.613,1.613,0,0,0-1.51-.669q-17.814-.379-35.629.335a1.619,1.619,0,0,0-1.084.269c-.322.272-.279.554-.265,1.287q.153,11.31.307,22.62a1.919,1.919,0,0,0,1.88,1.836c11.6-.017,23.27-.74,34.87-.757a1.9,1.9,0,0,0,1.326-.346A1.709,1.709,0,0,0,247.552,203.585Z" transform="translate(-208.717 -175.314)" fill="#eb9921"/>
            </g>
            <g id="Grupo_108753" data-name="Grupo 108753" transform="translate(51.533)">
              <path id="Trazado_115711" data-name="Trazado 115711" d="M325.652,175.486v-5.072a.558.558,0,0,1,.591-.52l6.353-.092,5.981-.087a13.909,13.909,0,0,1,2.915,5.568c-3.988.462-8,.582-12,.7a10.607,10.607,0,0,1-3.713-.329C325.747,175.534,325.652,175.614,325.652,175.486Z" transform="translate(-325.392 -169.715)" fill="#ffbb39"/>
              <path id="Trazado_115712" data-name="Trazado 115712" d="M363.9,203.585c.11-7.068.031-14.014-.039-21.033a4.457,4.457,0,0,0-.3-1.987,1.613,1.613,0,0,0-1.51-.669q-17.814-.379-35.629.335a1.619,1.619,0,0,0-1.084.269c-.322.272-.279.554-.265,1.287l.307,22.62a1.919,1.919,0,0,0,1.88,1.836c11.6-.017,23.27-.74,34.87-.757a1.9,1.9,0,0,0,1.326-.346A1.71,1.71,0,0,0,363.9,203.585Z" transform="translate(-325.064 -175.314)" fill="#eb9921"/>
            </g>
            <g id="Grupo_108754" data-name="Grupo 108754" transform="translate(0 36.117)">
              <path id="Trazado_115713" data-name="Trazado 115713" d="M209.3,257.029v-5.072a.558.558,0,0,1,.591-.52l6.353-.092,5.982-.086a13.91,13.91,0,0,1,2.915,5.568c-3.988.462-8,.582-12,.7a10.608,10.608,0,0,1-3.713-.329C209.4,257.077,209.3,257.157,209.3,257.029Z" transform="translate(-209.044 -251.258)" fill="#ffbb39"/>
              <path id="Trazado_115714" data-name="Trazado 115714" d="M247.552,285.127c.11-7.068.032-14.014-.039-21.033a4.445,4.445,0,0,0-.3-1.987,1.613,1.613,0,0,0-1.51-.669q-17.814-.379-35.629.335a1.619,1.619,0,0,0-1.084.269c-.322.272-.279.554-.265,1.287q.153,11.31.307,22.62a1.919,1.919,0,0,0,1.88,1.836c11.6-.017,23.27-.74,34.87-.757a1.9,1.9,0,0,0,1.326-.346A1.709,1.709,0,0,0,247.552,285.127Z" transform="translate(-208.717 -256.856)" fill="#eb9921"/>
            </g>
            <g id="Grupo_108755" data-name="Grupo 108755" transform="translate(51.533 36.117)">
              <path id="Trazado_115715" data-name="Trazado 115715" d="M325.652,257.029v-5.072a.558.558,0,0,1,.591-.52l6.353-.092,5.981-.086a13.906,13.906,0,0,1,2.915,5.568c-3.988.462-8,.582-12,.7a10.607,10.607,0,0,1-3.713-.329C325.747,257.077,325.652,257.157,325.652,257.029Z" transform="translate(-325.392 -251.258)" fill="#ffbb39"/>
              <path id="Trazado_115716" data-name="Trazado 115716" d="M363.9,285.127c.11-7.068.031-14.014-.039-21.033a4.457,4.457,0,0,0-.3-1.987,1.614,1.614,0,0,0-1.51-.669q-17.814-.379-35.629.335a1.619,1.619,0,0,0-1.084.269c-.322.272-.279.554-.265,1.287l.307,22.62a1.919,1.919,0,0,0,1.88,1.836c11.6-.017,23.27-.74,34.87-.757a1.9,1.9,0,0,0,1.326-.346A1.71,1.71,0,0,0,363.9,285.127Z" transform="translate(-325.064 -256.856)" fill="#eb9921"/>
            </g>
          </g>
          <path id="Trazado_115717" data-name="Trazado 115717" d="M380.392,213.488q-.03-.65-.061-1.3a1.056,1.056,0,0,0-.075-.366c-.042-.07-8.476.1-10.133.11-1.626.011-9.731.138-9.777.14a.175.175,0,0,0-.18.208c0,.031.062,5.8.1,8.7.05.037,3.5-.015,5.1-.033,1.664-.019,3.327-.046,4.99-.068,1.633-.023,9.043-.09,9.848-.164.024,0,.042-.008.063-.012a.614.614,0,0,0,.182-.043c.008-1.36,0-2.72-.043-4.067C380.374,215.551,380.38,214.519,380.392,213.488Z" transform="translate(-293.086 -193.162)" fill="#4c5980"/>
          <g id="Grupo_108757" data-name="Grupo 108757" transform="translate(71.084 20.192)">
            <path id="Trazado_115718" data-name="Trazado 115718" d="M369.305,220.229q.317.055.686.095a5.877,5.877,0,0,0,.7.035,3.181,3.181,0,0,0,.486-.039.848.848,0,0,0,.36-.14.648.648,0,0,0,.221-.294,1.3,1.3,0,0,0,.071-.491,1.231,1.231,0,0,0-.056-.386.528.528,0,0,0-.177-.245,1.008,1.008,0,0,0-.322-.154c-.133-.04-.3-.081-.488-.123l-.222-.049a3.505,3.505,0,0,1-.543-.159,1.342,1.342,0,0,1-.427-.26,1.148,1.148,0,0,1-.281-.406,1.6,1.6,0,0,1-.107-.6,1.448,1.448,0,0,1,.432-1.155,1.944,1.944,0,0,1,1.311-.408,3.663,3.663,0,0,1,.756.065,3.988,3.988,0,0,1,.617.169l.007.494-.624-.074a5.546,5.546,0,0,0-.682-.035,3.281,3.281,0,0,0-.457.035.934.934,0,0,0-.356.126.6.6,0,0,0-.229.264,1.239,1.239,0,0,0-.008.829.575.575,0,0,0,.195.245,1.1,1.1,0,0,0,.319.154,3.758,3.758,0,0,0,.446.109l.237.049a3.376,3.376,0,0,1,.595.173,1.3,1.3,0,0,1,.427.271,1.071,1.071,0,0,1,.26.417,1.919,1.919,0,0,1,.093.611,2.038,2.038,0,0,1-.113.746,1.254,1.254,0,0,1-.344.509,1.406,1.406,0,0,1-.557.291,2.953,2.953,0,0,1-.751.1,3.464,3.464,0,0,1-.841-.082,4.848,4.848,0,0,1-.629-.187Z" transform="translate(-369.206 -215.383)" fill="#fff"/>
            <path id="Trazado_115719" data-name="Trazado 115719" d="M380.43,220.836a1.949,1.949,0,0,1-.821-.229,1.555,1.555,0,0,1-.549-.532,2.452,2.452,0,0,1-.312-.829,6.058,6.058,0,0,1-.106-1.123,5.566,5.566,0,0,1,.1-1.218,2.354,2.354,0,0,1,.361-.878,1.587,1.587,0,0,1,.649-.535,2.407,2.407,0,0,1,.967-.189,2.458,2.458,0,0,1,.982.161,1.526,1.526,0,0,1,.651.512,2.3,2.3,0,0,1,.369.861,5.852,5.852,0,0,1,.125,1.2,3.862,3.862,0,0,1-.392,1.981,1.687,1.687,0,0,1-1.364.805l0,.17a.824.824,0,0,0,.154.543.715.715,0,0,0,.555.163h.107a.915.915,0,0,0,.122-.009l.005.435c-.069.015-.147.029-.232.04a2.319,2.319,0,0,1-.261.018,1.074,1.074,0,0,1-.84-.281,1.345,1.345,0,0,1-.273-.914Zm-.7-1.023a.943.943,0,0,0,.432.352,1.567,1.567,0,0,0,.605.1,1.592,1.592,0,0,0,.61-.114.97.97,0,0,0,.427-.363,1.763,1.763,0,0,0,.246-.674,5.6,5.6,0,0,0,.068-1.04,5.407,5.407,0,0,0-.1-1.046,1.884,1.884,0,0,0-.262-.671.945.945,0,0,0-.432-.356,1.568,1.568,0,0,0-.605-.1,1.6,1.6,0,0,0-.61.114.976.976,0,0,0-.427.363,1.774,1.774,0,0,0-.246.674,5.63,5.63,0,0,0-.069,1.04,5.436,5.436,0,0,0,.1,1.046A1.944,1.944,0,0,0,379.732,219.813Z" transform="translate(-374.462 -215.303)" fill="#fff"/>
            <path id="Trazado_115720" data-name="Trazado 115720" d="M390.547,220.785l-.067-5.38.722-.009.059,4.768,2.3-.028.008.612Z" transform="translate(-381.057 -215.355)" fill="#fff"/>
          </g>
        </g>
      </g>
      <g id="Grupo_108760" data-name="Grupo 108760" transform="translate(11.286 53.103)">
        <path id="Trazado_115721" data-name="Trazado 115721" d="M110.346,221.7q.023-4.34.046-8.68a.437.437,0,0,0-.054-.261.443.443,0,0,0-.366-.126c-.351-.009-.793.155-1.158.173a.126.126,0,0,0,.032-.17.343.343,0,0,0-.31-.063c-2.514.3-5.037-.292-7.55-.612a53.361,53.361,0,0,0-11.086-.039,31.723,31.723,0,0,0-7.238,1.242.74.74,0,0,0-.37.21.755.755,0,0,0-.109.47q-.035,4.113.005,8.225a.975.975,0,0,0,0,.506c.3,1.085,2.731,1.274,3.682,1.353,2.059.171,4.149.164,6.214.155,4.111-.018,8.218-.242,12.321-.466a12.275,12.275,0,0,0,5.43-1.142.959.959,0,0,0,.508-.519A.511.511,0,0,0,110.346,221.7Z" transform="translate(-82.156 -189.408)" fill="#d66ec0"/>
        <path id="Trazado_115722" data-name="Trazado 115722" d="M82.342,212.467c-.232-.851.708-1.541,1.537-1.844a20.142,20.142,0,0,1,5.372-.976,82.326,82.326,0,0,1,17.042.444,13.72,13.72,0,0,1,3.409.771c.43.175.918.54.8.988a.961.961,0,0,1-.508.519,12.278,12.278,0,0,1-5.43,1.142c-4.1.224-8.21.448-12.322.466-2.065.009-4.154.016-6.214-.155C85.072,213.741,82.637,213.552,82.342,212.467Z" transform="translate(-82.24 -188.155)" fill="#eba7dc"/>
        <path id="Trazado_115723" data-name="Trazado 115723" d="M110.65,200.1q.023-4.34.047-8.68a.454.454,0,0,0-.051-.261.42.42,0,0,0-.353-.126c-.338-.008-.762.155-1.113.174a.13.13,0,0,0,.031-.17.32.32,0,0,0-.3-.063c-2.417.305-4.843-.291-7.259-.61A49.3,49.3,0,0,0,91,190.324a29.439,29.439,0,0,0-6.959,1.244.71.71,0,0,0-.356.21.78.78,0,0,0-.1.47q-.035,4.113,0,8.226a1.012,1.012,0,0,0,0,.505c.284,1.085,2.625,1.273,3.54,1.352,1.979.17,3.989.163,5.974.154,3.953-.02,7.9-.245,11.846-.47a11.412,11.412,0,0,0,5.221-1.143.943.943,0,0,0,.489-.519A.538.538,0,0,0,110.65,200.1Z" transform="translate(-82.932 -177.377)" fill="#b345b5"/>
        <path id="Trazado_115724" data-name="Trazado 115724" d="M110.529,197.715q.023-4.34.046-8.68a.439.439,0,0,0-.054-.261.445.445,0,0,0-.366-.126c-.352-.008-.793.155-1.158.174a.126.126,0,0,0,.031-.17.341.341,0,0,0-.31-.063c-2.514.3-5.037-.292-7.55-.612a53.327,53.327,0,0,0-11.086-.039,31.724,31.724,0,0,0-7.238,1.242.74.74,0,0,0-.37.21.755.755,0,0,0-.109.47q-.034,4.113.006,8.225a.975.975,0,0,0,0,.506c.3,1.085,2.731,1.274,3.682,1.353,2.059.171,4.149.164,6.214.155,4.111-.018,8.218-.242,12.321-.466a12.276,12.276,0,0,0,5.43-1.142.959.959,0,0,0,.508-.519A.512.512,0,0,0,110.529,197.715Z" transform="translate(-82.258 -176.049)" fill="#d66ec0"/>
        <path id="Trazado_115725" data-name="Trazado 115725" d="M82.524,188.486c-.232-.851.708-1.541,1.537-1.844a20.131,20.131,0,0,1,5.373-.976,82.32,82.32,0,0,1,17.041.444,13.73,13.73,0,0,1,3.409.77c.431.175.918.541.8.988a.959.959,0,0,1-.508.518,12.268,12.268,0,0,1-5.43,1.142c-4.1.224-8.21.449-12.321.466-2.065.009-4.155.015-6.214-.155C85.255,189.76,82.82,189.571,82.524,188.486Z" transform="translate(-82.341 -174.795)" fill="#eba7dc"/>
        <path id="Trazado_115726" data-name="Trazado 115726" d="M110.833,176.114q.023-4.34.047-8.681a.453.453,0,0,0-.052-.261.417.417,0,0,0-.352-.126c-.338-.008-.762.155-1.114.174a.13.13,0,0,0,.031-.17.319.319,0,0,0-.3-.063c-2.418.305-4.843-.291-7.259-.61a49.3,49.3,0,0,0-10.658-.035,29.463,29.463,0,0,0-6.959,1.245.7.7,0,0,0-.356.21.777.777,0,0,0-.1.47q-.034,4.113,0,8.225a1.009,1.009,0,0,0,0,.506c.284,1.085,2.624,1.273,3.54,1.352,1.979.17,3.989.163,5.974.153,3.952-.019,7.9-.244,11.846-.47a11.423,11.423,0,0,0,5.221-1.143.946.946,0,0,0,.489-.519A.532.532,0,0,0,110.833,176.114Z" transform="translate(-83.033 -164.018)" fill="#b345b5"/>
        <path id="Trazado_115727" data-name="Trazado 115727" d="M110.712,173.734l.046-8.68a.438.438,0,0,0-.054-.261.445.445,0,0,0-.367-.126c-.351-.008-.792.155-1.158.174a.127.127,0,0,0,.032-.17.343.343,0,0,0-.31-.063c-2.514.3-5.037-.292-7.55-.612a53.327,53.327,0,0,0-11.086-.039,31.723,31.723,0,0,0-7.238,1.242.742.742,0,0,0-.37.209.756.756,0,0,0-.109.47q-.035,4.113.005,8.225a.975.975,0,0,0,0,.506c.3,1.085,2.73,1.274,3.682,1.353,2.059.171,4.149.164,6.213.155,4.111-.018,8.218-.243,12.322-.466a12.273,12.273,0,0,0,5.43-1.142.958.958,0,0,0,.508-.518A.512.512,0,0,0,110.712,173.734Z" transform="translate(-82.36 -162.69)" fill="#d66ec0"/>
        <path id="Trazado_115728" data-name="Trazado 115728" d="M82.707,164.5c-.232-.851.708-1.541,1.537-1.844a20.127,20.127,0,0,1,5.372-.976,82.3,82.3,0,0,1,17.042.444,13.732,13.732,0,0,1,3.409.77c.431.175.918.54.8.988a.958.958,0,0,1-.508.518,12.268,12.268,0,0,1-5.43,1.142c-4.1.224-8.21.449-12.321.466-2.065.009-4.155.016-6.214-.155C85.438,165.779,83,165.59,82.707,164.5Z" transform="translate(-82.443 -161.436)" fill="#eba7dc"/>
      </g>
      <g id="Grupo_108764" data-name="Grupo 108764" transform="translate(84.913 142.893)">
        <g id="Grupo_108761" data-name="Grupo 108761">
          <path id="Trazado_115729" data-name="Trazado 115729" d="M313.986,372.08q-.07-3.03-.144-6.059a6.845,6.845,0,0,0-.229-1.708c-.134-.325-27.505-.023-32.882-.068-5.279-.043-31.581.084-31.73.087-.7.015-.576.958-.593.958,0,.142-.036,27.015-.012,40.5.158.177,11.343.131,16.533.138,5.4.007,10.8-.021,16.2-.032,5.3-.01,29.347.1,31.963-.2a1.715,1.715,0,0,0,.2-.053,1.517,1.517,0,0,0,.594-.191c.082-6.328.112-12.661.026-18.929C313.845,381.681,313.906,376.876,313.986,372.08Z" transform="translate(-248.387 -364.16)" fill="#ffbb39"/>
          <path id="Trazado_115730" data-name="Trazado 115730" d="M264.283,369.128q8.436,0,16.87,0c5.269,0,28.32.023,32.782-.02q-.036-1.543-.074-3.086a6.845,6.845,0,0,0-.229-1.708c-.134-.325-27.505-.023-32.882-.068-5.279-.043-31.581.084-31.73.087-.7.015-.576.958-.593.958,0,.032,0,1.47,0,3.824C251.677,369.129,259.967,369.126,264.283,369.128Z" transform="translate(-248.407 -364.16)" fill="#345995"/>
          <path id="Trazado_115731" data-name="Trazado 115731" d="M387.15,368.955a1.273,1.273,0,0,1-.078-1.149,1.471,1.471,0,0,1,.219-.335,1.382,1.382,0,0,1,.182-.171,1.309,1.309,0,0,1,.411-.2,1.526,1.526,0,0,1,.29-.065,1.681,1.681,0,0,1,.3.012,1.253,1.253,0,0,1,.752.4,1.295,1.295,0,1,1-2.075,1.515Z" transform="translate(-325.589 -365.759)" fill="#ffd075"/>
          <path id="Trazado_115732" data-name="Trazado 115732" d="M378.478,368.955a1.273,1.273,0,0,1-.078-1.149,1.47,1.47,0,0,1,.219-.335,1.382,1.382,0,0,1,.182-.171,1.309,1.309,0,0,1,.411-.2,1.526,1.526,0,0,1,.29-.065,1.681,1.681,0,0,1,.3.012,1.252,1.252,0,0,1,.752.4,1.295,1.295,0,1,1-2.075,1.515Z" transform="translate(-320.758 -365.759)" fill="#fff"/>
          <path id="Trazado_115733" data-name="Trazado 115733" d="M369.806,368.955a1.273,1.273,0,0,1-.078-1.149,1.456,1.456,0,0,1,.219-.335,1.384,1.384,0,0,1,.182-.171,1.309,1.309,0,0,1,.411-.2,1.52,1.52,0,0,1,.29-.065,1.681,1.681,0,0,1,.3.012,1.252,1.252,0,0,1,.752.4,1.295,1.295,0,1,1-2.075,1.515Z" transform="translate(-315.927 -365.759)" fill="#fff"/>
        </g>
        <g id="Grupo_108763" data-name="Grupo 108763" transform="translate(5.597 11.118)">
          <path id="Trazado_115734" data-name="Trazado 115734" d="M314.045,412.83q-2.759.2-5.527.171c-.178,0-.446-.006-.467-.184a19.059,19.059,0,0,1,.011-4.538.741.741,0,0,1,.084-.305.19.19,0,0,1,.206-.107q2.819.041,5.638-.062c.018-.908-.012-1.913-.066-2.82.256-.23.69-.02.958.2a39.43,39.43,0,0,1,5.4,4.753c.395.462.106.954-.307,1.4s-1.551,1.417-2.005,1.821c-.778.692-2.022,1.91-3.36,3.01-.12.1-.418-.228-.43-.382C314.1,414.744,314.126,413.869,314.045,412.83Z" transform="translate(-287.148 -397.965)" fill="#4c5980"/>
          <g id="Grupo_108762" data-name="Grupo 108762">
            <path id="Trazado_115735" data-name="Trazado 115735" d="M277.751,393.35c-1.75-1.352-3.608-2.743-5.387-4.059-.96,0-2.067.006-3.026-.019a72.13,72.13,0,0,0-7.988.249.934.934,0,0,0-.267.718c.124,7.525-.166,13-.017,22.529a.605.605,0,0,0,.56.672c5.531.092,9.771.155,14.652-.091.2-.01,1.34.036,1.45-.13a1.047,1.047,0,0,0,.179-.566c0-3.028-.078-6.7-.094-10.011C277.8,399.566,277.871,396.341,277.751,393.35Z" transform="translate(-261.023 -389.261)" fill="#fff"/>
            <path id="Trazado_115736" data-name="Trazado 115736" d="M292.119,393.338q-1.7.781-3.35,1.666a2.336,2.336,0,0,1-.606.256.646.646,0,0,1-.578-.08,58.657,58.657,0,0,1-.875-5.882,3.485,3.485,0,0,1,.939.375,30.958,30.958,0,0,1,4.365,3.423C292.091,393.17,292.216,393.294,292.119,393.338Z" transform="translate(-275.333 -389.282)" fill="#d5dfe9"/>
            <path id="Trazado_115737" data-name="Trazado 115737" d="M278.168,408.1c-1.7.07-5.624.034-6.63.039-1.244,0-2.487.019-3.732.016-.745,0-2.026.006-2.895-.008a1.484,1.484,0,0,0-.033.365c0,.014,0,.517,0,1.366.842.019,2.231.01,3.015.012,1.215,0,2.43-.011,3.645-.016,1.023,0,5.146.034,6.673-.047q0-.48-.009-.961C278.2,408.774,278.189,408.286,278.168,408.1Z" transform="translate(-263.171 -399.754)" fill="#a1b0ba"/>
            <path id="Trazado_115738" data-name="Trazado 115738" d="M278.168,415.884c-1.7.069-5.624.034-6.63.038-1.244.005-2.487.019-3.732.016-.745,0-2.026.006-2.895-.009a1.486,1.486,0,0,0-.033.366c0,.013,0,.517,0,1.366.842.02,2.231.01,3.015.012,1.215,0,2.43-.011,3.645-.016,1.023,0,5.146.034,6.673-.047q0-.48-.009-.961C278.2,416.561,278.189,416.072,278.168,415.884Z" transform="translate(-263.171 -404.092)" fill="#a1b0ba"/>
            <path id="Trazado_115739" data-name="Trazado 115739" d="M278.168,423.67c-1.7.069-5.624.034-6.63.038-1.244.005-2.487.02-3.732.016-.745,0-2.026.006-2.895-.009a1.487,1.487,0,0,0-.033.366c0,.014,0,.517,0,1.366.842.02,2.231.01,3.015.012,1.215,0,2.43-.011,3.645-.016,1.023,0,5.146.034,6.673-.047q0-.48-.009-.961C278.2,424.347,278.189,423.859,278.168,423.67Z" transform="translate(-263.171 -408.429)" fill="#a1b0ba"/>
            <path id="Trazado_115740" data-name="Trazado 115740" d="M274.4,431.457c-1.216.069-4.031.034-4.751.038-.892.005-1.783.019-2.675.016-.534,0-1.452.006-2.075-.008a2.092,2.092,0,0,0-.024.365c0,.014,0,.517,0,1.366.6.019,1.6.01,2.161.012.871,0,1.742-.011,2.613-.016.733,0,3.689.034,4.783-.047q0-.48-.007-.961C274.427,432.133,274.419,431.645,274.4,431.457Z" transform="translate(-263.171 -412.767)" fill="#a1b0ba"/>
          </g>
          <path id="Trazado_115741" data-name="Trazado 115741" d="M363.509,407.382l0-1.224c0-2.553-.025-5.1-.07-7.574-.03-1.7-.064-3.077-.107-4.349a.239.239,0,0,0-.078-.172c-.194-1.024-1.581-1.184-2.041-1.237-1.463-.169-2.815-.284-4.134-.353a47.236,47.236,0,0,0-8.348.253l-.1.012a3.216,3.216,0,0,0-2.61,1.2.537.537,0,0,0-.123.3c.029,1.633.02,3.3.012,4.9,0,.861-.009,1.722-.008,2.583l.007,7.562v.516c-.052.558-.062,1.127-.073,1.677-.007.361-.011.721-.01,1.082a5.455,5.455,0,0,0,.072,1.184,4.112,4.112,0,0,0,2.6,1.141,26.837,26.837,0,0,0,2.927.205l.487.017c.8.029,1.563.044,2.289.044a39.689,39.689,0,0,0,4.974-.285,27.526,27.526,0,0,0,3.97-.79.243.243,0,0,0,.167-.152.223.223,0,0,0,.115-.19C363.519,411.621,363.514,409.466,363.509,407.382Zm-14.753-14.171c1.157-.145,2.376-.244,3.624-.293a57.656,57.656,0,0,1,7.134.2l.151.013c.6.051,1.217.1,1.82.181a1.722,1.722,0,0,1,1.341.723,30.048,30.048,0,0,1-8.231,1.152h-.017a29.765,29.765,0,0,1-4.254-.3c-.689-.1-1.392-.228-2.088-.38-.239-.053-.478-.115-.718-.178-.323-.084-.655-.171-.987-.232A3.447,3.447,0,0,1,348.756,393.211Zm-2.348,1.338a9.765,9.765,0,0,0,1.147.32l.167.039c.5.12,1.04.229,1.638.334a31.107,31.107,0,0,0,3.285.4,30.072,30.072,0,0,0,6.693-.3,30.526,30.526,0,0,0,3.527-.775c.039,2.074.07,4.011.1,5.914-.366.055-.734.132-1.09.206-.313.065-.636.132-.955.184-.687.113-1.389.206-2.087.278a37.215,37.215,0,0,1-4.149.19,35.434,35.434,0,0,1-4.144-.286c-.856-.109-1.718-.276-2.55-.437-.51-.1-1.036-.2-1.573-.289v-.687q0-.565,0-1.13c0-.412,0-.823-.005-1.235C346.4,396.377,346.4,395.456,346.408,394.549ZM363,408c0,.461,0,.923,0,1.385s-.008.944-.014,1.417c-.012.907-.023,1.844-.012,2.768a40.435,40.435,0,0,1-13.658.9,8.391,8.391,0,0,1-1.635-.256,5.147,5.147,0,0,1-1.323-.626.237.237,0,0,0,0-.027c.078-1.814.067-3.663.056-5.452l0-.97a7.5,7.5,0,0,0,2.77.87,28.427,28.427,0,0,0,3.235.332,41.09,41.09,0,0,0,6.937-.219c1.183-.136,2.409-.337,3.65-.6Zm-8.522-.134c-1.514-.026-2.889-.113-4.2-.264a14.868,14.868,0,0,1-2.035-.359,10.971,10.971,0,0,1-1.117-.374c-.233-.088-.473-.177-.714-.257l0-.543q0-2.646,0-5.291a22.564,22.564,0,0,0,3.963.8,36.279,36.279,0,0,0,4.3.308,34.617,34.617,0,0,0,4.307-.218c.683-.077,1.371-.174,2.044-.289l.284-.048a14.909,14.909,0,0,0,1.655-.343c.025,2.06.038,4.085.038,6.02A38.606,38.606,0,0,1,354.482,407.863Z" transform="translate(-308.266 -391.008)" fill="#4c5980"/>
        </g>
      </g>
      <g id="Grupo_108766" data-name="Grupo 108766" transform="translate(24.434 11.705)">
        <g id="Grupo_108765" data-name="Grupo 108765" transform="translate(128.475 121.59)">
          <path id="Trazado_115742" data-name="Trazado 115742" d="M417.085,363.149c-.035-4.043-.117-14.285-.28-18.325-.011-.267-.423-.269-.416,0,.1,4.04.186,14.283.215,18.325.029,4.026-.04,8.051-.022,12.077a4.609,4.609,0,0,0-1.154-.023l-1.548.015-3.206.031c-1.069.011-2.138.018-3.206.032a22.443,22.443,0,0,0-3.141.1c-.163.026-.166.309,0,.332a22.452,22.452,0,0,0,3.141.041c1.069-.008,2.138-.022,3.206-.034l3.206-.035,1.548-.016a2.956,2.956,0,0,0,1.392-.136.12.12,0,0,0,.056-.082.2.2,0,0,0,.123-.181C417.152,371.237,417.12,367.188,417.085,363.149Z" transform="translate(-403.185 -343.678)" fill="#4c5980"/>
          <path id="Trazado_115743" data-name="Trazado 115743" d="M431.513,342.648a1.131,1.131,0,0,0-1.474.277,1.069,1.069,0,0,0-.135.881,1.142,1.142,0,0,0,.093.231.937.937,0,0,0,.259.357,1.063,1.063,0,0,0,1.559-.238A1.106,1.106,0,0,0,431.513,342.648Z" transform="translate(-417.481 -342.49)" fill="#4c5980"/>
          <path id="Trazado_115744" data-name="Trazado 115744" d="M403.556,412.175a1.131,1.131,0,0,0-1.474.277,1.071,1.071,0,0,0-.135.881,1.168,1.168,0,0,0,.093.231.937.937,0,0,0,.259.357,1.064,1.064,0,0,0,1.559-.238A1.106,1.106,0,0,0,403.556,412.175Z" transform="translate(-401.906 -381.222)" fill="#4c5980"/>
        </g>
        <path id="Trazado_115745" data-name="Trazado 115745" d="M206.7,68.129a1.131,1.131,0,0,0-1.474.277,1.011,1.011,0,0,0-.168.547c-.332,0-.664,0-.99,0l-1.958-.035c-.652-.012-1.305-.028-1.958-.031a6.325,6.325,0,0,0-1.954.2c-.169,1.985-.071,4.027-.1,6.02-.027,1.948-.111,3.911-.035,5.859q-4.9-.194-9.809-.2c-1.626,0-3.251.01-4.876.045-1.352.03-2.726.022-4.081.12a.991.991,0,0,0-.46-.767,1.131,1.131,0,0,0-1.474.277,1.069,1.069,0,0,0-.135.88,1.162,1.162,0,0,0,.093.231.941.941,0,0,0,.259.357,1.064,1.064,0,0,0,1.559-.238,1.165,1.165,0,0,0,.142-.368c1.327.005,2.663-.075,3.987-.1,1.662-.026,3.325-.045,4.987-.045q4.931,0,9.861.181a.163.163,0,0,0,.17-.117.134.134,0,0,0,.053-.1c.143-2,.107-4.017.135-6.019.027-1.924.167-3.89.073-5.813a8.128,8.128,0,0,0,1.6.063c.653.014,1.306.012,1.958.017l1.958.012c.354,0,.714.018,1.074.023.015.034.024.071.042.1a.94.94,0,0,0,.259.357A1.064,1.064,0,0,0,207,69.636,1.106,1.106,0,0,0,206.7,68.129Z" transform="translate(-148.246 -67.971)" fill="#4c5980"/>
        <path id="Trazado_115746" data-name="Trazado 115746" d="M216.75,412.175a1.131,1.131,0,0,0-1.474.277,1,1,0,0,0-.166.486c-1.59-.014-8.051-.025-9.642-.036-.955-.007-5.454-.013-6.41-.02-.579,0-1.2-.046-1.8-.027a.978.978,0,0,0-.451-.679,1.131,1.131,0,0,0-1.474.277,1.069,1.069,0,0,0-.136.881,1.142,1.142,0,0,0,.093.231.933.933,0,0,0,.259.357,1.063,1.063,0,0,0,1.559-.238,1.157,1.157,0,0,0,.152-.423c.564.023,1.14-.008,1.684,0,.992.006,5.528.012,6.52.017,1.6.009,8.068.018,9.666.024,0,.012,0,.025.006.037a1.146,1.146,0,0,0,.093.231.933.933,0,0,0,.259.357,1.063,1.063,0,0,0,1.559-.238A1.105,1.105,0,0,0,216.75,412.175Z" transform="translate(-158.258 -259.632)" fill="#4c5980"/>
        <path id="Trazado_115747" data-name="Trazado 115747" d="M113.492,139.212a1.121,1.121,0,0,0-.453-.146c.008-.383,0-.768,0-1.14l-.008-2.181q-.005-1.751-.012-3.5a1.021,1.021,0,0,0,.775-.467,1.1,1.1,0,0,0-.3-1.506,1.13,1.13,0,0,0-1.474.277,1.068,1.068,0,0,0-.136.88,1.123,1.123,0,0,0,.093.231.934.934,0,0,0,.259.357,1,1,0,0,0,.451.212q.005,1.759.012,3.519l.007,2.181c0,.374,0,.76.006,1.145a1.033,1.033,0,0,0-.691.418,1.069,1.069,0,0,0-.136.881,1.133,1.133,0,0,0,.093.231.933.933,0,0,0,.259.357,1.063,1.063,0,0,0,1.559-.238A1.105,1.105,0,0,0,113.492,139.212Z" transform="translate(-111.842 -102.588)" fill="#4c5980"/>
      </g>
      <g id="Grupo_108770" data-name="Grupo 108770" transform="translate(84.913 0)">
        <g id="Grupo_108767" data-name="Grupo 108767">
          <path id="Trazado_115748" data-name="Trazado 115748" d="M304.978,49.865q-.061-3.183-.124-6.366a8.648,8.648,0,0,0-.2-1.794c-.116-.341-23.728-.023-28.366-.07-4.554-.046-27.244.09-27.373.093-.605.015-.5,1.007-.511,1.007,0,.149-.032,28.383-.012,42.548.136.186,9.785.137,14.263.144,4.657.008,9.315-.023,13.971-.034,4.573-.011,25.316.1,27.573-.212a1.265,1.265,0,0,0,.177-.055,1.156,1.156,0,0,0,.513-.2c.071-6.648.1-13.3.023-19.888C304.856,59.952,304.909,54.9,304.978,49.865Z" transform="translate(-248.387 -41.544)" fill="#ffbb39"/>
          <path id="Trazado_115749" data-name="Trazado 115749" d="M352,43.5a8.648,8.648,0,0,0-.2-1.794c-.076-.226-10.424-.163-18.768-.108,0,6.694-.016,29.5-.014,43.807,7.573.006,16.86-.017,18.328-.223a1.264,1.264,0,0,0,.177-.055,1.156,1.156,0,0,0,.513-.2c.071-6.648.1-13.3.023-19.888-.057-5.084,0-10.132.065-15.172Q352.065,46.682,352,43.5Z" transform="translate(-295.535 -41.545)" fill="#4c5980"/>
          <path id="Trazado_115750" data-name="Trazado 115750" d="M261.371,46.74q7.642,0,15.283,0c4.358,0,22.146.017,28.282-.01q-.031-1.615-.063-3.23a8.648,8.648,0,0,0-.2-1.794c-.116-.341-23.728-.023-28.366-.07-4.554-.046-27.244.09-27.373.093-.605.015-.5,1.007-.511,1.007,0,.034,0,1.536,0,4C251.908,46.74,257.989,46.738,261.371,46.74Z" transform="translate(-248.406 -41.544)" fill="#345995"/>
          <path id="Trazado_115751" data-name="Trazado 115751" d="M367.524,46.522a1.275,1.275,0,0,1-.078-1.148,1.477,1.477,0,0,1,.219-.335,1.39,1.39,0,0,1,.183-.171,1.3,1.3,0,0,1,.411-.2,1.5,1.5,0,0,1,.29-.066,1.683,1.683,0,0,1,.3.012,1.251,1.251,0,0,1,.752.4,1.3,1.3,0,0,1-1.651,1.972A1.282,1.282,0,0,1,367.524,46.522Z" transform="translate(-314.656 -43.245)" fill="#ffd075"/>
          <path id="Trazado_115752" data-name="Trazado 115752" d="M358.852,46.522a1.275,1.275,0,0,1-.078-1.148,1.462,1.462,0,0,1,.219-.335,1.388,1.388,0,0,1,.183-.171,1.3,1.3,0,0,1,.411-.2,1.5,1.5,0,0,1,.29-.066,1.682,1.682,0,0,1,.3.012,1.252,1.252,0,0,1,.752.4,1.3,1.3,0,0,1-1.651,1.972A1.284,1.284,0,0,1,358.852,46.522Z" transform="translate(-309.825 -43.245)" fill="#fff"/>
          <path id="Trazado_115753" data-name="Trazado 115753" d="M350.18,46.522a1.275,1.275,0,0,1-.078-1.148,1.463,1.463,0,0,1,.219-.335,1.388,1.388,0,0,1,.183-.171,1.3,1.3,0,0,1,.411-.2,1.5,1.5,0,0,1,.29-.066,1.682,1.682,0,0,1,.3.012,1.25,1.25,0,0,1,.752.4,1.3,1.3,0,0,1-1.651,1.972A1.281,1.281,0,0,1,350.18,46.522Z" transform="translate(-304.994 -43.245)" fill="#fff"/>
        </g>
        <g id="Grupo_108768" data-name="Grupo 108768" transform="translate(2.519 9.155)">
          <path id="Trazado_115754" data-name="Trazado 115754" d="M273.968,93.962c-.7-.018-1.4-.038-2.108-.025.074-1.922.018-3.855,0-5.778q-.019-2.5-.037-4.994c.04,0,.083,0,.123,0l.3.01.577.019c.192.005.384,0,.576.007a1.4,1.4,0,0,0,.6-.043.193.193,0,0,0,0-.322,1.418,1.418,0,0,0-.6-.054c-.192,0-.384-.007-.576,0l-.577.007-.3,0c-.041,0-.085,0-.126,0q0-.18,0-.36-.043-5.768-.084-11.535c.354.013.706.021,1.062.014l.592-.011a1.56,1.56,0,0,0,.613-.054c.154-.072.081-.29-.042-.341a.792.792,0,0,0-.32-.017l-.274.008-.592.018c-.4.012-.789.038-1.184.074a.146.146,0,0,0-.092.043.154.154,0,0,0-.089.149q.051,5.826.1,11.652,0,.182,0,.364c-.608-.008-1.216-.019-1.824-.015l-.95.006a2.741,2.741,0,0,0-.9.085.086.086,0,0,0,0,.162,2.756,2.756,0,0,0,.9.1l.95.019c.609.012,1.218.011,1.828.011q.021,2.5.043,5c.017,1.973-.013,3.955.1,5.925a.1.1,0,0,0,.042.078.145.145,0,0,0,.128.093c.712.047,1.423.058,2.135.072C274.189,94.33,274.189,93.968,273.968,93.962Z" transform="translate(-261.714 -66.82)" fill="#b345b5"/>
          <path id="Trazado_115755" data-name="Trazado 115755" d="M302.325,93.962c-.7-.018-1.4-.038-2.108-.025.074-1.922.017-3.855,0-5.778q-.019-2.5-.037-4.994c.04,0,.082,0,.123,0l.3.01.577.019c.192.005.384,0,.576.007a1.4,1.4,0,0,0,.6-.043.193.193,0,0,0,0-.322,1.418,1.418,0,0,0-.6-.054c-.192,0-.384-.007-.576,0l-.577.007-.3,0c-.041,0-.085,0-.126,0l0-.36q-.043-5.768-.084-11.535c.354.013.706.021,1.062.014l.592-.011a1.56,1.56,0,0,0,.613-.054c.154-.072.081-.29-.042-.341a.792.792,0,0,0-.32-.017l-.274.008-.592.018c-.4.012-.789.038-1.184.074a.146.146,0,0,0-.092.043.154.154,0,0,0-.089.149q.051,5.826.1,11.652,0,.182,0,.364c-.608-.008-1.216-.019-1.824-.015l-.95.006a2.741,2.741,0,0,0-.9.085.086.086,0,0,0,0,.162,2.756,2.756,0,0,0,.9.1l.95.019c.609.012,1.218.011,1.828.011q.021,2.5.043,5c.017,1.973-.013,3.955.1,5.925a.1.1,0,0,0,.042.078.145.145,0,0,0,.128.093c.712.047,1.423.058,2.135.072C302.546,94.33,302.546,93.968,302.325,93.962Z" transform="translate(-277.511 -66.82)" fill="#b345b5"/>
          <path id="Trazado_115756" data-name="Trazado 115756" d="M310.719,62.215l-1.075.019a1.645,1.645,0,0,0-.3.03c-.058.017,0,3.576-.012,4.275s.016,4.106.016,4.126c0,.091.17.075.17.077.025,0,4.792.005,7.183,0,.031-.02.023-1.474.024-2.149,0-.7,0-1.4-.006-2.106s.017-3.816-.036-4.156a.227.227,0,0,0-.009-.026.163.163,0,0,0-.034-.078c-1.122-.011-2.246-.015-3.357,0C312.422,62.234,311.57,62.226,310.719,62.215Z" transform="translate(-284.848 -62.215)" fill="#fff"/>
          <path id="Trazado_115757" data-name="Trazado 115757" d="M310.719,87.6l-1.075.019a1.645,1.645,0,0,0-.3.03c-.058.017,0,3.576-.012,4.275s.016,4.106.016,4.125c0,.091.17.075.17.077.025,0,4.792.005,7.183,0,.031-.02.023-1.474.024-2.149,0-.7,0-1.4-.006-2.106s.017-3.816-.036-4.156a.235.235,0,0,0-.009-.027.161.161,0,0,0-.034-.077c-1.122-.011-2.246-.015-3.357,0C312.422,87.615,311.57,87.607,310.719,87.6Z" transform="translate(-284.848 -76.354)" fill="#fff"/>
          <path id="Trazado_115758" data-name="Trazado 115758" d="M310.719,112.977l-1.075.019a1.644,1.644,0,0,0-.3.03c-.058.017,0,3.576-.012,4.275s.016,4.106.016,4.125c0,.091.17.075.17.077.025,0,4.792.005,7.183,0,.031-.02.023-1.474.024-2.149,0-.7,0-1.4-.006-2.106s.017-3.816-.036-4.156a.234.234,0,0,0-.009-.027.159.159,0,0,0-.034-.077c-1.122-.011-2.246-.015-3.357,0C312.422,113,311.57,112.988,310.719,112.977Z" transform="translate(-284.848 -90.493)" fill="#fff"/>
          <path id="Trazado_115759" data-name="Trazado 115759" d="M282.362,62.215l-1.075.019a1.645,1.645,0,0,0-.3.03c-.058.017,0,3.576-.012,4.275s.016,4.106.016,4.126c0,.091.17.075.17.077.025,0,4.792.005,7.183,0,.031-.02.023-1.474.024-2.149,0-.7,0-1.4-.006-2.106s.017-3.816-.036-4.156a.227.227,0,0,0-.009-.026.162.162,0,0,0-.034-.078c-1.122-.011-2.246-.015-3.357,0C284.065,62.234,283.212,62.226,282.362,62.215Z" transform="translate(-269.051 -62.215)" fill="#fff"/>
          <path id="Trazado_115760" data-name="Trazado 115760" d="M282.362,87.6l-1.075.019a1.645,1.645,0,0,0-.3.03c-.058.017,0,3.576-.012,4.275s.016,4.106.016,4.125c0,.091.17.075.17.077.025,0,4.792.005,7.183,0,.031-.02.023-1.474.024-2.149,0-.7,0-1.4-.006-2.106s.017-3.816-.036-4.156a.235.235,0,0,0-.009-.027.161.161,0,0,0-.034-.077c-1.122-.011-2.246-.015-3.357,0C284.065,87.615,283.212,87.607,282.362,87.6Z" transform="translate(-269.051 -76.354)" fill="#fff"/>
          <path id="Trazado_115761" data-name="Trazado 115761" d="M282.362,112.977l-1.075.019a1.644,1.644,0,0,0-.3.03c-.058.017,0,3.576-.012,4.275s.016,4.106.016,4.125c0,.091.17.075.17.077.025,0,4.792.005,7.183,0,.031-.02.023-1.474.024-2.149,0-.7,0-1.4-.006-2.106s.017-3.816-.036-4.156a.235.235,0,0,0-.009-.027.159.159,0,0,0-.034-.077c-1.122-.011-2.246-.015-3.357,0C284.065,113,283.212,112.988,282.362,112.977Z" transform="translate(-269.051 -90.493)" fill="#fff"/>
          <path id="Trazado_115762" data-name="Trazado 115762" d="M255.48,86.379l-1.075.023a1.322,1.322,0,0,0-.3.037c-.058.021,0,4.415-.012,5.279-.008.847.015,5.07.016,5.094,0,.113.17.093.17.095.025,0,4.792.006,7.183,0,.031-.025.023-1.821.024-2.654,0-.867,0-1.734-.006-2.6,0-.851.017-4.711-.036-5.131a.326.326,0,0,0-.009-.033.23.23,0,0,0-.034-.1c-1.122-.013-2.246-.018-3.358,0C257.183,86.4,256.331,86.392,255.48,86.379Z" transform="translate(-254.075 -75.676)" fill="#fff"/>
        </g>
        <g id="Grupo_108769" data-name="Grupo 108769" transform="translate(39.197 6.914)">
          <path id="Trazado_115763" data-name="Trazado 115763" d="M345.867,57.154c-1.147.061-3.8.03-4.481.034-.841,0-1.682.017-2.523.014-.5,0-1.37.005-1.957-.008a1.767,1.767,0,0,0-.022.323c0,.012,0,.457,0,1.208.569.017,1.509.009,2.038.011.822,0,1.643-.009,2.464-.014.691,0,3.479.03,4.511-.042q0-.425-.006-.85C345.89,57.752,345.882,57.321,345.867,57.154Z" transform="translate(-336.883 -57.154)" fill="#d66ec0"/>
          <path id="Trazado_115764" data-name="Trazado 115764" d="M351.852,65.308c-.511.059-1.692.029-1.995.033-.374,0-.749.016-1.123.014-.224,0-.609,0-.871-.008-.012.118-.009.314-.01.314v1.175c.253.017.671.009.907.011.365,0,.731-.009,1.1-.014.308,0,1.548.03,2.008-.041q0-.413,0-.826C351.861,65.89,351.858,65.47,351.852,65.308Z" transform="translate(-342.994 -61.696)" fill="#7991d1"/>
          <path id="Trazado_115765" data-name="Trazado 115765" d="M358.237,70.938c-1.325.06-4.395.029-5.18.033-.972,0-1.944.017-2.916.014-.582,0-1.583.005-2.262-.008a1.408,1.408,0,0,0-.026.314c0,.012,0,.445,0,1.175.657.017,1.743.009,2.356.011.949,0,1.9-.009,2.848-.013.8,0,4.021.029,5.215-.041q0-.413-.008-.826C358.263,71.52,358.254,71.1,358.237,70.938Z" transform="translate(-342.994 -64.833)" fill="#fff"/>
          <path id="Trazado_115766" data-name="Trazado 115766" d="M358.237,76.277c-1.325.06-4.395.029-5.18.033-.972,0-1.944.017-2.916.014-.582,0-1.583.005-2.262-.008a1.408,1.408,0,0,0-.026.314c0,.012,0,.445,0,1.176.657.017,1.743.008,2.356.011.949,0,1.9-.009,2.848-.014.8,0,4.021.029,5.215-.041q0-.413-.008-.826C358.263,76.859,358.254,76.439,358.237,76.277Z" transform="translate(-342.994 -67.807)" fill="#fff"/>
          <path id="Trazado_115767" data-name="Trazado 115767" d="M358.237,81.617c-1.325.059-4.395.029-5.18.032-.972,0-1.944.017-2.916.014-.582,0-1.583.005-2.262-.008a1.412,1.412,0,0,0-.026.315c0,.012,0,.445,0,1.175.657.017,1.743.008,2.356.011.949,0,1.9-.009,2.848-.014.8,0,4.021.029,5.215-.041q0-.413-.008-.826C358.263,82.2,358.254,81.779,358.237,81.617Z" transform="translate(-342.994 -70.782)" fill="#fff"/>
          <path id="Trazado_115768" data-name="Trazado 115768" d="M363.506,65.308c-.6.059-1.983.029-2.337.033-.438,0-.877.016-1.315.014-.263,0-.714,0-1.02-.008a2.949,2.949,0,0,0-.012.314c0,.012,0,.445,0,1.175.3.017.787.009,1.063.011.428,0,.857-.009,1.285-.014.361,0,1.814.03,2.352-.041q0-.413,0-.826C363.518,65.89,363.514,65.47,363.506,65.308Z" transform="translate(-349.105 -61.696)" fill="#7991d1"/>
          <path id="Trazado_115769" data-name="Trazado 115769" d="M345.867,91.065c-1.147.061-3.8.03-4.481.034-.841,0-1.682.017-2.523.014-.5,0-1.37.005-1.957-.008a1.77,1.77,0,0,0-.022.323c0,.012,0,.458,0,1.208.569.017,1.509.009,2.038.011.822,0,1.643-.009,2.464-.014.691,0,3.479.03,4.511-.042q0-.425-.006-.849C345.89,91.663,345.882,91.232,345.867,91.065Z" transform="translate(-336.883 -76.045)" fill="#d66ec0"/>
          <path id="Trazado_115770" data-name="Trazado 115770" d="M351.852,99.219c-.511.06-1.692.029-1.995.033-.374,0-.749.016-1.123.013-.224,0-.609.005-.871-.008-.012.119-.009.315-.01.314v1.176c.253.017.671.008.907.011.365,0,.731-.009,1.1-.014.308,0,1.548.029,2.008-.041q0-.413,0-.826C351.861,99.8,351.858,99.381,351.852,99.219Z" transform="translate(-342.994 -80.588)" fill="#7991d1"/>
          <path id="Trazado_115771" data-name="Trazado 115771" d="M358.237,104.85c-1.325.059-4.395.029-5.18.033-.972,0-1.944.016-2.916.014-.582,0-1.583,0-2.262-.008a1.408,1.408,0,0,0-.026.314c0,.012,0,.445,0,1.175.657.017,1.743.009,2.356.011.949,0,1.9-.009,2.848-.014.8,0,4.021.03,5.215-.04q0-.413-.008-.826C358.263,105.432,358.254,105.012,358.237,104.85Z" transform="translate(-342.994 -83.724)" fill="#fff"/>
          <path id="Trazado_115772" data-name="Trazado 115772" d="M358.237,110.189c-1.325.059-4.395.029-5.18.033-.972,0-1.944.017-2.916.014-.582,0-1.583,0-2.262-.008a1.408,1.408,0,0,0-.026.314c0,.012,0,.445,0,1.175.657.017,1.743.009,2.356.011.949,0,1.9-.009,2.848-.014.8,0,4.021.03,5.215-.04q0-.413-.008-.826C358.263,110.771,358.254,110.351,358.237,110.189Z" transform="translate(-342.994 -86.699)" fill="#fff"/>
          <path id="Trazado_115773" data-name="Trazado 115773" d="M358.237,115.528c-1.325.059-4.395.029-5.18.033-.972,0-1.944.017-2.916.014-.582,0-1.583,0-2.262-.008a1.408,1.408,0,0,0-.026.314c0,.012,0,.445,0,1.175.657.017,1.743.009,2.356.011.949,0,1.9-.009,2.848-.013.8,0,4.021.029,5.215-.041q0-.413-.008-.826C358.263,116.11,358.254,115.69,358.237,115.528Z" transform="translate(-342.994 -89.673)" fill="#fff"/>
          <path id="Trazado_115774" data-name="Trazado 115774" d="M363.506,99.219c-.6.06-1.983.029-2.337.033-.438,0-.877.016-1.315.013-.263,0-.714.005-1.02-.008a2.955,2.955,0,0,0-.012.314c0,.012,0,.445,0,1.176.3.017.787.008,1.063.011.428,0,.857-.009,1.285-.014.361,0,1.814.029,2.352-.041q0-.413,0-.826C363.518,99.8,363.514,99.381,363.506,99.219Z" transform="translate(-349.105 -80.588)" fill="#7991d1"/>
          <path id="Trazado_115775" data-name="Trazado 115775" d="M345.867,124.977c-1.147.061-3.8.03-4.481.034-.841,0-1.682.017-2.523.014-.5,0-1.37.005-1.957-.008a1.767,1.767,0,0,0-.022.323c0,.012,0,.458,0,1.208.569.018,1.509.009,2.038.011.822,0,1.643-.009,2.464-.014.691,0,3.479.031,4.511-.042q0-.425-.006-.85C345.89,125.575,345.882,125.144,345.867,124.977Z" transform="translate(-336.883 -94.937)" fill="#d66ec0"/>
          <path id="Trazado_115776" data-name="Trazado 115776" d="M351.852,133.131c-.511.059-1.692.029-1.995.033-.374,0-.749.017-1.123.014-.224,0-.609,0-.871-.008-.012.119-.009.314-.01.314v1.175c.253.017.671.009.907.011.365,0,.731-.009,1.1-.013.308,0,1.548.029,2.008-.041q0-.413,0-.827C351.861,133.713,351.858,133.293,351.852,133.131Z" transform="translate(-342.994 -99.479)" fill="#7991d1"/>
          <path id="Trazado_115777" data-name="Trazado 115777" d="M363.506,133.131c-.6.059-1.983.029-2.337.033-.438,0-.877.017-1.315.014-.263,0-.714,0-1.02-.008a2.952,2.952,0,0,0-.012.314c0,.011,0,.445,0,1.175.3.017.787.009,1.063.011.428,0,.857-.009,1.285-.013.361,0,1.814.029,2.352-.041q0-.413,0-.827C363.518,133.713,363.514,133.293,363.506,133.131Z" transform="translate(-349.105 -99.479)" fill="#7991d1"/>
        </g>
      </g>
    </g>
  </g>
</svg>
