<svg xmlns="http://www.w3.org/2000/svg" width="105" height="105" viewBox="0 0 105 105">
  <g id="Grupo_109420" data-name="Grupo 109420" transform="translate(-268 -1819.5)">
    <g id="Grupo_109419" data-name="Grupo 109419">
      <circle id="Elipse_4748" data-name="Elipse 4748" cx="52.5" cy="52.5" r="52.5" transform="translate(268 1819.5)" fill="#4dd0e1"/>
    </g>
    <g id="Grupo_108461" data-name="Grupo 108461" transform="translate(-203.044 505.556)">
      <path id="Trazado_114035" data-name="Trazado 114035" d="M537.886,1339.712a3.042,3.042,0,0,1,1.83,2.464c.929,4.018,3.679,6.19,7.566,7.1.415.1.846.126,1.262.22a2.088,2.088,0,0,1,1.722,2.012c-.021,4.354-.083,8.707-.149,13.06a.849.849,0,0,1-.939.946c-.53-.042-.78-.454-.768-1.1.075-4.177.132-8.355.2-12.533a.669.669,0,0,0-.672-.772,12,12,0,0,1-5.7-2.2,10.221,10.221,0,0,1-4.26-6.709.8.8,0,0,0-.925-.789q-13.883.02-27.765,0a.759.759,0,0,0-.877.7c-.995,4.9-4.148,7.637-8.858,8.8a11.377,11.377,0,0,1-1.205.209.6.6,0,0,0-.579.671c.056,4.178.107,8.356.187,12.534.014.724-.2,1.173-.745,1.24s-.928-.342-.962-1.061c-.068-1.417-.148-2.835-.161-4.253-.025-2.741-.01-5.483-.007-8.225a2.328,2.328,0,0,1,2.322-2.643,9.84,9.84,0,0,0,6.859-3.981,7.132,7.132,0,0,0,1.405-3.229,2.813,2.813,0,0,1,1.821-2.467Z" fill="#fff"/>
      <path id="Trazado_114036" data-name="Trazado 114036" d="M525.393,1475.63c-7.968-3.726-14.738-8.9-19.705-16.266a40.044,40.044,0,0,1-5.9-13.472,1.466,1.466,0,0,1,.163-1.075c.413-.559,1.21-.249,1.429.5.435,1.489.8,3.006,1.33,4.46a40.456,40.456,0,0,0,15.584,19.834c2.266,1.552,4.748,2.792,7.148,4.147a1.012,1.012,0,0,0,.809.017A44.959,44.959,0,0,0,544.56,1458.5a38.8,38.8,0,0,0,5.686-12.811c.036-.151.068-.3.116-.451a.82.82,0,0,1,.974-.632.8.8,0,0,1,.657,1c-.148.741-.338,1.476-.552,2.2a42.085,42.085,0,0,1-17.429,23.46c-2.433,1.644-5.117,2.918-7.687,4.361Z" transform="translate(-2.673 -76.186)" fill="#fff"/>
      <path id="Trazado_114037" data-name="Trazado 114037" d="M534.251,1354.129c3.44,0,6.881.02,10.321-.01a2.959,2.959,0,0,1,2.915,1.8,14.375,14.375,0,0,0,7.471,6.96,3.224,3.224,0,0,1,2.266,3.438c-.108,2.6-.021,5.213-.216,7.8a34.043,34.043,0,0,1-4.346,14.08,41.012,41.012,0,0,1-16.994,16.4,2.733,2.733,0,0,1-2.728.04,41.1,41.1,0,0,1-16.916-16.162,35.852,35.852,0,0,1-4.7-17.761c-.008-1.594.009-3.188,0-4.781a2.841,2.841,0,0,1,1.916-2.891,14.942,14.942,0,0,0,7.911-7.306,2.745,2.745,0,0,1,2.67-1.621C527.292,1354.137,530.772,1354.129,534.251,1354.129Zm.025,1.683q-5.162,0-10.324,0a1.246,1.246,0,0,0-1.29.689,16.643,16.643,0,0,1-8.836,8.151,1.157,1.157,0,0,0-.8,1.2c.02,1.75-.005,3.5.012,5.249a33.794,33.794,0,0,0,4.373,16.373,39.346,39.346,0,0,0,16.187,15.6,1.414,1.414,0,0,0,1.478-.069,40.263,40.263,0,0,0,13.384-11.4,33.689,33.689,0,0,0,6.8-17.107c.266-2.778.181-5.59.241-8.387.022-1.029-.093-1.159-1.04-1.567a16.517,16.517,0,0,1-8.5-7.873,1.4,1.4,0,0,0-1.421-.865C541.12,1355.823,537.7,1355.813,534.276,1355.813Z" transform="translate(-11.079 -10.472)" fill="#fff"/>
      <path id="Trazado_114038" data-name="Trazado 114038" d="M554.136,1384.487c0-1.422-.01-2.778,0-4.134a8.3,8.3,0,0,1,16.574-.484c.076,1.279.029,2.565.038,3.848,0,.23,0,.46,0,.77.452,0,.852,0,1.252,0a2.7,2.7,0,0,1,2.855,2.854c.018,2.294,0,4.588,0,6.882,0,1.594,0,3.189,0,4.783a2.753,2.753,0,0,1-3.019,3.053q-9.39.006-18.78,0a2.729,2.729,0,0,1-3.02-3.041q0-5.774,0-11.548a2.712,2.712,0,0,1,3.007-2.984Zm8.319,15.875q4.663,0,9.326,0c1.045,0,1.369-.318,1.369-1.344q0-5.741,0-11.482c0-1.04-.312-1.354-1.356-1.354q-9.355,0-18.71,0c-1.013,0-1.342.318-1.343,1.313q-.006,5.77,0,11.541c0,1,.332,1.326,1.33,1.327Q557.763,1400.364,562.454,1400.362Zm6.508-15.908a46.136,46.136,0,0,0-.032-5.009,6.426,6.426,0,0,0-6.189-5.606,6.347,6.347,0,0,0-6.594,4.8,41.124,41.124,0,0,0-.412,5.811Z" transform="translate(-39.227 -23.551)" fill="#fff"/>
      <path id="Trazado_114039" data-name="Trazado 114039" d="M589.289,1444.068a6.026,6.026,0,0,1,0-.64,1.088,1.088,0,0,0-.472-1.072,1.926,1.926,0,0,1-.1-2.843,1.988,1.988,0,0,1,2.823-.019,1.938,1.938,0,0,1-.069,2.848,1.21,1.21,0,0,0-.484,1.131c.03.522.022,1.048,0,1.571a.876.876,0,0,1-.844.93c-.5,0-.836-.381-.852-.974C589.282,1444.689,589.289,1444.379,589.289,1444.068Z" transform="translate(-66.92 -72.105)" fill="#fff"/>
    </g>
  </g>
</svg>
