<svg xmlns="http://www.w3.org/2000/svg" width="1240" height="470" viewBox="0 0 1240 470">
  <g id="Grupo_109420" data-name="Grupo 109420" transform="translate(-179 -676)">
    <g id="Rectángulo_40288" data-name="Rectángulo 40288" transform="translate(602 845)" fill="#0b5999" stroke="#707070" stroke-width="1">
      <rect width="317" height="184" rx="34" stroke="none"/>
      <rect x="0.5" y="0.5" width="316" height="183" rx="33.5" fill="none"/>
    </g>
    <text id="Ajustar_parámetros_y_estándares_de_los_dispositivos_de_la_infraestructura_TI" data-name="Ajustar parámetros y estándares de los dispositivos de la infraestructura TI" transform="translate(647 881)" fill="#fff" font-size="20" font-family="Roboto-Black, Roboto" font-weight="800"><tspan x="20.161" y="21">Ajustar parámetros y </tspan><tspan x="35.229" y="48">estándares de los </tspan><tspan x="36.27" y="75">dispositivos de la </tspan><tspan x="35.874" y="102">infraestructura TI</tspan></text>
    <path id="Trazado_183776" data-name="Trazado 183776" d="M30,0h78a30,30,0,0,1,0,60H30A30,30,0,1,1,30,0Z" transform="translate(972 907)" fill="#4dd0e1"/>
    <path id="Trazado_183776-2" data-name="Trazado 183776" d="M30,0h78a30,30,0,0,1,0,60H30A30,30,0,1,1,30,0Z" transform="translate(1077 792)" fill="#4dd0e1"/>
    <path id="Trazado_183776-3" data-name="Trazado 183776" d="M30,0h78a30,30,0,0,1,0,60H30A30,30,0,1,1,30,0Z" transform="translate(1077 1022)" fill="#4dd0e1"/>
    <rect id="Rectángulo_40289" data-name="Rectángulo 40289" width="158" height="177" rx="34" transform="translate(1261 730)" fill="#4dd0e1"/>
    <rect id="Rectángulo_40291" data-name="Rectángulo 40291" width="158" height="149" rx="34" transform="translate(179 676)" fill="#feca2e"/>
    <rect id="Rectángulo_40290" data-name="Rectángulo 40290" width="158" height="177" rx="34" transform="translate(1261 969)" fill="#4dd0e1"/>
    <rect id="Rectángulo_40292" data-name="Rectángulo 40292" width="158" height="77" rx="34" transform="translate(179 898)" fill="#feca2e"/>
    <rect id="Rectángulo_40293" data-name="Rectángulo 40293" width="158" height="92" rx="34" transform="translate(179 1043)" fill="#feca2e"/>
    <path id="Trazado_183776-4" data-name="Trazado 183776" d="M30,0h78c16.569,0,30,16.1,30,35.961s-13.431,35.961-30,35.961H30c-16.569,0-30-16.1-30-35.961S13.431,0,30,0Z" transform="translate(414 723)" fill="#feca2e"/>
    <path id="Trazado_183776-5" data-name="Trazado 183776" d="M30,0h78c16.569,0,30,16.1,30,35.961s-13.431,35.961-30,35.961H30c-16.569,0-30-16.1-30-35.961S13.431,0,30,0Z" transform="translate(414 900.078)" fill="#feca2e"/>
    <path id="Trazado_183776-6" data-name="Trazado 183776" d="M41.3,0H148.7C171.507,0,190,20.7,190,46.23s-18.493,46.23-41.3,46.23H41.3C18.493,92.461,0,71.763,0,46.23S18.493,0,41.3,0Z" transform="translate(389 1042.539)" fill="#feca2e"/>
    <text id="Trabajo" transform="translate(977 926)" fill="#fff" font-size="20" font-family="Roboto-Black, Roboto" font-weight="800"><tspan x="31.811" y="21">Trabajo</tspan></text>
    <text id="Remoto" transform="translate(1080 810)" fill="#fff" font-size="20" font-family="Roboto-Black, Roboto" font-weight="800"><tspan x="30.902" y="21">Remoto</tspan></text>
    <text id="Empresa" transform="translate(1080 1039)" fill="#fff" font-size="20" font-family="Roboto-Black, Roboto" font-weight="800"><tspan x="26.498" y="21">Empresa</tspan></text>
    <text id="Trabajo_realizado_a_través_de_un_computador_cuya_información_es_guardada_en_la_nube" data-name="Trabajo realizado a través de un computador, cuya información es guardada en la nube" transform="translate(1274 763)" fill="#fff" font-size="16" font-family="Roboto-Regular, Roboto"><tspan x="5.254" y="17">Trabajo realizado </tspan><tspan x="16.938" y="36">a través de un </tspan><tspan x="3.289" y="55">computador, cuya </tspan><tspan x="13.285" y="74">información es </tspan><tspan x="13.91" y="93">guardada en la </tspan><tspan x="48.949" y="112">nube</tspan></text>
    <text id="Se._Utiliza_almacenamiento_interno_de_cada_computadora_corriendo_el_riesgo_de_perder_la_información" data-name="Se. Utiliza almacenamiento interno de cada computadora, corriendo el riesgo de perder la información" transform="translate(1274 989)" fill="#fff" font-size="16" font-family="Roboto-Regular, Roboto"><tspan x="31.488" y="17">Se. Utiliza </tspan><tspan x="6.949" y="36">almacenamiento </tspan><tspan x="11.496" y="55">interno de cada </tspan><tspan x="17.328" y="74">computadora, </tspan><tspan x="0.465" y="93">corriendo el riesgo </tspan><tspan x="24.605" y="112">de perder la </tspan><tspan x="23.629" y="131">información</tspan></text>
    <text id="Centro_de_datos" data-name="Centro de datos" transform="translate(417 734)" fill="#12263f" font-size="20" font-family="Roboto-Black, Roboto" font-weight="800"><tspan x="22.133" y="21">Centro de </tspan><tspan x="41.044" y="48">datos</tspan></text>
    <text id="Normas_y_Estándares" data-name="Normas y
Estándares" transform="translate(417 909.078)" fill="#12263f" font-size="20" font-family="Roboto-Black, Roboto" font-weight="800"><tspan x="22.86" y="21">Normas y</tspan><tspan x="15.614" y="48">Estándares</tspan></text>
    <text id="Utilizando_un_servidor_web" data-name="Utilizando un servidor web" transform="translate(417 1060.539)" fill="#12263f" font-size="20" font-family="Roboto-Black, Roboto" font-weight="800"><tspan x="6.571" y="21">Utilizando un </tspan><tspan x="7.787" y="48">servidor web</tspan></text>
    <text id="Mejor_manejo_de_la_información_mayor_seguridad_y_rapidez" data-name="Mejor manejo de la información, mayor seguridad y rapidez" transform="translate(192 710)" fill="#12263f" font-size="16" font-family="Roboto-Regular, Roboto"><tspan x="6.898" y="17">Mejor manejo de </tspan><tspan x="13.785" y="36">la información, </tspan><tspan x="1.051" y="55">mayor seguridad y </tspan><tspan x="40.453" y="74">rapidez</tspan></text>
    <text id="Diseño_red_LAN" data-name="Diseño red
LAN" transform="translate(192 919)" fill="#12263f" font-size="16" font-family="Roboto-Regular, Roboto"><tspan x="28.535" y="17">Diseño red</tspan><tspan x="51.199" y="36">LAN</tspan></text>
    <text id="Servidor_Cloud" data-name="Servidor
Cloud" transform="translate(192 1069)" fill="#12263f" font-size="16" font-family="Roboto-Regular, Roboto"><tspan x="37.141" y="17">Servidor</tspan><tspan x="45.867" y="36">Cloud</tspan></text>
    <line id="Línea_164" data-name="Línea 164" x2="53" transform="translate(919 937)" fill="none" stroke="#707070" stroke-width="1"/>
    <line id="Línea_165" data-name="Línea 165" y1="85" transform="translate(1043.5 822.5)" fill="none" stroke="#707070" stroke-width="1"/>
    <line id="Línea_166" data-name="Línea 166" x2="34" transform="translate(1043.5 822.5)" fill="none" stroke="#707070" stroke-width="1"/>
    <line id="Línea_167" data-name="Línea 167" y2="86" transform="translate(1043.5 967.5)" fill="none" stroke="#707070" stroke-width="1"/>
    <line id="Línea_168" data-name="Línea 168" x1="34" transform="translate(1043.5 1052.5)" fill="none" stroke="#707070" stroke-width="1"/>
    <line id="Línea_169" data-name="Línea 169" x2="43" transform="translate(1217 822)" fill="none" stroke="#707070" stroke-width="1"/>
    <line id="Línea_170" data-name="Línea 170" x2="43" transform="translate(1217 1054)" fill="none" stroke="#707070" stroke-width="1"/>
    <line id="Línea_171" data-name="Línea 171" x2="77" transform="translate(337.5 936.5)" fill="none" stroke="#707070" stroke-width="1"/>
    <line id="Línea_175" data-name="Línea 175" x2="47" transform="translate(552.5 936.5)" fill="none" stroke="#707070" stroke-width="1"/>
    <line id="Línea_173" data-name="Línea 173" x2="52" y2="0.5" transform="translate(337.5 1092)" fill="none" stroke="#707070" stroke-width="1"/>
    <line id="Línea_172" data-name="Línea 172" x2="77" transform="translate(337.5 758.961)" fill="none" stroke="#707070" stroke-width="1"/>
    <line id="Línea_174" data-name="Línea 174" y2="71" transform="translate(485 972)" fill="none" stroke="#707070" stroke-width="1"/>
    <line id="Línea_176" data-name="Línea 176" x2="210" transform="translate(552.5 758.5)" fill="none" stroke="#707070" stroke-width="1"/>
    <line id="Línea_177" data-name="Línea 177" y2="87" transform="translate(762.5 758.5)" fill="none" stroke="#707070" stroke-width="1"/>
  </g>
</svg>
