<svg xmlns="http://www.w3.org/2000/svg" width="47.791" height="102.067" viewBox="0 0 47.791 102.067">
  <g id="Grupo_108354" data-name="Grupo 108354" transform="translate(-1136.08 -228.277)">
    <path id="Trazado_113657" data-name="Trazado 113657" d="M1183.871,302.752l-47.791,27.592V262.069l47.791-27.592Z" fill="#403642" opacity="0.9"/>
    <path id="Trazado_113658" data-name="Trazado 113658" d="M1183.871,235.451l-47.791,27.592V255.87l47.791-27.592Z" fill="#5f75e0"/>
    <path id="Trazado_113659" data-name="Trazado 113659" d="M1142.412,265.493l-2.443,1.411v-1.182l2.443-1.411Zm5.166-4.164L1144,263.393v1.183l3.576-2.065Zm7.035-4.062-5.446,3.144v1.182l5.446-3.144Zm8.514-4.916-6.925,4v1.183l6.925-4Zm1.59-.917v1.182l3.028-1.749v-1.182Zm-19.258,14.329-5.49,3.169v1.183l5.49-3.17Zm5.165-2.983-3.576,2.065v1.183l3.576-2.065Zm5.96-3.441-4.37,2.524v1.182l4.37-2.523Zm4.3-2.481-2.708,1.564V259.6l2.708-1.563Zm1.589-.918v1.183l4.515-2.607v-1.182Zm-20.059,14.792-2.443,1.411v1.182l2.443-1.411Zm5.166-2.982L1144,269.814V271l3.576-2.065Zm5.3-3.059-3.709,2.141v1.183l3.709-2.142Zm11.626-6.712-10.037,5.794v1.183l10.037-5.795Zm-19.043,14.2-5.49,3.17v1.182l5.49-3.17Zm5.165-2.982-3.576,2.064v1.183l3.576-2.065Zm5.96-3.442-4.37,2.524v1.182l4.37-2.523Zm4.3-2.481-2.708,1.564v1.182l2.708-1.563Zm-18.47,13.874-2.443,1.411v1.183l2.443-1.411Zm5.166-2.982L1144,276.236v1.182l3.576-2.065Zm6.887-3.976-5.3,3.058v1.183l5.3-3.059Zm-12.053,37.925-2.443,1.411v-1.182l2.443-1.411Zm5.166-4.164L1144,306.02V307.2l3.576-2.065Zm-2.119,4.434-5.49,3.169v1.183l5.49-3.17Zm-3.047,4.969-2.443,1.411v1.182l2.443-1.411Zm5.166-2.982L1144,312.441v1.183l3.576-2.065Zm-2.119,4.434-5.49,3.169v1.183l5.49-3.17Zm-3.047,4.969-2.443,1.411v1.183l2.443-1.411Zm0-35.519-2.443,1.411v1.182l2.443-1.411Zm5.166-2.983L1144,283.343v1.183l3.576-2.065Zm8.96-5.173-7.371,4.256v1.182l7.371-4.255Zm-11.079,9.607-5.49,3.17v1.183l5.49-3.17Zm5.165-2.982-3.576,2.065v1.182l3.576-2.064Zm3.486-2.012-1.9,1.1v1.182l1.9-1.1Zm-11.7,16.344-2.443,1.411v1.182l2.443-1.411Zm3.791-2.189-2.2,1.271v1.183l2.2-1.271Zm5.66-3.268-4.071,2.351v1.182l4.071-2.35Zm-7.779,7.7-4.115,2.376v1.183l4.115-2.376Zm3.516-2.029-1.927,1.112v1.182l1.927-1.112Zm2.66-1.536-1.071.618v1.183l1.071-.619Zm-7.848-5.24-2.443,1.41V293.1l2.443-1.411Zm3.791-2.189-2.2,1.271v1.183l2.2-1.271Zm-2.119,4.434-4.115,2.376v1.183l4.115-2.376Z" fill="#a494a8" opacity="0.9"/>
  </g>
</svg>
