<svg xmlns="http://www.w3.org/2000/svg" width="228.449" height="287.453" viewBox="0 0 228.449 287.453">
  <g id="Grupo_109391" data-name="Grupo 109391" transform="translate(-261.467 -24.307)">
    <g id="Grupo_109390" data-name="Grupo 109390" transform="translate(261.467 24.307)">
      <path id="Trazado_117249" data-name="Trazado 117249" d="M515.592,251.358a3.552,3.552,0,0,1-1.829-.506l-10.969-6.575.664-1.107,10.968,6.575a2.259,2.259,0,0,0,2.308.013l17.852-10.441a.9.9,0,0,0-.027-1.565L510.768,225.01l.609-1.139,23.792,12.741a2.187,2.187,0,0,1,.069,3.818l-17.851,10.44A3.55,3.55,0,0,1,515.592,251.358Z" transform="translate(-307.876 -62.685)" fill="#b2d3ea"/>
      <path id="Trazado_117250" data-name="Trazado 117250" d="M451.985,365.3a4.608,4.608,0,0,1-2.245-.582l-43.774-24.366a2.014,2.014,0,0,1-.011-3.513l19.81-11.172a.689.689,0,0,0,0-1.2l-22.04-12.656a1.978,1.978,0,0,1-.072-3.387l9-5.7.691,1.09-9,5.706a.688.688,0,0,0,.025,1.177l22.04,12.656a1.98,1.98,0,0,1-.013,3.438l-19.81,11.172a.724.724,0,0,0,0,1.262l43.773,24.367a3.339,3.339,0,0,0,3.344-.061L470.355,353.3a.31.31,0,0,0,.152-.271.317.317,0,0,0-.153-.271l-12.047-7.323.67-1.1,12.047,7.323a1.608,1.608,0,0,1,.007,2.743l-16.648,10.235A4.628,4.628,0,0,1,451.985,365.3Z" transform="translate(-288.634 -77.849)" fill="#b2d3ea"/>
      <g id="Grupo_109326" data-name="Grupo 109326" transform="translate(154.144 109.319)">
        <path id="Trazado_117251" data-name="Trazado 117251" d="M481.885,252.158l-21.1-12.185c-1.3-.748-1.132-2.054.363-2.917l20.377-11.765a5.617,5.617,0,0,1,5.054-.209l21.1,12.184c1.3.748,1.133,2.054-.363,2.917l-20.377,11.765A5.618,5.618,0,0,1,481.885,252.158Z" transform="translate(-453.772 -172.139)" fill="#b2d3ea"/>
        <g id="Grupo_109320" data-name="Grupo 109320" transform="translate(0 29.143)">
          <path id="Trazado_117252" data-name="Trazado 117252" d="M513.219,225.5h0v-9.118l-20.446-.011-7.067-4.08a7.03,7.03,0,0,0-6.327.262l-6.594,3.807-20.465-.011v9.377a1.834,1.834,0,0,0,1.087,1.7l26.426,15.257a7.032,7.032,0,0,0,6.328-.263l25.517-14.732A2.507,2.507,0,0,0,513.219,225.5Z" transform="translate(-452.312 -198.798)" fill="#396caa"/>
          <path id="Trazado_117253" data-name="Trazado 117253" d="M482.77,211.665a7.3,7.3,0,0,0-3.392.89l-6.594,3.807-20.465-.011v9.377a1.834,1.834,0,0,0,1.087,1.7l26.426,15.257a5.73,5.73,0,0,0,2.937.628Z" transform="translate(-452.312 -198.799)" fill="#396caa"/>
          <path id="Trazado_117254" data-name="Trazado 117254" d="M454.637,217.467H452.32v9.377a1.834,1.834,0,0,0,1.087,1.7l1.229.71Z" transform="translate(-452.312 -199.915)" fill="#5793ce"/>
          <path id="Trazado_117255" data-name="Trazado 117255" d="M486.889,247.763a7.212,7.212,0,0,0,5.059-.057V237.058h-5.059Z" transform="translate(-458.961 -203.682)" fill="#5793ce"/>
          <path id="Trazado_117256" data-name="Trazado 117256" d="M479.832,230.274l-26.426-15.257c-1.622-.937-1.419-2.573.454-3.654l25.517-14.732a7.032,7.032,0,0,1,6.327-.262l26.427,15.257c1.622.936,1.418,2.572-.455,3.653l-25.517,14.732A7.034,7.034,0,0,1,479.832,230.274Z" transform="translate(-452.311 -195.736)" fill="#d4ecff"/>
          <path id="Trazado_117257" data-name="Trazado 117257" d="M481.483,228.206,459.337,215.42c-1.359-.785-1.189-2.156.38-3.062L481.1,200.012a5.892,5.892,0,0,1,5.3-.22l22.146,12.786c1.359.784,1.188,2.155-.381,3.061l-21.384,12.346A5.9,5.9,0,0,1,481.483,228.206Z" transform="translate(-453.486 -196.414)" fill="#5793ce"/>
          <g id="Grupo_109319" data-name="Grupo 109319" transform="translate(49.053 24.382)">
            <path id="Trazado_117258" data-name="Trazado 117258" d="M515.178,231.595a2.359,2.359,0,0,1-1.068,1.849c-.59.34-1.067.065-1.067-.616a2.359,2.359,0,0,1,1.067-1.849C514.7,230.638,515.178,230.914,515.178,231.595Z" transform="translate(-513.043 -226.867)" fill="#d4ecff"/>
            <path id="Trazado_117259" data-name="Trazado 117259" d="M519.43,229.14a2.359,2.359,0,0,1-1.068,1.849c-.59.341-1.068.065-1.068-.616a2.361,2.361,0,0,1,1.068-1.849C518.951,228.183,519.43,228.46,519.43,229.14Z" transform="translate(-513.861 -226.395)" fill="#d4ecff"/>
            <path id="Trazado_117260" data-name="Trazado 117260" d="M523.681,226.686a2.36,2.36,0,0,1-1.067,1.849c-.59.34-1.068.064-1.068-.617a2.358,2.358,0,0,1,1.068-1.848C523.2,225.728,523.681,226,523.681,226.686Z" transform="translate(-514.678 -225.923)" fill="#d4ecff"/>
          </g>
        </g>
        <g id="Grupo_109322" data-name="Grupo 109322" transform="translate(0 14.572)">
          <path id="Trazado_117261" data-name="Trazado 117261" d="M513.219,207.46h0v-9.118l-20.446-.011-7.067-4.08a7.033,7.033,0,0,0-6.327.262l-6.594,3.807-20.465-.011v9.377a1.834,1.834,0,0,0,1.087,1.7l26.426,15.257a7.034,7.034,0,0,0,6.328-.262l25.517-14.732A2.507,2.507,0,0,0,513.219,207.46Z" transform="translate(-452.312 -180.757)" fill="#396caa"/>
          <path id="Trazado_117262" data-name="Trazado 117262" d="M482.77,193.624a7.3,7.3,0,0,0-3.392.89l-6.594,3.807-20.465-.011v9.377a1.834,1.834,0,0,0,1.087,1.7l26.426,15.257a5.73,5.73,0,0,0,2.937.628Z" transform="translate(-452.312 -180.758)" fill="#396caa"/>
          <path id="Trazado_117263" data-name="Trazado 117263" d="M454.637,199.426H452.32V208.8a1.834,1.834,0,0,0,1.087,1.7l1.229.71Z" transform="translate(-452.312 -181.874)" fill="#5793ce"/>
          <path id="Trazado_117264" data-name="Trazado 117264" d="M486.889,229.722a7.212,7.212,0,0,0,5.059-.057V219.017h-5.059Z" transform="translate(-458.961 -185.641)" fill="#5793ce"/>
          <path id="Trazado_117265" data-name="Trazado 117265" d="M479.832,212.233l-26.426-15.257c-1.622-.937-1.419-2.573.454-3.654l25.517-14.732a7.033,7.033,0,0,1,6.327-.262l26.427,15.257c1.622.936,1.418,2.572-.455,3.653L486.161,211.97A7.034,7.034,0,0,1,479.832,212.233Z" transform="translate(-452.311 -177.695)" fill="#d4ecff"/>
          <path id="Trazado_117266" data-name="Trazado 117266" d="M481.483,210.165l-22.145-12.786c-1.359-.785-1.189-2.156.38-3.062L481.1,181.971a5.892,5.892,0,0,1,5.3-.22l22.146,12.786c1.359.784,1.188,2.156-.381,3.061l-21.384,12.346A5.894,5.894,0,0,1,481.483,210.165Z" transform="translate(-453.486 -178.373)" fill="#5793ce"/>
          <g id="Grupo_109321" data-name="Grupo 109321" transform="translate(49.053 24.382)">
            <path id="Trazado_117267" data-name="Trazado 117267" d="M515.178,213.554a2.359,2.359,0,0,1-1.068,1.849c-.59.34-1.067.065-1.067-.616a2.359,2.359,0,0,1,1.067-1.849C514.7,212.6,515.178,212.873,515.178,213.554Z" transform="translate(-513.043 -208.826)" fill="#d4ecff"/>
            <path id="Trazado_117268" data-name="Trazado 117268" d="M519.43,211.1a2.359,2.359,0,0,1-1.068,1.849c-.59.341-1.068.065-1.068-.616a2.361,2.361,0,0,1,1.068-1.849C518.951,210.142,519.43,210.419,519.43,211.1Z" transform="translate(-513.861 -208.354)" fill="#d4ecff"/>
            <path id="Trazado_117269" data-name="Trazado 117269" d="M523.681,208.645a2.358,2.358,0,0,1-1.067,1.848c-.59.341-1.068.065-1.068-.615a2.359,2.359,0,0,1,1.068-1.849C523.2,207.687,523.681,207.964,523.681,208.645Z" transform="translate(-514.678 -207.882)" fill="#d4ecff"/>
          </g>
        </g>
        <g id="Grupo_109325" data-name="Grupo 109325">
          <path id="Trazado_117270" data-name="Trazado 117270" d="M513.219,189.419h0V180.3l-20.446-.011-7.067-4.08a7.03,7.03,0,0,0-6.327.262l-6.594,3.807-20.465-.011v9.377a1.834,1.834,0,0,0,1.087,1.7L479.833,206.6a7.034,7.034,0,0,0,6.328-.262L511.678,191.6A2.507,2.507,0,0,0,513.219,189.419Z" transform="translate(-452.312 -162.716)" fill="#396caa"/>
          <path id="Trazado_117271" data-name="Trazado 117271" d="M482.77,175.583a7.3,7.3,0,0,0-3.392.89l-6.594,3.807-20.465-.011v9.377a1.834,1.834,0,0,0,1.087,1.7L479.833,206.6a5.73,5.73,0,0,0,2.937.628Z" transform="translate(-452.312 -162.717)" fill="#396caa"/>
          <path id="Trazado_117272" data-name="Trazado 117272" d="M454.637,181.385H452.32v9.377a1.834,1.834,0,0,0,1.087,1.7l1.229.71Z" transform="translate(-452.312 -163.833)" fill="#5793ce"/>
          <path id="Trazado_117273" data-name="Trazado 117273" d="M486.889,211.681a7.212,7.212,0,0,0,5.059-.057V200.976h-5.059Z" transform="translate(-458.961 -167.601)" fill="#5793ce"/>
          <path id="Trazado_117274" data-name="Trazado 117274" d="M479.832,194.192l-26.426-15.257c-1.622-.937-1.419-2.573.454-3.653l25.517-14.732a7.03,7.03,0,0,1,6.327-.262l26.427,15.257c1.622.936,1.418,2.572-.455,3.653l-25.517,14.732A7.034,7.034,0,0,1,479.832,194.192Z" transform="translate(-452.311 -159.654)" fill="#d4ecff"/>
          <path id="Trazado_117275" data-name="Trazado 117275" d="M511.677,181.356l-25.517,14.732a7.032,7.032,0,0,1-6.328.262l-26.426-15.257a2.44,2.44,0,0,1-.809-.718,1.7,1.7,0,0,0,.809,2.513l26.426,15.257a7.034,7.034,0,0,0,6.328-.262l25.517-14.732c1.455-.84,1.9-2.014,1.264-2.935A3.538,3.538,0,0,1,511.677,181.356Z" transform="translate(-452.311 -163.608)" fill="#fff"/>
          <g id="Grupo_109323" data-name="Grupo 109323" transform="translate(49.053 24.382)">
            <path id="Trazado_117276" data-name="Trazado 117276" d="M515.178,195.513a2.359,2.359,0,0,1-1.068,1.849c-.59.341-1.067.065-1.067-.616a2.36,2.36,0,0,1,1.067-1.849C514.7,194.556,515.178,194.832,515.178,195.513Z" transform="translate(-513.043 -190.785)" fill="#d4ecff"/>
            <path id="Trazado_117277" data-name="Trazado 117277" d="M519.43,193.058a2.359,2.359,0,0,1-1.068,1.849c-.59.341-1.068.065-1.068-.616a2.361,2.361,0,0,1,1.068-1.849C518.951,192.1,519.43,192.378,519.43,193.058Z" transform="translate(-513.861 -190.313)" fill="#d4ecff"/>
            <path id="Trazado_117278" data-name="Trazado 117278" d="M523.681,190.6a2.36,2.36,0,0,1-1.067,1.849c-.59.34-1.068.064-1.068-.616a2.359,2.359,0,0,1,1.068-1.849C523.2,189.646,523.681,189.923,523.681,190.6Z" transform="translate(-514.678 -189.841)" fill="#d4ecff"/>
          </g>
          <g id="Grupo_109324" data-name="Grupo 109324" transform="translate(16.205 8.916)">
            <path id="Trazado_117279" data-name="Trazado 117279" d="M485.254,186.855l-12.367-7.139c-.758-.439-.664-1.2.212-1.71l11.941-6.894a3.291,3.291,0,0,1,2.961-.122l12.367,7.139c.759.439.664,1.2-.212,1.71l-11.941,6.894A3.288,3.288,0,0,1,485.254,186.855Z" transform="translate(-472.375 -170.693)" fill="#5793ce"/>
            <path id="Trazado_117280" data-name="Trazado 117280" d="M489.362,182.77l-1.712-.988c-.1-.061-.091-.166.03-.237l1.652-.954a.456.456,0,0,1,.41-.017l1.711.988c.1.061.092.166-.03.237l-1.652.954A.454.454,0,0,1,489.362,182.77Z" transform="translate(-475.299 -172.585)" fill="#d4ecff"/>
            <path id="Trazado_117281" data-name="Trazado 117281" d="M472.887,179.716l.036.02a2,2,0,0,1,.177-.123l11.941-6.894A3.288,3.288,0,0,1,488,172.6l12.332,7.12c.7-.5.736-1.183.035-1.588L488,170.989a3.293,3.293,0,0,0-2.961.123L473.1,178.006C472.223,178.511,472.129,179.277,472.887,179.716Z" transform="translate(-472.375 -170.693)" fill="#396caa"/>
          </g>
        </g>
      </g>
      <g id="Grupo_109346" data-name="Grupo 109346" transform="translate(85.032 68.173)">
        <g id="Grupo_109338" data-name="Grupo 109338">
          <g id="Grupo_109329" data-name="Grupo 109329">
            <path id="Trazado_117282" data-name="Trazado 117282" d="M417.134,301.942l-45.611-26.008c-1.669-.964-1.46-2.646.467-3.758l26.244-15.152a7.235,7.235,0,0,1,6.508-.27l45.611,26.009c1.669.963,1.459,2.645-.467,3.757l-26.244,15.152A7.235,7.235,0,0,1,417.134,301.942Z" transform="translate(-367.446 -137.057)" fill="#b2d3ea"/>
            <path id="Trazado_117283" data-name="Trazado 117283" d="M453.719,249.042h0V142.559L411.387,131.48l-7.8-4.5a7.76,7.76,0,0,0-6.982.289l-7.275,4.2-22.579-.012,6.686,102.794a2.024,2.024,0,0,0,1.2,1.871L416.885,268a7.761,7.761,0,0,0,6.982-.29l28.154-16.254A2.766,2.766,0,0,0,453.719,249.042Z" transform="translate(-366.746 -112.091)" fill="#396caa"/>
            <path id="Trazado_117284" data-name="Trazado 117284" d="M400.35,126.287a8.062,8.062,0,0,0-3.742.981l-7.275,4.2-22.579-.012V238.225a2.024,2.024,0,0,0,1.2,1.871l48.93,27.9a6.33,6.33,0,0,0,3.24.692l.5-107.437Z" transform="translate(-366.745 -112.092)" fill="#d4ecff"/>
            <path id="Trazado_117285" data-name="Trazado 117285" d="M429.377,276.239a7.952,7.952,0,0,0,5.58-.064V168.005h-5.58Z" transform="translate(-378.789 -120.115)" fill="#5793ce"/>
            <path id="Trazado_117286" data-name="Trazado 117286" d="M416.882,157.885l-48.93-27.9c-1.79-1.033-1.565-2.837.5-4.03L396.607,109.7a7.76,7.76,0,0,1,6.982-.289l48.93,27.9c1.79,1.034,1.565,2.838-.5,4.031L423.864,157.6A7.761,7.761,0,0,1,416.882,157.885Z" transform="translate(-366.744 -108.712)" fill="#d4ecff"/>
            <path id="Trazado_117287" data-name="Trazado 117287" d="M452.018,143.766,423.864,160.02a7.758,7.758,0,0,1-6.982.289l-48.93-27.9a2.7,2.7,0,0,1-.893-.792,1.875,1.875,0,0,0,.893,2.772l48.93,27.9a7.761,7.761,0,0,0,6.982-.29l28.154-16.254c1.6-.927,2.093-2.222,1.394-3.239A3.913,3.913,0,0,1,452.018,143.766Z" transform="translate(-366.744 -113.117)" fill="#fafdff"/>
            <g id="Grupo_109328" data-name="Grupo 109328" transform="translate(18.381 9.027)">
              <path id="Trazado_117288" data-name="Trazado 117288" d="M422.643,148.727l-32.577-18.884c-.838-.484-.733-1.328.234-1.887l13.174-7.606a3.633,3.633,0,0,1,3.267-.136L439.319,139.1c.838.483.733,1.328-.234,1.886l-13.174,7.606A3.633,3.633,0,0,1,422.643,148.727Z" transform="translate(-389.501 -119.888)" fill="#173d7a"/>
              <g id="Grupo_109327" data-name="Grupo 109327" transform="translate(13.589 8.335)">
                <path id="Trazado_117289" data-name="Trazado 117289" d="M408.291,132.676l-1.888-1.09c-.116-.066-.1-.183.032-.261l1.823-1.052a.5.5,0,0,1,.452-.019l1.888,1.09c.116.066.1.183-.032.261l-1.823,1.052A.5.5,0,0,1,408.291,132.676Z" transform="translate(-406.325 -130.208)" fill="#d4ecff"/>
                <path id="Trazado_117290" data-name="Trazado 117290" d="M416.1,137.165l-1.888-1.09c-.116-.067-.1-.183.032-.261l1.823-1.052a.5.5,0,0,1,.452-.019l1.888,1.09c.115.067.1.184-.032.261l-1.823,1.052A.5.5,0,0,1,416.1,137.165Z" transform="translate(-407.827 -131.072)" fill="#d4ecff"/>
                <path id="Trazado_117291" data-name="Trazado 117291" d="M423.908,141.655l-1.888-1.09c-.116-.067-.1-.184.033-.261l1.822-1.052a.5.5,0,0,1,.452-.019l1.888,1.09c.116.067.1.183-.032.261l-1.823,1.052A.5.5,0,0,1,423.908,141.655Z" transform="translate(-409.329 -131.935)" fill="#d4ecff"/>
                <path id="Trazado_117292" data-name="Trazado 117292" d="M431.716,146.145l-1.888-1.09c-.116-.066-.1-.183.033-.261l1.822-1.052a.5.5,0,0,1,.452-.019l1.888,1.09c.116.066.1.183-.032.261l-1.823,1.052A.5.5,0,0,1,431.716,146.145Z" transform="translate(-410.83 -132.798)" fill="#d4ecff"/>
              </g>
              <path id="Trazado_117293" data-name="Trazado 117293" d="M390.066,129.843l.039.022a2.172,2.172,0,0,1,.2-.134l13.174-7.607a3.631,3.631,0,0,1,3.267-.135l32.539,18.861c.771-.552.812-1.3.038-1.752l-32.577-18.884a3.633,3.633,0,0,0-3.267.136L390.3,127.956C389.334,128.515,389.229,129.359,390.066,129.843Z" transform="translate(-389.501 -119.888)" fill="#5793ce"/>
            </g>
          </g>
          <g id="Grupo_109331" data-name="Grupo 109331" transform="translate(60.73 47.782)">
            <path id="Trazado_117294" data-name="Trazado 117294" d="M443.821,190.358l18.522-10.6a4.522,4.522,0,0,0,1.888-3.606v-6.624c0-1.389-.846-2.028-1.888-1.426L443.821,178.7a4.519,4.519,0,0,0-1.888,3.606v6.624C441.933,190.322,442.778,190.96,443.821,190.358Z" transform="translate(-441.933 -167.871)" fill="#173d7a"/>
            <path id="Trazado_117295" data-name="Trazado 117295" d="M463.372,167.9a1.847,1.847,0,0,1,.474,1.378v6.624a4.519,4.519,0,0,1-1.888,3.606l-18.522,10.605a1.363,1.363,0,0,1-.917.2,1.124,1.124,0,0,0,1.413.048l18.522-10.6a4.521,4.521,0,0,0,1.888-3.606V169.53C464.343,168.586,463.949,168,463.372,167.9Z" transform="translate(-442.046 -167.877)" fill="#fff"/>
            <g id="Grupo_109330" data-name="Grupo 109330" transform="translate(7.047 8.07)">
              <path id="Trazado_117296" data-name="Trazado 117296" d="M451.069,185.865l1.7-.981a.985.985,0,0,0,.411-.786v-1.815c0-.3-.184-.442-.411-.311l-1.7.981a.985.985,0,0,0-.411.786v1.815C450.658,185.857,450.842,186,451.069,185.865Z" transform="translate(-450.658 -178.643)" fill="#396caa"/>
              <path id="Trazado_117297" data-name="Trazado 117297" d="M458.1,181.8l1.7-.981a.985.985,0,0,0,.411-.786v-1.815c0-.3-.184-.442-.411-.311l-1.7.981a.985.985,0,0,0-.411.786v1.815C457.692,181.8,457.876,181.935,458.1,181.8Z" transform="translate(-452.011 -177.862)" fill="#fff"/>
            </g>
          </g>
          <g id="Grupo_109333" data-name="Grupo 109333" transform="translate(60.73 95.646)">
            <path id="Trazado_117298" data-name="Trazado 117298" d="M443.821,249.619l18.522-10.605a4.521,4.521,0,0,0,1.888-3.606v-6.624c0-1.389-.846-2.028-1.888-1.426l-18.522,10.605a4.519,4.519,0,0,0-1.888,3.606v6.624C441.933,249.582,442.778,250.22,443.821,249.619Z" transform="translate(-441.933 -227.131)" fill="#173d7a"/>
            <path id="Trazado_117299" data-name="Trazado 117299" d="M463.372,227.164a1.847,1.847,0,0,1,.474,1.378v6.624a4.519,4.519,0,0,1-1.888,3.606l-18.522,10.605a1.358,1.358,0,0,1-.917.2,1.125,1.125,0,0,0,1.413.049l18.522-10.605a4.521,4.521,0,0,0,1.888-3.606V228.79C464.343,227.847,463.949,227.262,463.372,227.164Z" transform="translate(-442.046 -227.137)" fill="#fff"/>
            <g id="Grupo_109332" data-name="Grupo 109332" transform="translate(7.047 8.07)">
              <path id="Trazado_117300" data-name="Trazado 117300" d="M451.069,245.125l1.7-.981a.988.988,0,0,0,.411-.787v-1.815c0-.3-.184-.442-.411-.311l-1.7.981a.985.985,0,0,0-.411.786v1.815C450.658,245.117,450.842,245.256,451.069,245.125Z" transform="translate(-450.658 -237.903)" fill="#396caa"/>
              <path id="Trazado_117301" data-name="Trazado 117301" d="M458.1,241.064l1.7-.981a.985.985,0,0,0,.411-.786v-1.815c0-.3-.184-.442-.411-.311l-1.7.981a.985.985,0,0,0-.411.786v1.815C457.692,241.056,457.876,241.2,458.1,241.064Z" transform="translate(-452.011 -237.122)" fill="#396caa"/>
            </g>
          </g>
          <g id="Grupo_109335" data-name="Grupo 109335" transform="translate(60.73 119.578)">
            <path id="Trazado_117302" data-name="Trazado 117302" d="M443.821,279.249l18.522-10.605a4.521,4.521,0,0,0,1.888-3.606v-6.623c0-1.39-.846-2.029-1.888-1.427l-18.522,10.605a4.519,4.519,0,0,0-1.888,3.606v6.623C441.933,279.212,442.778,279.85,443.821,279.249Z" transform="translate(-441.933 -256.761)" fill="#173d7a"/>
            <path id="Trazado_117303" data-name="Trazado 117303" d="M463.372,256.794a1.847,1.847,0,0,1,.474,1.378V264.8a4.519,4.519,0,0,1-1.888,3.606l-18.522,10.605a1.358,1.358,0,0,1-.917.2,1.125,1.125,0,0,0,1.413.049l18.522-10.605a4.521,4.521,0,0,0,1.888-3.606V258.42C464.343,257.477,463.949,256.892,463.372,256.794Z" transform="translate(-442.046 -256.767)" fill="#fff"/>
            <g id="Grupo_109334" data-name="Grupo 109334" transform="translate(7.047 8.07)">
              <path id="Trazado_117304" data-name="Trazado 117304" d="M451.069,274.755l1.7-.981a.988.988,0,0,0,.411-.787v-1.814c0-.3-.184-.443-.411-.312l-1.7.981a.985.985,0,0,0-.411.786v1.815C450.658,274.747,450.842,274.886,451.069,274.755Z" transform="translate(-450.658 -267.533)" fill="#fff"/>
              <path id="Trazado_117305" data-name="Trazado 117305" d="M458.1,270.694l1.7-.981a.985.985,0,0,0,.411-.786v-1.815c0-.3-.184-.442-.411-.311l-1.7.981a.985.985,0,0,0-.411.786v1.815C457.692,270.686,457.876,270.826,458.1,270.694Z" transform="translate(-452.011 -266.752)" fill="#396caa"/>
            </g>
          </g>
          <g id="Grupo_109337" data-name="Grupo 109337" transform="translate(60.73 71.714)">
            <path id="Trazado_117306" data-name="Trazado 117306" d="M443.821,219.988l18.522-10.6a4.521,4.521,0,0,0,1.888-3.606v-6.624c0-1.389-.846-2.028-1.888-1.426l-18.522,10.605a4.519,4.519,0,0,0-1.888,3.606v6.624C441.933,219.952,442.778,220.59,443.821,219.988Z" transform="translate(-441.933 -197.501)" fill="#173d7a"/>
            <path id="Trazado_117307" data-name="Trazado 117307" d="M463.372,197.534a1.847,1.847,0,0,1,.474,1.378v6.624a4.519,4.519,0,0,1-1.888,3.606l-18.522,10.605a1.358,1.358,0,0,1-.917.2,1.124,1.124,0,0,0,1.413.048l18.522-10.6a4.521,4.521,0,0,0,1.888-3.606V199.16C464.343,198.216,463.949,197.632,463.372,197.534Z" transform="translate(-442.046 -197.507)" fill="#fff"/>
            <g id="Grupo_109336" data-name="Grupo 109336" transform="translate(7.047 8.07)">
              <path id="Trazado_117308" data-name="Trazado 117308" d="M451.069,215.5l1.7-.981a.985.985,0,0,0,.411-.786v-1.815c0-.3-.184-.442-.411-.311l-1.7.981a.985.985,0,0,0-.411.786v1.815C450.658,215.487,450.842,215.626,451.069,215.5Z" transform="translate(-450.658 -208.273)" fill="#fff"/>
              <path id="Trazado_117309" data-name="Trazado 117309" d="M458.1,211.434l1.7-.981a.985.985,0,0,0,.411-.786v-1.815c0-.3-.184-.442-.411-.311l-1.7.981a.985.985,0,0,0-.411.786v1.815C457.692,211.426,457.876,211.565,458.1,211.434Z" transform="translate(-452.011 -207.492)" fill="#fff"/>
            </g>
          </g>
        </g>
        <g id="Grupo_109339" data-name="Grupo 109339" transform="translate(2.111 25.843)">
          <path id="Trazado_117310" data-name="Trazado 117310" d="M413.821,178.355l-42.733-24.672a4.148,4.148,0,0,1-1.732-3.309v-8.148c0-1.275.775-1.862,1.732-1.309l42.733,24.672a4.146,4.146,0,0,1,1.732,3.308v8.149C415.553,178.32,414.778,178.906,413.821,178.355Z" transform="translate(-369.357 -140.709)" fill="#5793ce"/>
          <path id="Trazado_117311" data-name="Trazado 117311" d="M413.09,176.2l-40.279-23.255a2.1,2.1,0,0,1-.879-1.678v-6.126c0-.647.393-.944.879-.664l40.279,23.255a2.1,2.1,0,0,1,.879,1.678v6.126C413.968,176.185,413.575,176.482,413.09,176.2Z" transform="translate(-369.852 -141.413)" fill="#d4ecff" opacity="0.4"/>
          <path id="Trazado_117312" data-name="Trazado 117312" d="M381.778,155.762l-6.011-3.47a2.045,2.045,0,0,1-.853-1.631h0c0-.628.382-.917.853-.645l6.011,3.47a2.043,2.043,0,0,1,.854,1.631h0C382.632,155.746,382.249,156.034,381.778,155.762Z" transform="translate(-370.426 -142.479)" fill="#d4ecff"/>
          <path id="Trazado_117313" data-name="Trazado 117313" d="M389.285,158.969c0,.628-.441.884-.985.569a2.177,2.177,0,0,1-.985-1.707c0-.628.441-.883.985-.569A2.179,2.179,0,0,1,389.285,158.969Z" transform="translate(-372.81 -143.866)" fill="#173d7a"/>
          <path id="Trazado_117314" data-name="Trazado 117314" d="M393.589,161.454c0,.628-.441.883-.985.569a2.177,2.177,0,0,1-.985-1.706c0-.628.441-.884.985-.569A2.177,2.177,0,0,1,393.589,161.454Z" transform="translate(-373.638 -144.344)" fill="#173d7a"/>
          <path id="Trazado_117315" data-name="Trazado 117315" d="M397.892,163.938c0,.628-.441.884-.985.569a2.177,2.177,0,0,1-.985-1.707c0-.628.441-.883.985-.569A2.177,2.177,0,0,1,397.892,163.938Z" transform="translate(-374.465 -144.822)" fill="#d4ecff"/>
          <path id="Trazado_117316" data-name="Trazado 117316" d="M402.195,166.423c0,.628-.441.883-.985.569a2.18,2.18,0,0,1-.985-1.707c0-.628.442-.883.985-.569A2.177,2.177,0,0,1,402.195,166.423Z" transform="translate(-375.293 -145.299)" fill="#173d7a"/>
          <path id="Trazado_117317" data-name="Trazado 117317" d="M420.179,178.405l-2.025-1.17a1.311,1.311,0,0,1-.547-1.046v-2.142c0-.4.245-.589.547-.414l2.025,1.17a1.31,1.31,0,0,1,.548,1.046v2.142C420.726,178.394,420.482,178.58,420.179,178.405Z" transform="translate(-378.636 -147.028)" fill="#173d7a"/>
        </g>
        <g id="Grupo_109340" data-name="Grupo 109340" transform="translate(2.111 40.212)">
          <path id="Trazado_117318" data-name="Trazado 117318" d="M413.821,196.145l-42.733-24.672a4.148,4.148,0,0,1-1.732-3.309v-8.148c0-1.275.775-1.862,1.732-1.309l42.733,24.671a4.148,4.148,0,0,1,1.732,3.309v8.149C415.553,196.111,414.778,196.7,413.821,196.145Z" transform="translate(-369.357 -158.499)" fill="#5793ce"/>
          <path id="Trazado_117319" data-name="Trazado 117319" d="M413.09,193.992l-40.279-23.255a2.1,2.1,0,0,1-.879-1.678v-6.126c0-.647.393-.944.879-.664l40.279,23.255a2.1,2.1,0,0,1,.879,1.679v6.126C413.968,193.975,413.575,194.272,413.09,193.992Z" transform="translate(-369.852 -159.203)" fill="#d4ecff" opacity="0.4"/>
          <path id="Trazado_117320" data-name="Trazado 117320" d="M381.778,173.552l-6.011-3.471a2.042,2.042,0,0,1-.853-1.63h0c0-.628.382-.917.853-.645l6.011,3.47a2.043,2.043,0,0,1,.854,1.631h0C382.632,173.536,382.249,173.824,381.778,173.552Z" transform="translate(-370.426 -160.269)" fill="#d4ecff"/>
          <path id="Trazado_117321" data-name="Trazado 117321" d="M389.285,176.76c0,.628-.441.883-.985.569a2.177,2.177,0,0,1-.985-1.707c0-.628.441-.883.985-.569A2.179,2.179,0,0,1,389.285,176.76Z" transform="translate(-372.81 -161.656)" fill="#fff"/>
          <path id="Trazado_117322" data-name="Trazado 117322" d="M393.589,179.244c0,.628-.441.883-.985.569a2.177,2.177,0,0,1-.985-1.707c0-.628.441-.883.985-.569A2.177,2.177,0,0,1,393.589,179.244Z" transform="translate(-373.638 -162.134)" fill="#173d7a"/>
          <path id="Trazado_117323" data-name="Trazado 117323" d="M397.892,181.728c0,.628-.441.884-.985.569a2.177,2.177,0,0,1-.985-1.707c0-.628.441-.883.985-.569A2.177,2.177,0,0,1,397.892,181.728Z" transform="translate(-374.465 -162.612)" fill="#d4ecff"/>
          <path id="Trazado_117324" data-name="Trazado 117324" d="M402.195,184.213c0,.628-.441.883-.985.569a2.18,2.18,0,0,1-.985-1.707c0-.628.442-.883.985-.569A2.177,2.177,0,0,1,402.195,184.213Z" transform="translate(-375.293 -163.089)" fill="#173d7a"/>
          <path id="Trazado_117325" data-name="Trazado 117325" d="M420.179,196.2l-2.025-1.17a1.311,1.311,0,0,1-.547-1.046v-2.142c0-.4.245-.589.547-.414l2.025,1.17a1.31,1.31,0,0,1,.548,1.046v2.142C420.726,196.184,420.482,196.37,420.179,196.2Z" transform="translate(-378.636 -164.818)" fill="#173d7a"/>
        </g>
        <g id="Grupo_109341" data-name="Grupo 109341" transform="translate(2.111 54.581)">
          <path id="Trazado_117326" data-name="Trazado 117326" d="M413.821,213.934l-42.733-24.671a4.148,4.148,0,0,1-1.732-3.309v-8.148c0-1.275.775-1.862,1.732-1.309l42.733,24.671a4.148,4.148,0,0,1,1.732,3.309v8.148C415.553,213.9,414.778,214.486,413.821,213.934Z" transform="translate(-369.357 -176.289)" fill="#5793ce"/>
          <path id="Trazado_117327" data-name="Trazado 117327" d="M413.09,211.782l-40.279-23.255a2.1,2.1,0,0,1-.879-1.678v-6.126c0-.647.393-.944.879-.664l40.279,23.255a2.1,2.1,0,0,1,.879,1.678v6.126C413.968,211.765,413.575,212.062,413.09,211.782Z" transform="translate(-369.852 -176.993)" fill="#d4ecff" opacity="0.4"/>
          <path id="Trazado_117328" data-name="Trazado 117328" d="M381.778,191.342l-6.011-3.471a2.042,2.042,0,0,1-.853-1.63h0c0-.628.382-.917.853-.645l6.011,3.47a2.043,2.043,0,0,1,.854,1.631h0C382.632,191.325,382.249,191.614,381.778,191.342Z" transform="translate(-370.426 -178.059)" fill="#d4ecff"/>
          <path id="Trazado_117329" data-name="Trazado 117329" d="M389.285,194.549c0,.628-.441.884-.985.569a2.177,2.177,0,0,1-.985-1.707c0-.628.441-.883.985-.569A2.179,2.179,0,0,1,389.285,194.549Z" transform="translate(-372.81 -179.446)" fill="#fff"/>
          <path id="Trazado_117330" data-name="Trazado 117330" d="M393.589,197.034c0,.628-.441.883-.985.569a2.177,2.177,0,0,1-.985-1.707c0-.628.441-.883.985-.569A2.178,2.178,0,0,1,393.589,197.034Z" transform="translate(-373.638 -179.924)" fill="#173d7a"/>
          <path id="Trazado_117331" data-name="Trazado 117331" d="M397.892,199.518c0,.628-.441.884-.985.569a2.175,2.175,0,0,1-.985-1.706c0-.628.441-.883.985-.569A2.176,2.176,0,0,1,397.892,199.518Z" transform="translate(-374.465 -180.402)" fill="#d4ecff"/>
          <path id="Trazado_117332" data-name="Trazado 117332" d="M402.195,202c0,.628-.441.883-.985.569a2.18,2.18,0,0,1-.985-1.707c0-.628.442-.883.985-.569A2.177,2.177,0,0,1,402.195,202Z" transform="translate(-375.293 -180.879)" fill="#173d7a"/>
          <path id="Trazado_117333" data-name="Trazado 117333" d="M420.179,213.985l-2.025-1.17a1.311,1.311,0,0,1-.547-1.046v-2.142c0-.4.245-.589.547-.414l2.025,1.169a1.312,1.312,0,0,1,.548,1.047v2.142C420.726,213.974,420.482,214.16,420.179,213.985Z" transform="translate(-378.636 -182.608)" fill="#173d7a"/>
        </g>
        <g id="Grupo_109342" data-name="Grupo 109342" transform="translate(2.111 68.95)">
          <path id="Trazado_117334" data-name="Trazado 117334" d="M413.821,231.724l-42.733-24.671a4.148,4.148,0,0,1-1.732-3.309V195.6c0-1.275.775-1.862,1.732-1.309l42.733,24.671a4.148,4.148,0,0,1,1.732,3.309v8.148C415.553,231.69,414.778,232.276,413.821,231.724Z" transform="translate(-369.357 -194.079)" fill="#5793ce"/>
          <path id="Trazado_117335" data-name="Trazado 117335" d="M413.09,229.572l-40.279-23.255a2.1,2.1,0,0,1-.879-1.678v-6.126c0-.647.393-.944.879-.664L413.09,221.1a2.1,2.1,0,0,1,.879,1.678v6.126C413.968,229.555,413.575,229.852,413.09,229.572Z" transform="translate(-369.852 -194.783)" fill="#d4ecff" opacity="0.4"/>
          <path id="Trazado_117336" data-name="Trazado 117336" d="M381.778,209.132l-6.011-3.471a2.043,2.043,0,0,1-.853-1.63h0c0-.628.382-.917.853-.645l6.011,3.471a2.044,2.044,0,0,1,.854,1.631h0C382.632,209.115,382.249,209.4,381.778,209.132Z" transform="translate(-370.426 -195.849)" fill="#d4ecff"/>
          <path id="Trazado_117337" data-name="Trazado 117337" d="M389.285,212.339c0,.628-.441.884-.985.569a2.177,2.177,0,0,1-.985-1.707c0-.628.441-.883.985-.569A2.177,2.177,0,0,1,389.285,212.339Z" transform="translate(-372.81 -197.236)" fill="#173d7a"/>
          <path id="Trazado_117338" data-name="Trazado 117338" d="M393.589,214.824c0,.628-.441.883-.985.569a2.177,2.177,0,0,1-.985-1.707c0-.628.441-.883.985-.569A2.177,2.177,0,0,1,393.589,214.824Z" transform="translate(-373.638 -197.714)" fill="#173d7a"/>
          <path id="Trazado_117339" data-name="Trazado 117339" d="M397.892,217.308c0,.628-.441.883-.985.569a2.176,2.176,0,0,1-.985-1.706c0-.628.441-.883.985-.569A2.177,2.177,0,0,1,397.892,217.308Z" transform="translate(-374.465 -198.192)" fill="#d4ecff"/>
          <path id="Trazado_117340" data-name="Trazado 117340" d="M402.195,219.793c0,.628-.441.883-.985.569a2.18,2.18,0,0,1-.985-1.707c0-.628.442-.883.985-.569A2.178,2.178,0,0,1,402.195,219.793Z" transform="translate(-375.293 -198.669)" fill="#173d7a"/>
          <path id="Trazado_117341" data-name="Trazado 117341" d="M420.179,231.775l-2.025-1.17a1.311,1.311,0,0,1-.547-1.046v-2.142c0-.4.245-.589.547-.414l2.025,1.169a1.312,1.312,0,0,1,.548,1.047v2.142C420.726,231.764,420.482,231.95,420.179,231.775Z" transform="translate(-378.636 -200.398)" fill="#d4ecff"/>
        </g>
        <g id="Grupo_109343" data-name="Grupo 109343" transform="translate(2.111 83.319)">
          <path id="Trazado_117342" data-name="Trazado 117342" d="M413.821,249.514l-42.733-24.671a4.148,4.148,0,0,1-1.732-3.309v-8.149c0-1.275.775-1.861,1.732-1.308l42.733,24.671a4.148,4.148,0,0,1,1.732,3.309V248.2C415.553,249.48,414.778,250.066,413.821,249.514Z" transform="translate(-369.357 -211.869)" fill="#5793ce"/>
          <path id="Trazado_117343" data-name="Trazado 117343" d="M413.09,247.362l-40.279-23.255a2.1,2.1,0,0,1-.879-1.678V216.3c0-.647.393-.944.879-.664l40.279,23.255a2.1,2.1,0,0,1,.879,1.678V246.7C413.968,247.345,413.575,247.642,413.09,247.362Z" transform="translate(-369.852 -212.573)" fill="#d4ecff" opacity="0.4"/>
          <path id="Trazado_117344" data-name="Trazado 117344" d="M381.778,226.922l-6.011-3.471a2.043,2.043,0,0,1-.853-1.63h0c0-.628.382-.918.853-.645l6.011,3.471a2.044,2.044,0,0,1,.854,1.631h0C382.632,226.9,382.249,227.194,381.778,226.922Z" transform="translate(-370.426 -213.639)" fill="#d4ecff"/>
          <path id="Trazado_117345" data-name="Trazado 117345" d="M389.285,230.129c0,.628-.441.883-.985.569a2.175,2.175,0,0,1-.985-1.706c0-.628.441-.883.985-.569A2.176,2.176,0,0,1,389.285,230.129Z" transform="translate(-372.81 -215.026)" fill="#173d7a"/>
          <path id="Trazado_117346" data-name="Trazado 117346" d="M393.589,232.614c0,.628-.441.883-.985.569a2.177,2.177,0,0,1-.985-1.707c0-.628.441-.883.985-.569A2.177,2.177,0,0,1,393.589,232.614Z" transform="translate(-373.638 -215.504)" fill="#fff"/>
          <path id="Trazado_117347" data-name="Trazado 117347" d="M397.892,235.1c0,.628-.441.883-.985.569a2.175,2.175,0,0,1-.985-1.706c0-.628.441-.884.985-.569A2.175,2.175,0,0,1,397.892,235.1Z" transform="translate(-374.465 -215.982)" fill="#d4ecff"/>
          <path id="Trazado_117348" data-name="Trazado 117348" d="M402.195,237.583c0,.628-.441.883-.985.569a2.18,2.18,0,0,1-.985-1.707c0-.628.442-.883.985-.569A2.177,2.177,0,0,1,402.195,237.583Z" transform="translate(-375.293 -216.459)" fill="#fff"/>
          <path id="Trazado_117349" data-name="Trazado 117349" d="M420.179,249.565l-2.025-1.17a1.311,1.311,0,0,1-.547-1.046v-2.142c0-.4.245-.589.547-.414l2.025,1.169a1.31,1.31,0,0,1,.548,1.047v2.142C420.726,249.554,420.482,249.74,420.179,249.565Z" transform="translate(-378.636 -218.188)" fill="#d4ecff"/>
        </g>
        <g id="Grupo_109344" data-name="Grupo 109344" transform="translate(2.111 97.687)">
          <path id="Trazado_117350" data-name="Trazado 117350" d="M413.821,267.3l-42.733-24.671a4.148,4.148,0,0,1-1.732-3.309v-8.149c0-1.275.775-1.861,1.732-1.309l42.733,24.672a4.148,4.148,0,0,1,1.732,3.309v8.148C415.553,267.27,414.778,267.856,413.821,267.3Z" transform="translate(-369.357 -229.658)" fill="#5793ce"/>
          <path id="Trazado_117351" data-name="Trazado 117351" d="M413.09,265.152,372.811,241.9a2.1,2.1,0,0,1-.879-1.678v-6.126c0-.647.393-.944.879-.664l40.279,23.255a2.1,2.1,0,0,1,.879,1.678v6.126C413.968,265.135,413.575,265.432,413.09,265.152Z" transform="translate(-369.852 -230.363)" fill="#d4ecff" opacity="0.4"/>
          <path id="Trazado_117352" data-name="Trazado 117352" d="M381.778,244.712l-6.011-3.471a2.043,2.043,0,0,1-.853-1.63h0c0-.628.382-.917.853-.645l6.011,3.471a2.043,2.043,0,0,1,.854,1.631h0C382.632,244.695,382.249,244.984,381.778,244.712Z" transform="translate(-370.426 -231.428)" fill="#d4ecff"/>
          <path id="Trazado_117353" data-name="Trazado 117353" d="M389.285,247.919c0,.628-.441.883-.985.569a2.175,2.175,0,0,1-.985-1.706c0-.628.441-.883.985-.569A2.176,2.176,0,0,1,389.285,247.919Z" transform="translate(-372.81 -232.816)" fill="#173d7a"/>
          <path id="Trazado_117354" data-name="Trazado 117354" d="M393.589,250.4c0,.628-.441.883-.985.569a2.177,2.177,0,0,1-.985-1.707c0-.628.441-.883.985-.569A2.177,2.177,0,0,1,393.589,250.4Z" transform="translate(-373.638 -233.294)" fill="#173d7a"/>
          <path id="Trazado_117355" data-name="Trazado 117355" d="M397.892,252.888c0,.628-.441.883-.985.569a2.177,2.177,0,0,1-.985-1.706c0-.628.441-.883.985-.569A2.177,2.177,0,0,1,397.892,252.888Z" transform="translate(-374.465 -233.771)" fill="#d4ecff"/>
          <path id="Trazado_117356" data-name="Trazado 117356" d="M402.195,255.373c0,.628-.441.883-.985.569a2.18,2.18,0,0,1-.985-1.707c0-.628.442-.883.985-.569A2.177,2.177,0,0,1,402.195,255.373Z" transform="translate(-375.293 -234.249)" fill="#173d7a"/>
          <path id="Trazado_117357" data-name="Trazado 117357" d="M420.179,267.354l-2.025-1.169a1.311,1.311,0,0,1-.547-1.046V263c0-.4.245-.588.547-.414l2.025,1.169a1.311,1.311,0,0,1,.548,1.047v2.142C420.726,267.344,420.482,267.53,420.179,267.354Z" transform="translate(-378.636 -235.977)" fill="#173d7a"/>
        </g>
        <g id="Grupo_109345" data-name="Grupo 109345" transform="translate(2.111 112.056)">
          <path id="Trazado_117358" data-name="Trazado 117358" d="M413.821,285.094l-42.733-24.671a4.148,4.148,0,0,1-1.732-3.309v-8.149c0-1.275.775-1.861,1.732-1.309l42.733,24.672a4.148,4.148,0,0,1,1.732,3.309v8.148C415.553,285.06,414.778,285.646,413.821,285.094Z" transform="translate(-369.357 -247.448)" fill="#5793ce"/>
          <path id="Trazado_117359" data-name="Trazado 117359" d="M413.09,282.942l-40.279-23.255a2.1,2.1,0,0,1-.879-1.679v-6.126c0-.647.393-.944.879-.664l40.279,23.255a2.1,2.1,0,0,1,.879,1.678v6.126C413.968,282.925,413.575,283.222,413.09,282.942Z" transform="translate(-369.852 -248.153)" fill="#d4ecff" opacity="0.4"/>
          <path id="Trazado_117360" data-name="Trazado 117360" d="M381.778,262.5l-6.011-3.471a2.043,2.043,0,0,1-.853-1.63h0c0-.628.382-.918.853-.645l6.011,3.471a2.043,2.043,0,0,1,.854,1.63h0C382.632,262.485,382.249,262.774,381.778,262.5Z" transform="translate(-370.426 -249.218)" fill="#d4ecff"/>
          <path id="Trazado_117361" data-name="Trazado 117361" d="M389.285,265.709c0,.628-.441.883-.985.569a2.176,2.176,0,0,1-.985-1.706c0-.628.441-.883.985-.569A2.179,2.179,0,0,1,389.285,265.709Z" transform="translate(-372.81 -250.606)" fill="#fff"/>
          <path id="Trazado_117362" data-name="Trazado 117362" d="M393.589,268.194c0,.628-.441.883-.985.569a2.177,2.177,0,0,1-.985-1.707c0-.628.441-.883.985-.569A2.177,2.177,0,0,1,393.589,268.194Z" transform="translate(-373.638 -251.083)" fill="#173d7a"/>
          <path id="Trazado_117363" data-name="Trazado 117363" d="M397.892,270.678c0,.628-.441.883-.985.569a2.177,2.177,0,0,1-.985-1.706c0-.628.441-.884.985-.569A2.177,2.177,0,0,1,397.892,270.678Z" transform="translate(-374.465 -251.561)" fill="#d4ecff"/>
          <path id="Trazado_117364" data-name="Trazado 117364" d="M402.195,273.163c0,.628-.441.883-.985.569a2.18,2.18,0,0,1-.985-1.707c0-.628.442-.883.985-.569A2.178,2.178,0,0,1,402.195,273.163Z" transform="translate(-375.293 -252.039)" fill="#173d7a"/>
          <path id="Trazado_117365" data-name="Trazado 117365" d="M420.179,285.144l-2.025-1.169a1.311,1.311,0,0,1-.547-1.046v-2.143c0-.4.245-.588.547-.414l2.025,1.169a1.31,1.31,0,0,1,.548,1.047v2.142C420.726,285.134,420.482,285.32,420.179,285.144Z" transform="translate(-378.636 -253.767)" fill="#d4ecff"/>
        </g>
      </g>
      <g id="Grupo_109350" data-name="Grupo 109350" transform="translate(115.438 44.233)">
        <path id="Trazado_117366" data-name="Trazado 117366" d="M408.866,125.379a.645.645,0,0,1-.645-.645V98.17a.645.645,0,1,1,1.29,0v26.563A.645.645,0,0,1,408.866,125.379Z" transform="translate(-405.126 -82.62)" fill="#5793ce"/>
        <g id="Grupo_109349" data-name="Grupo 109349">
          <g id="Grupo_109347" data-name="Grupo 109347" transform="translate(1.431 13.88)">
            <rect id="Rectángulo_40321" data-name="Rectángulo 40321" width="4.615" height="9.959" transform="translate(0)" fill="#5793ce"/>
            <path id="Trazado_117367" data-name="Trazado 117367" d="M410.1,109.21a3.607,3.607,0,0,1-3.263,0,1,1,0,0,1,0-1.884,3.607,3.607,0,0,1,3.263,0A1,1,0,0,1,410.1,109.21Z" transform="translate(-406.162 -98.31)" fill="#5793ce"/>
          </g>
          <g id="Grupo_109348" data-name="Grupo 109348">
            <rect id="Rectángulo_40322" data-name="Rectángulo 40322" width="7.478" height="15.619" fill="#5793ce"/>
            <path id="Trazado_117368" data-name="Trazado 117368" d="M406.162,98.174v3.371a5.97,5.97,0,0,0,4.615,0V98.174A5.97,5.97,0,0,0,406.162,98.174Z" transform="translate(-404.731 -82.656)" fill="#396caa"/>
            <path id="Trazado_117369" data-name="Trazado 117369" d="M410.773,99.423a5.843,5.843,0,0,1-5.288,0c-1.46-.843-1.46-2.21,0-3.053a5.841,5.841,0,0,1,5.287,0C412.233,97.213,412.233,98.579,410.773,99.423Z" transform="translate(-404.39 -82.276)" fill="#5793ce"/>
          </g>
        </g>
      </g>
      <g id="Grupo_109354" data-name="Grupo 109354" transform="translate(121.744 47.999)">
        <path id="Trazado_117370" data-name="Trazado 117370" d="M416.673,130.041a.646.646,0,0,1-.645-.645V102.833a.645.645,0,0,1,1.291,0V129.4A.645.645,0,0,1,416.673,130.041Z" transform="translate(-412.934 -87.283)" fill="#5793ce"/>
        <g id="Grupo_109353" data-name="Grupo 109353">
          <g id="Grupo_109351" data-name="Grupo 109351" transform="translate(1.431 13.88)">
            <rect id="Rectángulo_40323" data-name="Rectángulo 40323" width="4.615" height="9.959" transform="translate(0)" fill="#5793ce"/>
            <path id="Trazado_117371" data-name="Trazado 117371" d="M417.909,113.873a3.6,3.6,0,0,1-3.263,0,.994.994,0,0,1,0-1.884,3.607,3.607,0,0,1,3.263,0A.994.994,0,0,1,417.909,113.873Z" transform="translate(-413.97 -102.972)" fill="#5793ce"/>
          </g>
          <g id="Grupo_109352" data-name="Grupo 109352">
            <rect id="Rectángulo_40324" data-name="Rectángulo 40324" width="7.478" height="15.619" fill="#5793ce"/>
            <path id="Trazado_117372" data-name="Trazado 117372" d="M413.97,102.837v3.37a5.97,5.97,0,0,0,4.615,0v-3.37A5.97,5.97,0,0,0,413.97,102.837Z" transform="translate(-412.539 -87.318)" fill="#396caa"/>
            <path id="Trazado_117373" data-name="Trazado 117373" d="M418.581,104.085a5.843,5.843,0,0,1-5.288,0c-1.46-.843-1.46-2.21,0-3.053a5.848,5.848,0,0,1,5.288,0C420.041,101.875,420.042,103.241,418.581,104.085Z" transform="translate(-412.198 -86.939)" fill="#5793ce"/>
          </g>
        </g>
      </g>
      <g id="Grupo_109358" data-name="Grupo 109358" transform="translate(128.051 51.764)">
        <path id="Trazado_117374" data-name="Trazado 117374" d="M424.482,134.7a.645.645,0,0,1-.645-.645V107.5a.645.645,0,0,1,1.291,0v26.563A.645.645,0,0,1,424.482,134.7Z" transform="translate(-420.743 -91.945)" fill="#5793ce"/>
        <g id="Grupo_109357" data-name="Grupo 109357">
          <g id="Grupo_109355" data-name="Grupo 109355" transform="translate(1.431 13.88)">
            <rect id="Rectángulo_40325" data-name="Rectángulo 40325" width="4.615" height="9.959" transform="translate(0)" fill="#5793ce"/>
            <path id="Trazado_117375" data-name="Trazado 117375" d="M425.717,118.535a3.607,3.607,0,0,1-3.263,0,1,1,0,0,1,0-1.884,3.607,3.607,0,0,1,3.263,0A1,1,0,0,1,425.717,118.535Z" transform="translate(-421.778 -107.635)" fill="#5793ce"/>
          </g>
          <g id="Grupo_109356" data-name="Grupo 109356">
            <rect id="Rectángulo_40326" data-name="Rectángulo 40326" width="7.478" height="15.619" fill="#5793ce"/>
            <path id="Trazado_117376" data-name="Trazado 117376" d="M421.778,107.5v3.371a5.97,5.97,0,0,0,4.615,0V107.5A5.97,5.97,0,0,0,421.778,107.5Z" transform="translate(-420.347 -91.981)" fill="#396caa"/>
            <path id="Trazado_117377" data-name="Trazado 117377" d="M426.389,108.748a5.848,5.848,0,0,1-5.288,0c-1.46-.843-1.46-2.21,0-3.053a5.843,5.843,0,0,1,5.288,0C427.85,106.538,427.85,107.9,426.389,108.748Z" transform="translate(-420.006 -91.601)" fill="#5793ce"/>
          </g>
        </g>
      </g>
      <g id="Grupo_109362" data-name="Grupo 109362" transform="translate(134.357 55.53)">
        <path id="Trazado_117378" data-name="Trazado 117378" d="M432.289,139.366a.645.645,0,0,1-.645-.645V112.158a.645.645,0,0,1,1.291,0v26.563A.645.645,0,0,1,432.289,139.366Z" transform="translate(-428.551 -96.608)" fill="#5793ce"/>
        <g id="Grupo_109361" data-name="Grupo 109361">
          <g id="Grupo_109359" data-name="Grupo 109359" transform="translate(1.432 13.88)">
            <rect id="Rectángulo_40327" data-name="Rectángulo 40327" width="4.615" height="9.959" fill="#5793ce"/>
            <path id="Trazado_117379" data-name="Trazado 117379" d="M433.525,123.2a3.607,3.607,0,0,1-3.263,0,.994.994,0,0,1,0-1.884,3.6,3.6,0,0,1,3.263,0A.994.994,0,0,1,433.525,123.2Z" transform="translate(-429.587 -112.297)" fill="#5793ce"/>
          </g>
          <g id="Grupo_109360" data-name="Grupo 109360">
            <rect id="Rectángulo_40328" data-name="Rectángulo 40328" width="7.478" height="15.619" fill="#5793ce"/>
            <path id="Trazado_117380" data-name="Trazado 117380" d="M429.586,112.161v3.371a5.97,5.97,0,0,0,4.615,0v-3.371A5.977,5.977,0,0,0,429.586,112.161Z" transform="translate(-428.155 -96.643)" fill="#396caa"/>
            <path id="Trazado_117381" data-name="Trazado 117381" d="M434.2,113.41a5.843,5.843,0,0,1-5.288,0c-1.46-.843-1.46-2.21,0-3.053a5.843,5.843,0,0,1,5.288,0C435.658,111.2,435.658,112.566,434.2,113.41Z" transform="translate(-427.814 -96.264)" fill="#5793ce"/>
          </g>
        </g>
      </g>
      <g id="Grupo_109369" data-name="Grupo 109369" transform="translate(90.509)">
        <g id="Grupo_109365" data-name="Grupo 109365">
          <path id="Trazado_117382" data-name="Trazado 117382" d="M468.248,124.171l10.027-5.905-9.549-11.918-2.51,4.1Z" transform="translate(-391.351 -40.084)" fill="#5793ce"/>
          <path id="Trazado_117383" data-name="Trazado 117383" d="M378.592,45.237l16-9.207s-.6,9.188-.6,9.207-9.193,2.848-9.193,2.848Z" transform="translate(-374.5 -26.562)" fill="#5793ce"/>
          <path id="Trazado_117384" data-name="Trazado 117384" d="M457.016,78.424a10.09,10.09,0,0,0-3.463-1.283c-1.614-8.48-7.514-17.485-14.549-21.547a14.242,14.242,0,0,0-5.954-2.014c-.961-10.278-8.107-21.959-16.785-26.969-4.533-2.617-8.646-2.926-11.681-1.324V25.28l-.147.085c-.078.043-.154.087-.231.132l-9.436,5.573,3.135,2.476c-2.815,1.23-4.593,4.387-4.593,9.053,0,8.605,6.042,19.069,13.493,23.371l50.21,35.853c5.6,3.231,10.133.612,10.133-5.849S462.612,81.655,457.016,78.424Z" transform="translate(-377.331 -24.308)" fill="#5793ce"/>
          <path id="Trazado_117385" data-name="Trazado 117385" d="M393.89,38.811l21.658-12.654c-4.2-2.193-8-2.374-10.852-.869V25.28l-.147.085c-.078.043-.154.087-.231.132l-9.436,5.573,3.135,2.476A7.566,7.566,0,0,0,393.89,38.811Z" transform="translate(-377.442 -24.307)" fill="#5793ce"/>
          <path id="Trazado_117386" data-name="Trazado 117386" d="M439.484,83.288l15.8-9.274a30.612,30.612,0,0,0-10.574-11.169q-.82-.474-1.619-.833l-20.1,11.755Z" transform="translate(-383.039 -31.558)" fill="#5793ce"/>
          <path id="Trazado_117387" data-name="Trazado 117387" d="M400.631,32.2l7.042,4.066,12.9-7.6a25.658,25.658,0,0,0-2.9-1.964,18.094,18.094,0,0,0-4.507-1.893Z" transform="translate(-378.738 -24.405)" fill="#d4ecff"/>
          <path id="Trazado_117388" data-name="Trazado 117388" d="M457.814,73.494,445.2,80.926l4.387,4.893,11.449-6.76A36.691,36.691,0,0,0,457.814,73.494Z" transform="translate(-387.31 -33.766)" fill="#d4ecff"/>
          <path id="Trazado_117389" data-name="Trazado 117389" d="M443.3,85.649a10.076,10.076,0,0,0-3.463-1.283c-1.614-8.48-7.514-17.485-14.549-21.546a14.244,14.244,0,0,0-5.954-2.015c-.961-10.278-8.107-21.958-16.785-26.969-9.332-5.388-16.9-1.02-16.9,9.756,0,.365.01.734.027,1.1-6.825-3.165-12.157.4-12.157,8.485,0,8.605,6.041,19.069,13.493,23.371l56.284,32.5c5.6,3.232,10.133.612,10.133-5.849S448.9,88.88,443.3,85.649Z" transform="translate(-373.526 -25.696)" fill="#d4ecff"/>
          <g id="Grupo_109363" data-name="Grupo 109363" transform="translate(3.086 5.03)">
            <path id="Trazado_117390" data-name="Trazado 117390" d="M386.417,47.371c-.017-.371-.027-.74-.027-1.1,0-.015,0-.031,0-.046-3.77-1.466-7.01-.828-9.044,1.525C379.556,45.927,382.768,45.679,386.417,47.371Z" transform="translate(-377.347 -33.4)" fill="#fff"/>
            <path id="Trazado_117391" data-name="Trazado 117391" d="M447.906,84.654a10.089,10.089,0,0,0-3.463-1.283c-1.613-8.48-7.514-17.485-14.549-21.547a14.238,14.238,0,0,0-5.953-2.014c-.96-10.278-8.107-21.959-16.785-26.969-5.815-3.357-10.943-2.925-13.983.481,3.1-2.647,7.839-2.749,13.158.322,8.679,5.009,15.824,16.69,16.786,26.968a14.253,14.253,0,0,1,5.953,2.014c7.035,4.062,12.935,13.067,14.549,21.547a10.076,10.076,0,0,1,3.463,1.283c5.6,3.231,10.133,11.088,10.133,17.55A8.346,8.346,0,0,1,455.6,108.4c1.518-1.17,2.44-3.289,2.44-6.193C458.038,95.743,453.5,87.885,447.906,84.654Z" transform="translate(-380.39 -30.534)" fill="#fff"/>
          </g>
          <g id="Grupo_109364" data-name="Grupo 109364" transform="translate(2.829 8.654)">
            <path id="Trazado_117392" data-name="Trazado 117392" d="M385.165,47.935,389.4,49.9l-.216-4.658c-.015-.327-.024-.653-.024-.975,0-4.159,1.255-7.173,3.534-8.49s5.52-.895,9.121,1.183c7.745,4.472,14.5,15.357,15.383,24.782l.222,2.375,2.378.183a11.443,11.443,0,0,1,4.757,1.644c6.151,3.551,11.7,11.805,13.184,19.625l.372,1.958,1.968.308a7.322,7.322,0,0,1,2.487.939c4.725,2.728,8.718,9.643,8.718,15.1,0,2.042-.567,3.54-1.554,4.11s-2.567.311-4.336-.71l-56.284-32.5C382.56,71,377.028,61.414,377.028,53.853c0-2.967.875-5.227,2.4-6.2a4.106,4.106,0,0,1,2.243-.6A8.455,8.455,0,0,1,385.165,47.935Z" transform="translate(-377.028 -35.022)" fill="#396caa"/>
          </g>
        </g>
        <g id="Grupo_109368" data-name="Grupo 109368" transform="translate(26.782 36.003)">
          <path id="Trazado_117393" data-name="Trazado 117393" d="M421.882,94.242l1.485-.745-1.462-1.107Z" transform="translate(-409.607 -73.403)" fill="#5793ce"/>
          <path id="Trazado_117394" data-name="Trazado 117394" d="M416.362,69.678l1.441-.729.026.754Z" transform="translate(-408.546 -68.895)" fill="#5793ce"/>
          <path id="Trazado_117395" data-name="Trazado 117395" d="M426.8,88.043l1.5-.756-2.9-2.754Z" transform="translate(-410.285 -71.892)" fill="#5793ce"/>
          <g id="Grupo_109366" data-name="Grupo 109366" transform="translate(1.507)">
            <path id="Trazado_117396" data-name="Trazado 117396" d="M421.356,90.5l-7.03-4.139a1.5,1.5,0,0,1-.644-1.182l.023-8.138,8.322,4.9L422,90.075C422,90.518,421.712,90.707,421.356,90.5Z" transform="translate(-409.538 -70.451)" fill="#5793ce"/>
            <path id="Trazado_117397" data-name="Trazado 117397" d="M416.285,68.945l-7.592,4.886c-.322.207-.062.98.427,1.268l7.754,4.567,7.754,4.567c.489.288.754-.176.434-.762l-7.54-13.8C417.2,69.078,416.613,68.734,416.285,68.945Z" transform="translate(-408.551 -68.883)" fill="#5793ce"/>
          </g>
          <g id="Grupo_109367" data-name="Grupo 109367" transform="translate(0 0.759)">
            <path id="Trazado_117398" data-name="Trazado 117398" d="M419.489,91.436,412.46,87.3a1.5,1.5,0,0,1-.644-1.182l.023-8.138,8.321,4.9-.023,8.138C420.136,91.458,419.846,91.646,419.489,91.436Z" transform="translate(-407.672 -71.391)" fill="#d4ecff"/>
            <path id="Trazado_117399" data-name="Trazado 117399" d="M414.419,69.885l-7.592,4.885c-.322.208-.062.981.427,1.269l7.754,4.567,7.754,4.567c.49.288.754-.176.433-.762l-7.539-13.8C415.331,70.018,414.747,69.674,414.419,69.885Z" transform="translate(-406.685 -69.823)" fill="#d4ecff"/>
          </g>
        </g>
      </g>
      <path id="Trazado_117400" data-name="Trazado 117400" d="M452.547,255.409h-.861V207.3l5.681-3.28V180.333h.861v24.18l-5.681,3.28Z" transform="translate(-298.047 -54.312)" fill="#fff"/>
      <g id="Grupo_109370" data-name="Grupo 109370" transform="translate(0 175.975)">
        <path id="Trazado_117401" data-name="Trazado 117401" d="M279.387,277.7a2.951,2.951,0,0,1-1.455-.385l-15.7-8.889a1.507,1.507,0,0,1-.013-2.616l39.159-22.652a7.3,7.3,0,0,1,7.284,0l44.758,25.869-.646,1.119-44.758-25.869a6.009,6.009,0,0,0-5.992,0l-39.159,22.651a.216.216,0,0,0,0,.376l15.7,8.889a1.654,1.654,0,0,0,1.721-.05l6.634-4.29.7,1.084-6.634,4.29A2.947,2.947,0,0,1,279.387,277.7Z" transform="translate(-261.467 -242.18)" fill="#b2d3ea"/>
      </g>
      <g id="Grupo_109381" data-name="Grupo 109381" transform="translate(10.249 134.908)">
        <path id="Trazado_117402" data-name="Trazado 117402" d="M303.729,283.839l-21.1-12.184c-1.3-.748-1.132-2.054.363-2.917l20.377-11.766a5.617,5.617,0,0,1,5.054-.209l21.1,12.184c1.3.748,1.133,2.055-.363,2.918L308.783,283.63A5.617,5.617,0,0,1,303.729,283.839Z" transform="translate(-275.617 -203.82)" fill="#b2d3ea"/>
        <g id="Grupo_109372" data-name="Grupo 109372" transform="translate(0 29.143)">
          <path id="Trazado_117403" data-name="Trazado 117403" d="M335.064,257.182h0v-9.118l-20.446-.011-7.067-4.08a7.033,7.033,0,0,0-6.327.262l-6.594,3.807-20.465-.011v9.378a1.833,1.833,0,0,0,1.087,1.695l26.426,15.258a7.035,7.035,0,0,0,6.328-.263l25.517-14.732A2.506,2.506,0,0,0,335.064,257.182Z" transform="translate(-274.157 -230.48)" fill="#396caa"/>
          <path id="Trazado_117404" data-name="Trazado 117404" d="M304.615,243.347a7.293,7.293,0,0,0-3.392.889l-6.594,3.807-20.465-.011v9.378a1.833,1.833,0,0,0,1.087,1.695l26.426,15.258a5.722,5.722,0,0,0,2.937.627Z" transform="translate(-274.157 -230.481)" fill="#396caa"/>
          <path id="Trazado_117405" data-name="Trazado 117405" d="M276.482,249.149l-2.316,0v9.378a1.833,1.833,0,0,0,1.087,1.695l1.229.71Z" transform="translate(-274.157 -231.596)" fill="#5793ce"/>
          <path id="Trazado_117406" data-name="Trazado 117406" d="M308.734,279.445a7.212,7.212,0,0,0,5.059-.058V268.739h-5.059Z" transform="translate(-280.806 -235.364)" fill="#5793ce"/>
          <path id="Trazado_117407" data-name="Trazado 117407" d="M301.677,261.955,275.251,246.7c-1.622-.936-1.419-2.572.454-3.653l25.517-14.732a7.033,7.033,0,0,1,6.327-.263l26.427,15.257c1.622.937,1.418,2.573-.455,3.653l-25.517,14.732A7.035,7.035,0,0,1,301.677,261.955Z" transform="translate(-274.156 -227.417)" fill="#d4ecff"/>
          <path id="Trazado_117408" data-name="Trazado 117408" d="M303.328,259.887,281.182,247.1c-1.359-.784-1.189-2.156.38-3.061l21.384-12.346a5.894,5.894,0,0,1,5.3-.22L330.4,244.26c1.359.785,1.188,2.156-.381,3.062L308.63,259.667A5.892,5.892,0,0,1,303.328,259.887Z" transform="translate(-275.331 -228.096)" fill="#5793ce"/>
          <g id="Grupo_109371" data-name="Grupo 109371" transform="translate(49.053 24.382)">
            <path id="Trazado_117409" data-name="Trazado 117409" d="M337.023,263.277a2.361,2.361,0,0,1-1.068,1.849c-.59.34-1.067.064-1.067-.616a2.358,2.358,0,0,1,1.067-1.849C336.545,262.319,337.023,262.6,337.023,263.277Z" transform="translate(-334.888 -258.549)" fill="#d4ecff"/>
            <path id="Trazado_117410" data-name="Trazado 117410" d="M341.274,260.821a2.359,2.359,0,0,1-1.067,1.849c-.59.34-1.068.064-1.068-.616a2.359,2.359,0,0,1,1.068-1.849C340.8,259.864,341.274,260.141,341.274,260.821Z" transform="translate(-335.706 -258.077)" fill="#d4ecff"/>
            <path id="Trazado_117411" data-name="Trazado 117411" d="M345.526,258.367a2.359,2.359,0,0,1-1.067,1.849c-.59.34-1.068.065-1.068-.616a2.36,2.36,0,0,1,1.068-1.849C345.048,257.41,345.526,257.686,345.526,258.367Z" transform="translate(-336.523 -257.605)" fill="#d4ecff"/>
          </g>
        </g>
        <g id="Grupo_109374" data-name="Grupo 109374" transform="translate(0 14.572)">
          <path id="Trazado_117412" data-name="Trazado 117412" d="M335.064,239.141h0v-9.118l-20.446-.011-7.067-4.08a7.033,7.033,0,0,0-6.327.263L294.63,230l-20.465-.011v9.378a1.836,1.836,0,0,0,1.087,1.7l26.426,15.257a7.034,7.034,0,0,0,6.328-.263l25.517-14.732A2.506,2.506,0,0,0,335.064,239.141Z" transform="translate(-274.157 -212.439)" fill="#396caa"/>
          <path id="Trazado_117413" data-name="Trazado 117413" d="M304.615,225.306a7.283,7.283,0,0,0-3.392.889L294.63,230l-20.465-.011v9.378a1.836,1.836,0,0,0,1.087,1.7l26.426,15.257a5.729,5.729,0,0,0,2.937.627Z" transform="translate(-274.157 -212.44)" fill="#396caa"/>
          <path id="Trazado_117414" data-name="Trazado 117414" d="M276.482,231.108l-2.316,0v9.378a1.836,1.836,0,0,0,1.087,1.7l1.229.709Z" transform="translate(-274.157 -213.555)" fill="#5793ce"/>
          <path id="Trazado_117415" data-name="Trazado 117415" d="M308.734,261.4a7.212,7.212,0,0,0,5.059-.058V250.7h-5.059Z" transform="translate(-280.806 -217.323)" fill="#5793ce"/>
          <path id="Trazado_117416" data-name="Trazado 117416" d="M301.677,243.914l-26.426-15.257c-1.622-.936-1.419-2.572.454-3.653l25.517-14.732a7.033,7.033,0,0,1,6.327-.262l26.427,15.257c1.622.937,1.418,2.572-.455,3.654l-25.517,14.732A7.034,7.034,0,0,1,301.677,243.914Z" transform="translate(-274.156 -209.376)" fill="#d4ecff"/>
          <path id="Trazado_117417" data-name="Trazado 117417" d="M303.328,241.846,281.182,229.06c-1.359-.785-1.189-2.156.38-3.061l21.384-12.346a5.9,5.9,0,0,1,5.3-.22L330.4,226.219c1.359.785,1.188,2.156-.381,3.062L308.63,241.626A5.892,5.892,0,0,1,303.328,241.846Z" transform="translate(-275.331 -210.055)" fill="#5793ce"/>
          <g id="Grupo_109373" data-name="Grupo 109373" transform="translate(49.053 24.382)">
            <path id="Trazado_117418" data-name="Trazado 117418" d="M337.023,245.236a2.361,2.361,0,0,1-1.068,1.849c-.59.34-1.067.064-1.067-.616a2.358,2.358,0,0,1,1.067-1.849C336.545,244.278,337.023,244.555,337.023,245.236Z" transform="translate(-334.888 -240.508)" fill="#d4ecff"/>
            <path id="Trazado_117419" data-name="Trazado 117419" d="M341.274,242.781a2.359,2.359,0,0,1-1.067,1.849c-.59.34-1.068.065-1.068-.616a2.359,2.359,0,0,1,1.068-1.849C340.8,241.824,341.274,242.1,341.274,242.781Z" transform="translate(-335.706 -240.036)" fill="#d4ecff"/>
            <path id="Trazado_117420" data-name="Trazado 117420" d="M345.526,240.326a2.358,2.358,0,0,1-1.067,1.849c-.59.34-1.068.065-1.068-.616a2.359,2.359,0,0,1,1.068-1.849C345.048,239.369,345.526,239.645,345.526,240.326Z" transform="translate(-336.523 -239.564)" fill="#d4ecff"/>
          </g>
        </g>
        <g id="Grupo_109377" data-name="Grupo 109377">
          <path id="Trazado_117421" data-name="Trazado 117421" d="M335.064,221.1h0v-9.118l-20.446-.011-7.067-4.08a7.033,7.033,0,0,0-6.327.262l-6.594,3.807-20.465-.011v9.378a1.835,1.835,0,0,0,1.087,1.7l26.426,15.257a7.034,7.034,0,0,0,6.328-.262l25.517-14.732A2.506,2.506,0,0,0,335.064,221.1Z" transform="translate(-274.157 -194.398)" fill="#396caa"/>
          <path id="Trazado_117422" data-name="Trazado 117422" d="M304.615,207.265a7.293,7.293,0,0,0-3.392.889l-6.594,3.807-20.465-.011v9.378a1.835,1.835,0,0,0,1.087,1.7l26.426,15.257a5.73,5.73,0,0,0,2.937.628Z" transform="translate(-274.157 -194.399)" fill="#396caa"/>
          <path id="Trazado_117423" data-name="Trazado 117423" d="M276.482,213.067l-2.316,0v9.378a1.835,1.835,0,0,0,1.087,1.7l1.229.709Z" transform="translate(-274.157 -195.514)" fill="#5793ce"/>
          <path id="Trazado_117424" data-name="Trazado 117424" d="M308.734,243.363a7.212,7.212,0,0,0,5.059-.058V232.657h-5.059Z" transform="translate(-280.806 -199.282)" fill="#5793ce"/>
          <path id="Trazado_117425" data-name="Trazado 117425" d="M301.677,225.873l-26.426-15.257c-1.622-.936-1.419-2.572.454-3.653l25.517-14.732a7.033,7.033,0,0,1,6.327-.262l26.427,15.257c1.622.937,1.418,2.572-.455,3.654L308.006,225.61A7.032,7.032,0,0,1,301.677,225.873Z" transform="translate(-274.156 -191.335)" fill="#d4ecff"/>
          <path id="Trazado_117426" data-name="Trazado 117426" d="M333.522,213.038l-25.517,14.732a7.034,7.034,0,0,1-6.328.263l-26.426-15.258a2.431,2.431,0,0,1-.809-.718,1.7,1.7,0,0,0,.809,2.513l26.426,15.257a7.032,7.032,0,0,0,6.328-.262l25.517-14.732c1.455-.841,1.9-2.014,1.264-2.936A3.538,3.538,0,0,1,333.522,213.038Z" transform="translate(-274.156 -195.29)" fill="#fff"/>
          <g id="Grupo_109375" data-name="Grupo 109375" transform="translate(49.053 24.382)">
            <path id="Trazado_117427" data-name="Trazado 117427" d="M337.023,227.195a2.361,2.361,0,0,1-1.068,1.849c-.59.34-1.067.064-1.067-.616a2.358,2.358,0,0,1,1.067-1.849C336.545,226.237,337.023,226.514,337.023,227.195Z" transform="translate(-334.888 -222.467)" fill="#d4ecff"/>
            <path id="Trazado_117428" data-name="Trazado 117428" d="M341.274,224.74a2.359,2.359,0,0,1-1.067,1.849c-.59.34-1.068.065-1.068-.616a2.359,2.359,0,0,1,1.068-1.849C340.8,223.783,341.274,224.059,341.274,224.74Z" transform="translate(-335.706 -221.995)" fill="#d4ecff"/>
            <path id="Trazado_117429" data-name="Trazado 117429" d="M345.526,222.285a2.358,2.358,0,0,1-1.067,1.849c-.59.34-1.068.065-1.068-.616a2.359,2.359,0,0,1,1.068-1.849C345.048,221.328,345.526,221.6,345.526,222.285Z" transform="translate(-336.523 -221.523)" fill="#d4ecff"/>
          </g>
          <g id="Grupo_109376" data-name="Grupo 109376" transform="translate(16.205 8.916)">
            <path id="Trazado_117430" data-name="Trazado 117430" d="M307.1,218.537l-12.367-7.14c-.758-.438-.664-1.2.212-1.71l11.941-6.894a3.291,3.291,0,0,1,2.961-.123l12.367,7.14c.759.438.664,1.2-.212,1.709l-11.941,6.894A3.293,3.293,0,0,1,307.1,218.537Z" transform="translate(-294.22 -202.375)" fill="#5793ce"/>
            <path id="Trazado_117431" data-name="Trazado 117431" d="M311.207,214.451l-1.712-.988c-.105-.061-.091-.166.03-.237l1.652-.953a.455.455,0,0,1,.41-.018l1.711.988c.105.061.091.167-.03.237l-1.652.954A.454.454,0,0,1,311.207,214.451Z" transform="translate(-297.144 -204.267)" fill="#d4ecff"/>
            <path id="Trazado_117432" data-name="Trazado 117432" d="M294.732,211.4l.036.02a2,2,0,0,1,.177-.122l11.941-6.894a3.293,3.293,0,0,1,2.961-.123l12.332,7.12c.7-.5.736-1.182.035-1.587l-12.367-7.14a3.291,3.291,0,0,0-2.961.123l-11.941,6.894C294.068,210.193,293.974,210.959,294.732,211.4Z" transform="translate(-294.22 -202.375)" fill="#396caa"/>
          </g>
        </g>
        <g id="Grupo_109378" data-name="Grupo 109378" transform="translate(22.153 34.582)">
          <path id="Trazado_117433" data-name="Trazado 117433" d="M305.78,237.075c0,.458-.322.644-.719.415a1.589,1.589,0,0,1-.718-1.245c0-.458.321-.644.718-.414A1.589,1.589,0,0,1,305.78,237.075Z" transform="translate(-302.115 -234.456)" fill="#d4ecff"/>
          <path id="Trazado_117434" data-name="Trazado 117434" d="M303.021,235.493c0,.458-.321.644-.719.414a1.587,1.587,0,0,1-.718-1.244c0-.458.321-.644.718-.414A1.585,1.585,0,0,1,303.021,235.493Z" transform="translate(-301.584 -234.151)" fill="#d4ecff"/>
          <path id="Trazado_117435" data-name="Trazado 117435" d="M305.78,240.405c0,.458-.322.644-.719.414a1.587,1.587,0,0,1-.718-1.244c0-.458.321-.644.718-.415A1.59,1.59,0,0,1,305.78,240.405Z" transform="translate(-302.115 -235.096)" fill="#d4ecff"/>
          <path id="Trazado_117436" data-name="Trazado 117436" d="M303.021,238.822c0,.459-.321.644-.719.415a1.588,1.588,0,0,1-.718-1.245c0-.458.321-.644.718-.414A1.587,1.587,0,0,1,303.021,238.822Z" transform="translate(-301.584 -234.791)" fill="#d4ecff"/>
        </g>
        <g id="Grupo_109379" data-name="Grupo 109379" transform="translate(22.153 49.081)">
          <path id="Trazado_117437" data-name="Trazado 117437" d="M305.78,255.027c0,.458-.322.644-.719.414a1.588,1.588,0,0,1-.718-1.244c0-.458.321-.644.718-.415A1.59,1.59,0,0,1,305.78,255.027Z" transform="translate(-302.115 -252.407)" fill="#d4ecff"/>
          <path id="Trazado_117438" data-name="Trazado 117438" d="M303.021,253.445c0,.459-.321.644-.719.415a1.588,1.588,0,0,1-.718-1.245c0-.458.321-.643.718-.414A1.587,1.587,0,0,1,303.021,253.445Z" transform="translate(-301.584 -252.103)" fill="#d4ecff"/>
          <path id="Trazado_117439" data-name="Trazado 117439" d="M305.78,258.356c0,.458-.322.644-.719.415a1.589,1.589,0,0,1-.718-1.245c0-.458.321-.644.718-.414A1.588,1.588,0,0,1,305.78,258.356Z" transform="translate(-302.115 -253.047)" fill="#d4ecff"/>
          <path id="Trazado_117440" data-name="Trazado 117440" d="M303.021,256.774c0,.458-.321.644-.719.414a1.587,1.587,0,0,1-.718-1.244c0-.458.321-.644.718-.415A1.588,1.588,0,0,1,303.021,256.774Z" transform="translate(-301.584 -252.743)" fill="#d4ecff"/>
        </g>
        <g id="Grupo_109380" data-name="Grupo 109380" transform="translate(22.153 63.58)">
          <path id="Trazado_117441" data-name="Trazado 117441" d="M305.78,272.978c0,.458-.322.644-.719.414a1.587,1.587,0,0,1-.718-1.244c0-.458.321-.644.718-.414A1.588,1.588,0,0,1,305.78,272.978Z" transform="translate(-302.115 -270.358)" fill="#d4ecff"/>
          <path id="Trazado_117442" data-name="Trazado 117442" d="M303.021,271.4c0,.458-.321.644-.719.414a1.587,1.587,0,0,1-.718-1.244c0-.458.321-.644.718-.415A1.588,1.588,0,0,1,303.021,271.4Z" transform="translate(-301.584 -270.054)" fill="#d4ecff"/>
          <path id="Trazado_117443" data-name="Trazado 117443" d="M305.78,276.308c0,.458-.322.644-.719.414a1.588,1.588,0,0,1-.718-1.244c0-.459.321-.644.718-.415A1.589,1.589,0,0,1,305.78,276.308Z" transform="translate(-302.115 -270.999)" fill="#d4ecff"/>
          <path id="Trazado_117444" data-name="Trazado 117444" d="M303.021,274.725c0,.458-.321.644-.719.415a1.589,1.589,0,0,1-.718-1.245c0-.458.321-.644.718-.414A1.585,1.585,0,0,1,303.021,274.725Z" transform="translate(-301.584 -270.694)" fill="#d4ecff"/>
        </g>
      </g>
      <path id="Trazado_117445" data-name="Trazado 117445" d="M308.428,299.755a4.351,4.351,0,0,1-2.186-.586l-13.316-7.728a1.451,1.451,0,0,1,0-2.51l8.757-5.079.649,1.116-8.758,5.08a.16.16,0,0,0,0,.276l13.317,7.729a3.078,3.078,0,0,0,3.053.011L336.027,283.2a4.374,4.374,0,0,1,4.344.018l21.849,12.619a3.066,3.066,0,0,0,3.074,0l10.535-6.092.647,1.119-10.535,6.092a4.362,4.362,0,0,1-4.369-.006l-21.848-12.619a3.077,3.077,0,0,0-3.058-.014l-26.083,14.863A4.349,4.349,0,0,1,308.428,299.755Z" transform="translate(-267.378 -73.985)" fill="#b2d3ea"/>
      <g id="Grupo_109389" data-name="Grupo 109389" transform="translate(128.619 194.918)">
        <path id="Trazado_117446" data-name="Trazado 117446" d="M450.283,358.138l-21.1-12.184c-1.3-.748-1.133-2.054.363-2.917l20.377-11.765a5.617,5.617,0,0,1,5.054-.21l21.1,12.185c1.3.747,1.133,2.054-.363,2.917l-20.377,11.765A5.617,5.617,0,0,1,450.283,358.138Z" transform="translate(-422.17 -278.119)" fill="#b2d3ea"/>
        <g id="Grupo_109383" data-name="Grupo 109383" transform="translate(0 29.143)">
          <path id="Trazado_117447" data-name="Trazado 117447" d="M481.618,331.482h0v-9.119l-20.446-.011-7.067-4.08a7.03,7.03,0,0,0-6.328.262l-6.594,3.807-20.465-.011v9.378a1.835,1.835,0,0,0,1.087,1.7l26.426,15.257a7.034,7.034,0,0,0,6.328-.262l25.517-14.732A2.505,2.505,0,0,0,481.618,331.482Z" transform="translate(-420.711 -304.779)" fill="#396caa"/>
          <path id="Trazado_117448" data-name="Trazado 117448" d="M451.169,317.646a7.293,7.293,0,0,0-3.392.889l-6.594,3.807-20.465-.011v9.378a1.835,1.835,0,0,0,1.087,1.7l26.426,15.257a5.73,5.73,0,0,0,2.937.628Z" transform="translate(-420.711 -304.78)" fill="#396caa"/>
          <path id="Trazado_117449" data-name="Trazado 117449" d="M423.036,323.448l-2.316,0v9.378a1.835,1.835,0,0,0,1.087,1.7l1.229.709Z" transform="translate(-420.711 -305.895)" fill="#5793ce"/>
          <path id="Trazado_117450" data-name="Trazado 117450" d="M455.288,353.744a7.208,7.208,0,0,0,5.059-.058V343.038h-5.059Z" transform="translate(-427.359 -309.663)" fill="#5793ce"/>
          <path id="Trazado_117451" data-name="Trazado 117451" d="M448.231,336.254,421.805,321c-1.623-.936-1.419-2.572.454-3.653l25.517-14.732a7.033,7.033,0,0,1,6.327-.263l26.427,15.257c1.622.937,1.418,2.573-.455,3.654L454.56,335.992A7.034,7.034,0,0,1,448.231,336.254Z" transform="translate(-420.71 -301.716)" fill="#d4ecff"/>
          <path id="Trazado_117452" data-name="Trazado 117452" d="M449.882,334.186,427.736,321.4c-1.359-.784-1.189-2.155.38-3.061L449.5,305.993a5.9,5.9,0,0,1,5.3-.221l22.146,12.786c1.359.785,1.188,2.156-.381,3.062l-21.384,12.346A5.892,5.892,0,0,1,449.882,334.186Z" transform="translate(-421.884 -302.395)" fill="#5793ce"/>
          <g id="Grupo_109382" data-name="Grupo 109382" transform="translate(49.053 24.382)">
            <path id="Trazado_117453" data-name="Trazado 117453" d="M483.577,337.576a2.36,2.36,0,0,1-1.068,1.849c-.59.34-1.067.065-1.067-.616a2.358,2.358,0,0,1,1.067-1.849C483.1,336.619,483.577,336.895,483.577,337.576Z" transform="translate(-481.442 -332.848)" fill="#d4ecff"/>
            <path id="Trazado_117454" data-name="Trazado 117454" d="M487.828,335.121a2.358,2.358,0,0,1-1.067,1.849c-.59.34-1.068.065-1.068-.616a2.36,2.36,0,0,1,1.068-1.849C487.35,334.164,487.828,334.44,487.828,335.121Z" transform="translate(-482.259 -332.376)" fill="#d4ecff"/>
            <path id="Trazado_117455" data-name="Trazado 117455" d="M492.08,332.666a2.358,2.358,0,0,1-1.067,1.849c-.59.34-1.068.065-1.068-.616a2.36,2.36,0,0,1,1.068-1.849C491.6,331.709,492.08,331.985,492.08,332.666Z" transform="translate(-483.077 -331.904)" fill="#d4ecff"/>
          </g>
        </g>
        <g id="Grupo_109385" data-name="Grupo 109385" transform="translate(0 14.572)">
          <path id="Trazado_117456" data-name="Trazado 117456" d="M481.618,313.441h0v-9.119l-20.446-.011-7.067-4.08a7.035,7.035,0,0,0-6.328.262l-6.594,3.807-20.465-.012v9.378a1.835,1.835,0,0,0,1.087,1.7l26.426,15.257a7.034,7.034,0,0,0,6.328-.263l25.517-14.732A2.505,2.505,0,0,0,481.618,313.441Z" transform="translate(-420.711 -286.738)" fill="#396caa"/>
          <path id="Trazado_117457" data-name="Trazado 117457" d="M451.169,299.605a7.293,7.293,0,0,0-3.392.889l-6.594,3.807-20.465-.012v9.378a1.835,1.835,0,0,0,1.087,1.7l26.426,15.257a5.73,5.73,0,0,0,2.937.628Z" transform="translate(-420.711 -286.739)" fill="#396caa"/>
          <path id="Trazado_117458" data-name="Trazado 117458" d="M423.036,305.407l-2.316,0v9.378a1.835,1.835,0,0,0,1.087,1.7l1.229.71Z" transform="translate(-420.711 -287.854)" fill="#5793ce"/>
          <path id="Trazado_117459" data-name="Trazado 117459" d="M455.288,335.7a7.212,7.212,0,0,0,5.059-.058V325h-5.059Z" transform="translate(-427.359 -291.622)" fill="#5793ce"/>
          <path id="Trazado_117460" data-name="Trazado 117460" d="M448.231,318.213l-26.426-15.257c-1.623-.936-1.419-2.572.454-3.653l25.517-14.732a7.033,7.033,0,0,1,6.327-.262l26.427,15.258c1.622.936,1.418,2.572-.455,3.653L454.56,317.951A7.034,7.034,0,0,1,448.231,318.213Z" transform="translate(-420.71 -283.675)" fill="#d4ecff"/>
          <path id="Trazado_117461" data-name="Trazado 117461" d="M449.882,316.145l-22.145-12.786c-1.359-.784-1.189-2.155.38-3.061L449.5,287.952a5.9,5.9,0,0,1,5.3-.22l22.146,12.787c1.359.784,1.188,2.155-.381,3.061l-21.384,12.346A5.892,5.892,0,0,1,449.882,316.145Z" transform="translate(-421.884 -284.354)" fill="#5793ce"/>
          <g id="Grupo_109384" data-name="Grupo 109384" transform="translate(49.053 24.382)">
            <path id="Trazado_117462" data-name="Trazado 117462" d="M483.577,319.535a2.36,2.36,0,0,1-1.068,1.849c-.59.34-1.067.065-1.067-.616a2.358,2.358,0,0,1,1.067-1.849C483.1,318.578,483.577,318.854,483.577,319.535Z" transform="translate(-481.442 -314.807)" fill="#d4ecff"/>
            <path id="Trazado_117463" data-name="Trazado 117463" d="M487.828,317.08a2.358,2.358,0,0,1-1.067,1.849c-.59.34-1.068.065-1.068-.616a2.36,2.36,0,0,1,1.068-1.849C487.35,316.123,487.828,316.4,487.828,317.08Z" transform="translate(-482.259 -314.335)" fill="#d4ecff"/>
            <path id="Trazado_117464" data-name="Trazado 117464" d="M492.08,314.625a2.358,2.358,0,0,1-1.067,1.849c-.59.34-1.068.065-1.068-.616a2.36,2.36,0,0,1,1.068-1.849C491.6,313.668,492.08,313.944,492.08,314.625Z" transform="translate(-483.077 -313.863)" fill="#d4ecff"/>
          </g>
        </g>
        <g id="Grupo_109388" data-name="Grupo 109388">
          <path id="Trazado_117465" data-name="Trazado 117465" d="M481.618,295.4h0v-9.119l-20.446-.011-7.067-4.08a7.032,7.032,0,0,0-6.328.262l-6.594,3.807-20.465-.011v9.378a1.835,1.835,0,0,0,1.087,1.7l26.426,15.257a7.034,7.034,0,0,0,6.328-.263l25.517-14.732A2.505,2.505,0,0,0,481.618,295.4Z" transform="translate(-420.711 -268.697)" fill="#396caa"/>
          <path id="Trazado_117466" data-name="Trazado 117466" d="M451.169,281.564a7.3,7.3,0,0,0-3.392.889l-6.594,3.807-20.465-.011v9.378a1.835,1.835,0,0,0,1.087,1.7l26.426,15.257a5.73,5.73,0,0,0,2.937.628Z" transform="translate(-420.711 -268.698)" fill="#396caa"/>
          <path id="Trazado_117467" data-name="Trazado 117467" d="M423.036,287.366l-2.316,0v9.378a1.835,1.835,0,0,0,1.087,1.7l1.229.71Z" transform="translate(-420.711 -269.813)" fill="#5793ce"/>
          <path id="Trazado_117468" data-name="Trazado 117468" d="M455.288,317.662a7.208,7.208,0,0,0,5.059-.058V306.957h-5.059Z" transform="translate(-427.359 -273.581)" fill="#5793ce"/>
          <path id="Trazado_117469" data-name="Trazado 117469" d="M448.231,300.173l-26.426-15.258c-1.623-.936-1.419-2.572.454-3.653l25.517-14.732a7.033,7.033,0,0,1,6.327-.263l26.427,15.258c1.622.936,1.418,2.572-.455,3.653L454.56,299.91A7.037,7.037,0,0,1,448.231,300.173Z" transform="translate(-420.71 -265.634)" fill="#d4ecff"/>
          <path id="Trazado_117470" data-name="Trazado 117470" d="M480.076,287.337,454.56,302.07a7.034,7.034,0,0,1-6.328.263l-26.426-15.257a2.449,2.449,0,0,1-.809-.718,1.7,1.7,0,0,0,.809,2.512l26.426,15.258a7.037,7.037,0,0,0,6.328-.262l25.517-14.732c1.455-.841,1.9-2.014,1.264-2.935A3.537,3.537,0,0,1,480.076,287.337Z" transform="translate(-420.71 -269.589)" fill="#fff"/>
          <g id="Grupo_109386" data-name="Grupo 109386" transform="translate(49.053 24.382)">
            <path id="Trazado_117471" data-name="Trazado 117471" d="M483.577,301.494a2.36,2.36,0,0,1-1.068,1.849c-.59.34-1.067.065-1.067-.616a2.358,2.358,0,0,1,1.067-1.849C483.1,300.537,483.577,300.813,483.577,301.494Z" transform="translate(-481.442 -296.766)" fill="#d4ecff"/>
            <path id="Trazado_117472" data-name="Trazado 117472" d="M487.828,299.039a2.358,2.358,0,0,1-1.067,1.849c-.59.34-1.068.065-1.068-.616a2.36,2.36,0,0,1,1.068-1.849C487.35,298.082,487.828,298.358,487.828,299.039Z" transform="translate(-482.259 -296.294)" fill="#d4ecff"/>
            <path id="Trazado_117473" data-name="Trazado 117473" d="M492.08,296.584a2.358,2.358,0,0,1-1.067,1.849c-.59.341-1.068.065-1.068-.616a2.361,2.361,0,0,1,1.068-1.849C491.6,295.627,492.08,295.9,492.08,296.584Z" transform="translate(-483.077 -295.822)" fill="#d4ecff"/>
          </g>
          <g id="Grupo_109387" data-name="Grupo 109387" transform="translate(16.205 8.917)">
            <path id="Trazado_117474" data-name="Trazado 117474" d="M453.653,292.836l-12.367-7.14c-.759-.438-.664-1.2.212-1.709l11.941-6.894a3.293,3.293,0,0,1,2.961-.123l12.367,7.14c.759.438.664,1.2-.212,1.709l-11.941,6.894A3.293,3.293,0,0,1,453.653,292.836Z" transform="translate(-440.773 -276.674)" fill="#5793ce"/>
            <path id="Trazado_117475" data-name="Trazado 117475" d="M457.761,288.75l-1.711-.988c-.105-.061-.091-.166.03-.236l1.652-.954a.454.454,0,0,1,.41-.017l1.711.988c.105.061.091.166-.03.237l-1.652.954A.454.454,0,0,1,457.761,288.75Z" transform="translate(-443.697 -278.566)" fill="#d4ecff"/>
            <path id="Trazado_117476" data-name="Trazado 117476" d="M441.286,285.7l.035.02c.058-.041.111-.083.178-.122l11.941-6.894a3.288,3.288,0,0,1,2.961-.123l12.332,7.119c.7-.5.736-1.182.035-1.587L456.4,276.97a3.293,3.293,0,0,0-2.961.123L441.5,283.987C440.622,284.492,440.527,285.258,441.286,285.7Z" transform="translate(-440.773 -276.674)" fill="#396caa"/>
          </g>
        </g>
      </g>
      <path id="Trazado_117477" data-name="Trazado 117477" d="M407.8,106.128c0,.458-.321.644-.718.415a1.588,1.588,0,0,1-.719-1.245c0-.458.321-.644.719-.414A1.588,1.588,0,0,1,407.8,106.128Z" transform="translate(-289.331 -39.784)" fill="#d4ecff"/>
      <path id="Trazado_117478" data-name="Trazado 117478" d="M415.633,110.878c0,.458-.321.644-.718.415a1.589,1.589,0,0,1-.718-1.245c0-.458.321-.644.718-.414A1.588,1.588,0,0,1,415.633,110.878Z" transform="translate(-290.838 -40.697)" fill="#d4ecff"/>
      <path id="Trazado_117479" data-name="Trazado 117479" d="M423.467,115.628c0,.458-.322.644-.719.415a1.589,1.589,0,0,1-.718-1.245c0-.458.321-.644.718-.414A1.589,1.589,0,0,1,423.467,115.628Z" transform="translate(-292.344 -41.611)" fill="#d4ecff"/>
      <path id="Trazado_117480" data-name="Trazado 117480" d="M431.3,120.378c0,.458-.321.644-.718.415a1.588,1.588,0,0,1-.719-1.245c0-.458.321-.644.719-.414A1.588,1.588,0,0,1,431.3,120.378Z" transform="translate(-293.851 -42.524)" fill="#d4ecff"/>
    </g>
    <path id="Trazado_117481" data-name="Trazado 117481" d="M413.294,115.772a.646.646,0,1,1-.646-.646A.646.646,0,0,1,413.294,115.772Z" transform="translate(-28.949 -17.465)" fill="#d4ecff"/>
    <path id="Trazado_117482" data-name="Trazado 117482" d="M420.6,120.147a.646.646,0,1,1-.646-.646A.646.646,0,0,1,420.6,120.147Z" transform="translate(-30.353 -18.306)" fill="#d4ecff"/>
    <circle id="Elipse_7031" data-name="Elipse 7031" cx="0.646" cy="0.646" r="0.646" transform="translate(394.851 104.729)" fill="#d4ecff"/>
    <path id="Trazado_117483" data-name="Trazado 117483" d="M435.2,128.727a.646.646,0,1,1-.645-.646A.646.646,0,0,1,435.2,128.727Z" transform="translate(-33.162 -19.956)" fill="#d4ecff"/>
  </g>
</svg>
