<svg xmlns="http://www.w3.org/2000/svg" width="47.791" height="102.066" viewBox="0 0 47.791 102.066">
  <g id="Grupo_108389" data-name="Grupo 108389" transform="translate(-1290.738 -363.823)">
    <path id="Trazado_113852" data-name="Trazado 113852" d="M1338.53,438.3l-47.791,27.592V397.614l47.791-27.592Z" fill="#403642" opacity="0.9"/>
    <path id="Trazado_113853" data-name="Trazado 113853" d="M1338.53,371l-47.791,27.592v-7.173l47.791-27.592Z" fill="#5f75e0"/>
    <path id="Trazado_113854" data-name="Trazado 113854" d="M1297.071,401.039l-2.444,1.41v-1.182l2.444-1.411Zm5.165-4.165-3.576,2.064v1.183l3.576-2.065Zm7.036-4.062-5.446,3.144v1.183l5.446-3.145Zm8.514-4.916-6.925,4v1.183l6.925-4Zm1.589-.917v1.182l3.029-1.748V385.23Zm-19.258,14.329-5.49,3.169v1.183l5.49-3.17Zm5.166-2.982-3.576,2.064v1.183l3.576-2.065Zm5.96-3.441-4.371,2.523v1.182l4.371-2.523Zm4.3-2.482-2.708,1.564v1.182l2.708-1.563Zm1.59-.917v1.182l4.514-2.606v-1.183Zm-20.059,14.791-2.444,1.411v1.183l2.444-1.411Zm5.165-2.982-3.576,2.065v1.182l3.576-2.065Zm5.3-3.059-3.708,2.141v1.183l3.708-2.141Zm11.627-6.712-10.037,5.8V400.5l10.037-5.8Zm-19.044,14.205-5.49,3.17v1.182l5.49-3.169Zm5.166-2.982-3.576,2.064v1.183l3.576-2.065Zm5.96-3.441-4.371,2.523v1.183l4.371-2.524Zm4.3-2.481-2.708,1.563v1.183l2.708-1.564ZM1297.071,412.7l-2.444,1.411v1.183l2.444-1.411Zm5.165-2.982-3.576,2.065v1.182l3.576-2.064Zm6.888-3.976-5.3,3.059v1.182l5.3-3.059Zm-12.053,37.926-2.444,1.411v-1.183l2.444-1.411Zm5.165-4.165-3.576,2.065v1.182l3.576-2.065Zm-2.119,4.434-5.49,3.17v1.182l5.49-3.17Zm-3.046,4.969-2.444,1.411V451.5l2.444-1.411Zm5.165-2.982-3.576,2.065v1.182l3.576-2.065Zm-2.119,4.434-5.49,3.17v1.182l5.49-3.169Zm-3.046,4.969-2.444,1.411v1.183l2.444-1.411Zm0-35.519-2.444,1.411V422.4l2.444-1.411Zm5.165-2.982-3.576,2.064v1.183l3.576-2.065Zm8.96-5.173-7.37,4.255v1.183l7.37-4.256Zm-11.079,9.607-5.49,3.169v1.183l5.49-3.17Zm5.166-2.983-3.576,2.065v1.183l3.576-2.065Zm3.485-2.012-1.9,1.1v1.182l1.9-1.094Zm-11.7,16.344-2.444,1.411V435.2l2.444-1.411Zm3.791-2.188-2.2,1.271v1.182l2.2-1.271Zm5.66-3.268-4.071,2.35v1.183l4.071-2.351Zm-7.78,7.7-4.115,2.376v1.182l4.115-2.376Zm3.516-2.03-1.926,1.112v1.183l1.926-1.112Zm2.661-1.536-1.072.618v1.183l1.072-.619Zm-7.848-5.24-2.444,1.411v1.182l2.444-1.411Zm3.791-2.189-2.2,1.271v1.183l2.2-1.271Zm-2.12,4.434-4.115,2.376v1.183l4.115-2.376Z" fill="#a494a8" opacity="0.9"/>
  </g>
</svg>
