<svg xmlns="http://www.w3.org/2000/svg" width="250.461" height="275.092" viewBox="0 0 250.461 275.092">
  <g id="Grupo_109267" data-name="Grupo 109267" transform="translate(-308.438 -98.81)">
    <path id="Trazado_116798" data-name="Trazado 116798" d="M326.75,274.684a.779.779,0,0,1-.361-.089l-16.929-8.8a1.9,1.9,0,0,1-.036-3.346l16.8-9.193a.329.329,0,0,0,0-.575l-16.595-9.232a1.9,1.9,0,0,1-.055-3.282l23.348-14.026a5.669,5.669,0,0,1,5.7-.072l12.975,7.354a.784.784,0,0,1-.772,1.364l-12.975-7.353a4.089,4.089,0,0,0-4.119.051L310.38,241.512a.329.329,0,0,0,.009.569l16.594,9.231a1.9,1.9,0,0,1-.011,3.321l-16.8,9.193a.316.316,0,0,0-.17.292.313.313,0,0,0,.176.287l16.929,8.8a.784.784,0,0,1-.362,1.48Z" transform="translate(0 31.322)" fill="#5793ce"/>
    <g id="Grupo_109204" data-name="Grupo 109204" transform="translate(320.318 301.046)">
      <g id="Grupo_109203" data-name="Grupo 109203">
        <g id="Grupo_109202" data-name="Grupo 109202">
          <g id="Grupo_109200" data-name="Grupo 109200">
            <rect id="Rectángulo_40298" data-name="Rectángulo 40298" width="4.202" height="9.068" transform="translate(10.395 4.608) rotate(119.831)" fill="#5793ce"/>
            <path id="Trazado_116799" data-name="Trazado 116799" d="M317.961,263.7a3.281,3.281,0,0,1,1.478-2.577c.82-.477,1.486-.095,1.488.853a3.285,3.285,0,0,1-1.478,2.577C318.631,265.029,317.964,264.646,317.961,263.7Z" transform="translate(-317.961 -260.917)" fill="#5793ce"/>
          </g>
          <g id="Grupo_109201" data-name="Grupo 109201" transform="translate(4.349 2.34)">
            <rect id="Rectángulo_40299" data-name="Rectángulo 40299" width="6.81" height="14.223" transform="translate(17.659 7.425) rotate(119.831)" fill="#5793ce"/>
            <path id="Trazado_116800" data-name="Trazado 116800" d="M326.2,264.319l-2.662-1.527a5.437,5.437,0,0,0-2.09,3.645l2.662,1.527A5.438,5.438,0,0,0,326.2,264.319Z" transform="translate(-321.447 -262.792)" fill="#396caa"/>
            <path id="Trazado_116801" data-name="Trazado 116801" d="M322.428,267.455a5.318,5.318,0,0,1,2.4-4.177c1.327-.772,2.407-.153,2.412,1.382a5.322,5.322,0,0,1-2.4,4.177C323.512,269.609,322.432,268.989,322.428,267.455Z" transform="translate(-321.204 -262.754)" fill="#5793ce"/>
          </g>
        </g>
      </g>
      <ellipse id="Elipse_7026" data-name="Elipse 7026" cx="0.986" cy="0.569" rx="0.986" ry="0.569" transform="matrix(1, -0.003, 0.003, 1, 2.19, 0.838)" fill="#d4ecff"/>
    </g>
    <g id="Grupo_109266" data-name="Grupo 109266" transform="translate(314.576 98.81)">
      <g id="Grupo_109224" data-name="Grupo 109224" transform="translate(20.135)">
        <g id="Grupo_109216" data-name="Grupo 109216">
          <g id="Grupo_109207" data-name="Grupo 109207">
            <path id="Trazado_116802" data-name="Trazado 116802" d="M374.21,227.444l-41.535-23.684c-1.518-.877-1.327-2.409.425-3.421l23.9-13.8a6.585,6.585,0,0,1,5.926-.246l41.535,23.683c1.518.877,1.329,2.409-.425,3.421l-23.9,13.8A6.585,6.585,0,0,1,374.21,227.444Z" transform="translate(-328.964 -77.299)" fill="#b2d3ea"/>
            <path id="Trazado_116803" data-name="Trazado 116803" d="M408.693,220.955h0V123.99L370.147,113.9l-7.1-4.1a7.066,7.066,0,0,0-6.358.264l-6.624,3.824-20.56-.011,6.088,93.6a1.844,1.844,0,0,0,1.092,1.7l38.468,29.027a7.066,7.066,0,0,0,6.358-.264l25.636-14.8A2.518,2.518,0,0,0,408.693,220.955Z" transform="translate(-329.496 -96.246)" fill="#396caa"/>
            <path id="Trazado_116804" data-name="Trazado 116804" d="M360.1,109.171a7.325,7.325,0,0,0-3.408.894l-6.625,3.824-20.56-.011V211.1a1.843,1.843,0,0,0,1.092,1.7l44.556,25.406a5.767,5.767,0,0,0,2.951.63l.459-97.832Z" transform="translate(-329.497 -96.245)" fill="#d4ecff"/>
            <path id="Trazado_116805" data-name="Trazado 116805" d="M366.422,232.324a7.241,7.241,0,0,0,5.081-.057v-98.5h-5.081Z" transform="translate(-320.357 -90.157)" fill="#5793ce"/>
            <path id="Trazado_116806" data-name="Trazado 116806" d="M375.153,143.587,330.6,118.181c-1.629-.941-1.425-2.585.457-3.67l25.636-14.8a7.07,7.07,0,0,1,6.358-.263L407.6,124.851c1.629.941,1.426,2.584-.457,3.67l-25.636,14.8A7.066,7.066,0,0,1,375.153,143.587Z" transform="translate(-329.497 -98.81)" fill="#d4ecff"/>
            <path id="Trazado_116807" data-name="Trazado 116807" d="M407.147,123.376l-25.636,14.8a7.066,7.066,0,0,1-6.358.265L330.6,113.035a2.48,2.48,0,0,1-.813-.722,1.709,1.709,0,0,0,.813,2.525l44.556,25.406a7.066,7.066,0,0,0,6.358-.264l25.636-14.8c1.462-.843,1.906-2.024,1.27-2.949A3.55,3.55,0,0,1,407.147,123.376Z" transform="translate(-329.497 -95.467)" fill="#fafdff"/>
            <g id="Grupo_109206" data-name="Grupo 109206" transform="translate(16.737 8.219)">
              <path id="Trazado_116808" data-name="Trazado 116808" d="M373.092,131.659l-29.664-17.195c-.762-.44-.666-1.21.213-1.718l12-6.926a3.305,3.305,0,0,1,2.975-.123l29.664,17.2c.764.439.667,1.209-.213,1.717l-12,6.926A3.305,3.305,0,0,1,373.092,131.659Z" transform="translate(-342.914 -105.399)" fill="#173d7a"/>
              <g id="Grupo_109205" data-name="Grupo 109205" transform="translate(12.374 7.59)">
                <path id="Trazado_116809" data-name="Trazado 116809" d="M354.622,113.73l-1.719-.993c-.1-.061-.092-.167.03-.237l1.66-.959a.456.456,0,0,1,.41-.016l1.719.992c.106.061.092.167-.029.238l-1.661.958A.462.462,0,0,1,354.622,113.73Z" transform="translate(-352.832 -111.483)" fill="#d4ecff"/>
                <path id="Trazado_116810" data-name="Trazado 116810" d="M359.225,116.376l-1.718-.992c-.106-.061-.092-.167.029-.238l1.66-.958a.458.458,0,0,1,.412-.016l1.719.992c.1.061.091.167-.03.238l-1.66.958A.458.458,0,0,1,359.225,116.376Z" transform="translate(-351.693 -110.828)" fill="#d4ecff"/>
                <path id="Trazado_116811" data-name="Trazado 116811" d="M363.829,119.023l-1.719-.992c-.106-.061-.092-.167.029-.238l1.661-.958a.463.463,0,0,1,.412-.017l1.719.993c.1.061.092.167-.03.238l-1.659.958A.458.458,0,0,1,363.829,119.023Z" transform="translate(-350.553 -110.172)" fill="#d4ecff"/>
                <path id="Trazado_116812" data-name="Trazado 116812" d="M368.432,121.67l-1.719-.992c-.106-.061-.092-.167.03-.238l1.659-.958a.463.463,0,0,1,.412-.017l1.719.993c.106.061.092.167-.03.237l-1.659.959A.458.458,0,0,1,368.432,121.67Z" transform="translate(-349.414 -109.517)" fill="#d4ecff"/>
              </g>
              <path id="Trazado_116813" data-name="Trazado 116813" d="M343.428,114.464l.035.02c.059-.041.112-.085.178-.123l12-6.925a3.305,3.305,0,0,1,2.975-.124l29.629,17.175c.7-.5.74-1.188.035-1.594l-29.664-17.2a3.305,3.305,0,0,0-2.975.123l-12,6.926C342.762,113.254,342.666,114.023,343.428,114.464Z" transform="translate(-342.914 -105.399)" fill="#5793ce"/>
            </g>
          </g>
          <g id="Grupo_109209" data-name="Grupo 109209" transform="translate(55.301 43.51)">
            <path id="Trazado_116814" data-name="Trazado 116814" d="M375.543,154.163l16.867-9.656a4.115,4.115,0,0,0,1.718-3.284v-6.032c0-1.265-.768-1.848-1.718-1.3l-16.867,9.656a4.12,4.12,0,0,0-1.718,3.284v6.032C373.825,154.13,374.595,154.712,375.543,154.163Z" transform="translate(-373.825 -133.686)" fill="#173d7a"/>
            <path id="Trazado_116815" data-name="Trazado 116815" d="M393.159,133.706a1.681,1.681,0,0,1,.432,1.255v6.032a4.113,4.113,0,0,1-1.719,3.282l-16.866,9.657a1.238,1.238,0,0,1-.835.182,1.023,1.023,0,0,0,1.286.044l16.867-9.656a4.114,4.114,0,0,0,1.718-3.284v-6.032C394.042,134.327,393.684,133.795,393.159,133.706Z" transform="translate(-373.739 -133.682)" fill="#fff"/>
            <g id="Grupo_109208" data-name="Grupo 109208" transform="translate(6.416 7.349)">
              <path id="Trazado_116816" data-name="Trazado 116816" d="M379.344,145.56l1.547-.893a.893.893,0,0,0,.374-.715V142.3c0-.276-.167-.4-.374-.283l-1.547.893a.9.9,0,0,0-.376.716v1.652C378.968,145.554,379.136,145.68,379.344,145.56Z" transform="translate(-378.968 -138.984)" fill="#396caa"/>
              <path id="Trazado_116817" data-name="Trazado 116817" d="M383.489,143.166l1.548-.893a.9.9,0,0,0,.374-.715v-1.653c0-.276-.168-.4-.374-.283l-1.548.893a.9.9,0,0,0-.374.716v1.652C383.115,143.159,383.283,143.286,383.489,143.166Z" transform="translate(-377.941 -139.577)" fill="#fff"/>
            </g>
          </g>
          <g id="Grupo_109211" data-name="Grupo 109211" transform="translate(55.301 87.095)">
            <path id="Trazado_116818" data-name="Trazado 116818" d="M375.543,189.1l16.867-9.657a4.113,4.113,0,0,0,1.718-3.284v-6.031c0-1.266-.768-1.848-1.718-1.3l-16.867,9.657a4.118,4.118,0,0,0-1.718,3.284V187.8C373.825,189.067,374.595,189.648,375.543,189.1Z" transform="translate(-373.825 -168.623)" fill="#173d7a"/>
            <path id="Trazado_116819" data-name="Trazado 116819" d="M393.159,168.642a1.685,1.685,0,0,1,.432,1.255v6.032a4.116,4.116,0,0,1-1.719,3.284l-16.866,9.657a1.237,1.237,0,0,1-.835.181,1.023,1.023,0,0,0,1.286.045l16.867-9.657a4.113,4.113,0,0,0,1.718-3.284v-6.031C394.042,169.265,393.684,168.732,393.159,168.642Z" transform="translate(-373.739 -168.618)" fill="#fff"/>
            <g id="Grupo_109210" data-name="Grupo 109210" transform="translate(6.416 7.349)">
              <path id="Trazado_116820" data-name="Trazado 116820" d="M379.344,180.5l1.547-.893a.9.9,0,0,0,.374-.716v-1.652c0-.277-.167-.4-.374-.283l-1.547.893a.894.894,0,0,0-.376.715v1.653C378.968,180.49,379.136,180.617,379.344,180.5Z" transform="translate(-378.968 -173.921)" fill="#396caa"/>
              <path id="Trazado_116821" data-name="Trazado 116821" d="M383.489,178.1l1.548-.893a.9.9,0,0,0,.374-.716v-1.653c0-.276-.168-.4-.374-.283l-1.548.893a.9.9,0,0,0-.374.716v1.653C383.115,178.1,383.283,178.223,383.489,178.1Z" transform="translate(-377.941 -174.513)" fill="#fff"/>
            </g>
          </g>
          <g id="Grupo_109213" data-name="Grupo 109213" transform="translate(55.301 108.887)">
            <path id="Trazado_116822" data-name="Trazado 116822" d="M375.543,206.568l16.867-9.656a4.116,4.116,0,0,0,1.718-3.284V187.6c0-1.266-.768-1.848-1.718-1.3l-16.867,9.657a4.118,4.118,0,0,0-1.718,3.284v6.032C373.825,206.535,374.595,207.116,375.543,206.568Z" transform="translate(-373.825 -186.091)" fill="#173d7a"/>
            <path id="Trazado_116823" data-name="Trazado 116823" d="M393.159,186.111a1.681,1.681,0,0,1,.432,1.255V193.4a4.114,4.114,0,0,1-1.719,3.284l-16.866,9.657a1.238,1.238,0,0,1-.835.182,1.023,1.023,0,0,0,1.286.044l16.867-9.656a4.116,4.116,0,0,0,1.718-3.284v-6.032C394.042,186.732,393.684,186.2,393.159,186.111Z" transform="translate(-373.739 -186.086)" fill="#fff"/>
            <g id="Grupo_109212" data-name="Grupo 109212" transform="translate(6.416 7.349)">
              <path id="Trazado_116824" data-name="Trazado 116824" d="M379.344,197.965l1.547-.893a.9.9,0,0,0,.374-.715V194.7c0-.276-.167-.4-.374-.283l-1.547.893a.9.9,0,0,0-.376.716v1.652C378.968,197.958,379.136,198.085,379.344,197.965Z" transform="translate(-378.968 -191.389)" fill="#396caa"/>
              <path id="Trazado_116825" data-name="Trazado 116825" d="M383.489,195.571l1.548-.893a.9.9,0,0,0,.374-.716V192.31c0-.276-.168-.4-.374-.283l-1.548.893a.9.9,0,0,0-.374.715v1.653C383.115,195.564,383.283,195.691,383.489,195.571Z" transform="translate(-377.941 -191.982)" fill="#fff"/>
            </g>
          </g>
          <g id="Grupo_109215" data-name="Grupo 109215" transform="translate(55.301 65.303)">
            <path id="Trazado_116826" data-name="Trazado 116826" d="M375.543,171.632l16.867-9.657a4.115,4.115,0,0,0,1.718-3.284V152.66c0-1.265-.768-1.846-1.718-1.3l-16.867,9.657a4.116,4.116,0,0,0-1.718,3.284v6.031C373.825,171.6,374.595,172.18,375.543,171.632Z" transform="translate(-373.825 -151.155)" fill="#173d7a"/>
            <path id="Trazado_116827" data-name="Trazado 116827" d="M393.159,151.174a1.683,1.683,0,0,1,.432,1.255v6.032a4.116,4.116,0,0,1-1.719,3.284L375.006,171.4a1.238,1.238,0,0,1-.835.182,1.024,1.024,0,0,0,1.286.045l16.867-9.657a4.114,4.114,0,0,0,1.718-3.284v-6.032C394.042,151.8,393.684,151.264,393.159,151.174Z" transform="translate(-373.739 -151.15)" fill="#fff"/>
            <g id="Grupo_109214" data-name="Grupo 109214" transform="translate(6.416 7.348)">
              <path id="Trazado_116828" data-name="Trazado 116828" d="M379.344,163.029l1.547-.893a.9.9,0,0,0,.374-.716v-1.653c0-.276-.167-.4-.374-.283l-1.547.893a.9.9,0,0,0-.376.716v1.653C378.968,163.022,379.136,163.148,379.344,163.029Z" transform="translate(-378.968 -156.452)" fill="#396caa"/>
              <path id="Trazado_116829" data-name="Trazado 116829" d="M383.489,160.635l1.548-.893a.9.9,0,0,0,.374-.716v-1.653c0-.276-.168-.4-.374-.283l-1.548.893a.9.9,0,0,0-.374.716v1.653C383.115,160.628,383.283,160.754,383.489,160.635Z" transform="translate(-377.941 -157.045)" fill="#fff"/>
            </g>
          </g>
        </g>
        <g id="Grupo_109217" data-name="Grupo 109217" transform="translate(1.922 23.533)">
          <path id="Trazado_116830" data-name="Trazado 116830" d="M371.527,151.953l-38.912-22.466a3.776,3.776,0,0,1-1.577-3.013v-7.42c0-1.16.706-1.694,1.577-1.191l38.912,22.466a3.776,3.776,0,0,1,1.577,3.013v7.42C373.1,151.923,372.4,152.456,371.527,151.953Z" transform="translate(-331.038 -117.673)" fill="#5793ce"/>
          <path id="Trazado_116831" data-name="Trazado 116831" d="M370.034,148.817l-36.678-21.176a1.917,1.917,0,0,1-.8-1.529v-5.578c0-.589.358-.86.8-.605L370.034,141.1a1.918,1.918,0,0,1,.8,1.53v5.578C370.833,148.8,370.475,149.072,370.034,148.817Z" transform="translate(-330.662 -117.139)" fill="#d4ecff" opacity="0.4"/>
          <path id="Trazado_116832" data-name="Trazado 116832" d="M340.564,128.426l-5.474-3.16a1.862,1.862,0,0,1-.776-1.485h0c0-.573.347-.836.776-.588l5.474,3.16a1.861,1.861,0,0,1,.777,1.485h0C341.341,128.411,340.993,128.673,340.564,128.426Z" transform="translate(-330.227 -116.33)" fill="#d4ecff"/>
          <ellipse id="Elipse_7027" data-name="Elipse 7027" cx="0.733" cy="1.269" rx="0.733" ry="1.269" transform="matrix(0.866, -0.5, 0.5, 0.866, 12.836, 12.502)" fill="#173d7a"/>
          <path id="Trazado_116833" data-name="Trazado 116833" d="M345.956,130.495c0,.571-.4.8-.9.518a1.983,1.983,0,0,1-.9-1.554c0-.571.4-.8.9-.518A1.985,1.985,0,0,1,345.956,130.495Z" transform="translate(-327.789 -114.915)" fill="#173d7a"/>
          <path id="Trazado_116834" data-name="Trazado 116834" d="M348.493,131.958c0,.573-.4.8-.9.519a1.985,1.985,0,0,1-.9-1.554c0-.571.4-.8.9-.518A1.983,1.983,0,0,1,348.493,131.958Z" transform="translate(-327.161 -114.552)" fill="#d4ecff"/>
          <path id="Trazado_116835" data-name="Trazado 116835" d="M351.03,133.424c0,.573-.4.8-.9.518a1.979,1.979,0,0,1-.9-1.553c0-.573.4-.8.9-.518A1.983,1.983,0,0,1,351.03,133.424Z" transform="translate(-326.533 -114.189)" fill="#173d7a"/>
          <path id="Trazado_116836" data-name="Trazado 116836" d="M361.826,141.45l-1.844-1.064a1.2,1.2,0,0,1-.5-.953v-1.951c0-.367.223-.535.5-.377l1.844,1.064a1.2,1.2,0,0,1,.5.953v1.951C362.324,141.44,362.1,141.608,361.826,141.45Z" transform="translate(-323.996 -112.878)" fill="#173d7a"/>
        </g>
        <g id="Grupo_109218" data-name="Grupo 109218" transform="translate(1.922 36.617)">
          <path id="Trazado_116837" data-name="Trazado 116837" d="M371.527,162.441l-38.912-22.466a3.776,3.776,0,0,1-1.577-3.013v-7.42c0-1.16.706-1.694,1.577-1.191l38.912,22.466a3.776,3.776,0,0,1,1.577,3.013v7.42C373.1,162.41,372.4,162.944,371.527,162.441Z" transform="translate(-331.038 -128.161)" fill="#5793ce"/>
          <path id="Trazado_116838" data-name="Trazado 116838" d="M370.034,159.305l-36.678-21.176a1.917,1.917,0,0,1-.8-1.529v-5.578c0-.589.358-.86.8-.605l36.678,21.176a1.918,1.918,0,0,1,.8,1.53V158.7C370.833,159.289,370.475,159.56,370.034,159.305Z" transform="translate(-330.662 -127.627)" fill="#d4ecff" opacity="0.4"/>
          <path id="Trazado_116839" data-name="Trazado 116839" d="M340.564,138.914l-5.474-3.16a1.862,1.862,0,0,1-.776-1.485h0c0-.573.347-.836.776-.588l5.474,3.16a1.861,1.861,0,0,1,.777,1.485h0C341.341,138.9,340.993,139.161,340.564,138.914Z" transform="translate(-330.227 -126.818)" fill="#d4ecff"/>
          <path id="Trazado_116840" data-name="Trazado 116840" d="M343.419,139.518c0,.573-.4.8-.9.518a1.983,1.983,0,0,1-.9-1.553c0-.573.4-.8.9-.519A1.985,1.985,0,0,1,343.419,139.518Z" transform="translate(-328.417 -125.765)" fill="#fff"/>
          <path id="Trazado_116841" data-name="Trazado 116841" d="M345.956,140.983c0,.571-.4.8-.9.518a1.983,1.983,0,0,1-.9-1.554c0-.571.4-.8.9-.518A1.985,1.985,0,0,1,345.956,140.983Z" transform="translate(-327.789 -125.403)" fill="#173d7a"/>
          <path id="Trazado_116842" data-name="Trazado 116842" d="M348.493,142.447c0,.573-.4.8-.9.519a1.985,1.985,0,0,1-.9-1.554c0-.573.4-.8.9-.518A1.983,1.983,0,0,1,348.493,142.447Z" transform="translate(-327.161 -125.04)" fill="#d4ecff"/>
          <ellipse id="Elipse_7028" data-name="Elipse 7028" cx="0.733" cy="1.269" rx="0.733" ry="1.269" transform="matrix(0.866, -0.5, 0.5, 0.866, 22.331, 17.984)" fill="#173d7a"/>
          <path id="Trazado_116843" data-name="Trazado 116843" d="M361.826,151.938l-1.844-1.064a1.2,1.2,0,0,1-.5-.953V147.97c0-.367.223-.535.5-.377l1.844,1.064a1.2,1.2,0,0,1,.5.953v1.951C362.324,151.928,362.1,152.1,361.826,151.938Z" transform="translate(-323.996 -123.366)" fill="#173d7a"/>
        </g>
        <g id="Grupo_109219" data-name="Grupo 109219" transform="translate(1.922 49.701)">
          <path id="Trazado_116844" data-name="Trazado 116844" d="M371.527,172.929l-38.912-22.466a3.776,3.776,0,0,1-1.577-3.013v-7.42c0-1.16.706-1.694,1.577-1.191L371.527,161.3a3.776,3.776,0,0,1,1.577,3.013v7.42C373.1,172.9,372.4,173.432,371.527,172.929Z" transform="translate(-331.038 -138.649)" fill="#5793ce"/>
          <path id="Trazado_116845" data-name="Trazado 116845" d="M370.034,169.793l-36.678-21.176a1.917,1.917,0,0,1-.8-1.53V141.51c0-.589.358-.86.8-.605l36.678,21.176a1.918,1.918,0,0,1,.8,1.53v5.578C370.833,169.777,370.475,170.048,370.034,169.793Z" transform="translate(-330.662 -138.115)" fill="#d4ecff" opacity="0.4"/>
          <path id="Trazado_116846" data-name="Trazado 116846" d="M340.564,149.4l-5.474-3.16a1.862,1.862,0,0,1-.776-1.485h0c0-.573.347-.836.776-.588l5.474,3.16a1.861,1.861,0,0,1,.777,1.485h0C341.341,149.386,340.993,149.649,340.564,149.4Z" transform="translate(-330.227 -137.306)" fill="#d4ecff"/>
          <path id="Trazado_116847" data-name="Trazado 116847" d="M343.419,150.006c0,.573-.4.8-.9.518a1.983,1.983,0,0,1-.9-1.553c0-.573.4-.8.9-.519A1.985,1.985,0,0,1,343.419,150.006Z" transform="translate(-328.417 -136.253)" fill="#fff"/>
          <path id="Trazado_116848" data-name="Trazado 116848" d="M345.956,151.471c0,.571-.4.8-.9.518a1.983,1.983,0,0,1-.9-1.554c0-.571.4-.8.9-.518A1.985,1.985,0,0,1,345.956,151.471Z" transform="translate(-327.789 -135.89)" fill="#173d7a"/>
          <path id="Trazado_116849" data-name="Trazado 116849" d="M348.493,152.935c0,.573-.4.8-.9.519a1.985,1.985,0,0,1-.9-1.554c0-.573.4-.8.9-.518A1.983,1.983,0,0,1,348.493,152.935Z" transform="translate(-327.161 -135.528)" fill="#d4ecff"/>
          <path id="Trazado_116850" data-name="Trazado 116850" d="M351.03,154.4c0,.573-.4.8-.9.518a1.979,1.979,0,0,1-.9-1.553c0-.573.4-.8.9-.518A1.983,1.983,0,0,1,351.03,154.4Z" transform="translate(-326.533 -135.165)" fill="#173d7a"/>
          <path id="Trazado_116851" data-name="Trazado 116851" d="M361.826,162.426l-1.844-1.064a1.2,1.2,0,0,1-.5-.953v-1.951c0-.367.223-.535.5-.377l1.844,1.064a1.2,1.2,0,0,1,.5.953v1.951C362.324,162.416,362.1,162.584,361.826,162.426Z" transform="translate(-323.996 -133.854)" fill="#173d7a"/>
        </g>
        <g id="Grupo_109220" data-name="Grupo 109220" transform="translate(1.922 62.786)">
          <path id="Trazado_116852" data-name="Trazado 116852" d="M371.527,183.417l-38.912-22.466a3.776,3.776,0,0,1-1.577-3.013v-7.42c0-1.16.706-1.694,1.577-1.191l38.912,22.466a3.776,3.776,0,0,1,1.577,3.013v7.42C373.1,183.386,372.4,183.92,371.527,183.417Z" transform="translate(-331.038 -149.137)" fill="#5793ce"/>
          <path id="Trazado_116853" data-name="Trazado 116853" d="M370.034,180.281l-36.678-21.176a1.917,1.917,0,0,1-.8-1.53V152c0-.589.358-.86.8-.605l36.678,21.176a1.918,1.918,0,0,1,.8,1.53v5.578C370.833,180.265,370.475,180.536,370.034,180.281Z" transform="translate(-330.662 -148.603)" fill="#d4ecff" opacity="0.4"/>
          <path id="Trazado_116854" data-name="Trazado 116854" d="M340.564,159.89l-5.474-3.161a1.858,1.858,0,0,1-.776-1.483h0c0-.573.347-.836.776-.588l5.474,3.16a1.861,1.861,0,0,1,.777,1.485h0C341.341,159.874,340.993,160.137,340.564,159.89Z" transform="translate(-330.227 -147.794)" fill="#d4ecff"/>
          <path id="Trazado_116855" data-name="Trazado 116855" d="M343.419,160.494c0,.573-.4.8-.9.518a1.983,1.983,0,0,1-.9-1.553c0-.573.4-.8.9-.519A1.985,1.985,0,0,1,343.419,160.494Z" transform="translate(-328.417 -146.741)" fill="#173d7a"/>
          <ellipse id="Elipse_7029" data-name="Elipse 7029" cx="0.733" cy="1.269" rx="0.733" ry="1.269" transform="matrix(0.866, -0.5, 0.5, 0.866, 16.001, 14.329)" fill="#173d7a"/>
          <path id="Trazado_116856" data-name="Trazado 116856" d="M348.493,163.422c0,.573-.4.8-.9.519a1.985,1.985,0,0,1-.9-1.554c0-.573.4-.8.9-.518A1.983,1.983,0,0,1,348.493,163.422Z" transform="translate(-327.161 -146.016)" fill="#d4ecff"/>
          <path id="Trazado_116857" data-name="Trazado 116857" d="M351.03,164.888c0,.573-.4.8-.9.518a1.979,1.979,0,0,1-.9-1.553c0-.573.4-.8.9-.518A1.981,1.981,0,0,1,351.03,164.888Z" transform="translate(-326.533 -145.653)" fill="#173d7a"/>
          <path id="Trazado_116858" data-name="Trazado 116858" d="M361.826,172.914l-1.844-1.064a1.2,1.2,0,0,1-.5-.953v-1.951c0-.367.223-.535.5-.377l1.844,1.064a1.2,1.2,0,0,1,.5.953v1.951C362.324,172.9,362.1,173.072,361.826,172.914Z" transform="translate(-323.996 -144.342)" fill="#d4ecff"/>
        </g>
        <g id="Grupo_109221" data-name="Grupo 109221" transform="translate(1.922 75.87)">
          <path id="Trazado_116859" data-name="Trazado 116859" d="M371.527,193.905l-38.912-22.466a3.776,3.776,0,0,1-1.577-3.013v-7.42c0-1.16.706-1.694,1.577-1.191l38.912,22.466a3.776,3.776,0,0,1,1.577,3.013v7.42C373.1,193.874,372.4,194.408,371.527,193.905Z" transform="translate(-331.038 -159.625)" fill="#5793ce"/>
          <path id="Trazado_116860" data-name="Trazado 116860" d="M370.034,190.769l-36.678-21.176a1.917,1.917,0,0,1-.8-1.53v-5.578c0-.589.358-.86.8-.605l36.678,21.176a1.918,1.918,0,0,1,.8,1.529v5.578C370.833,190.753,370.475,191.024,370.034,190.769Z" transform="translate(-330.662 -159.091)" fill="#d4ecff" opacity="0.4"/>
          <path id="Trazado_116861" data-name="Trazado 116861" d="M340.564,170.378l-5.474-3.161a1.858,1.858,0,0,1-.776-1.483h0c0-.573.347-.836.776-.588l5.474,3.16a1.861,1.861,0,0,1,.777,1.485h0C341.341,170.362,340.993,170.625,340.564,170.378Z" transform="translate(-330.227 -158.282)" fill="#d4ecff"/>
          <path id="Trazado_116862" data-name="Trazado 116862" d="M343.419,170.982c0,.573-.4.8-.9.518a1.983,1.983,0,0,1-.9-1.553c0-.573.4-.8.9-.519A1.985,1.985,0,0,1,343.419,170.982Z" transform="translate(-328.417 -157.229)" fill="#173d7a"/>
          <path id="Trazado_116863" data-name="Trazado 116863" d="M345.956,172.447c0,.571-.4.8-.9.518a1.985,1.985,0,0,1-.9-1.554c0-.571.4-.8.9-.518A1.983,1.983,0,0,1,345.956,172.447Z" transform="translate(-327.789 -156.866)" fill="#fff"/>
          <path id="Trazado_116864" data-name="Trazado 116864" d="M348.493,173.911c0,.573-.4.8-.9.519a1.985,1.985,0,0,1-.9-1.554c0-.573.4-.8.9-.518A1.983,1.983,0,0,1,348.493,173.911Z" transform="translate(-327.161 -156.504)" fill="#d4ecff"/>
          <path id="Trazado_116865" data-name="Trazado 116865" d="M351.03,175.376c0,.573-.4.8-.9.518a1.979,1.979,0,0,1-.9-1.553c0-.573.4-.8.9-.519A1.985,1.985,0,0,1,351.03,175.376Z" transform="translate(-326.533 -156.141)" fill="#fff"/>
          <path id="Trazado_116866" data-name="Trazado 116866" d="M361.826,183.4l-1.844-1.064a1.2,1.2,0,0,1-.5-.953v-1.951c0-.367.223-.535.5-.377l1.844,1.064a1.2,1.2,0,0,1,.5.953v1.951C362.324,183.392,362.1,183.56,361.826,183.4Z" transform="translate(-323.996 -154.83)" fill="#d4ecff"/>
        </g>
        <g id="Grupo_109222" data-name="Grupo 109222" transform="translate(1.922 88.954)">
          <path id="Trazado_116867" data-name="Trazado 116867" d="M371.527,204.393l-38.912-22.466a3.776,3.776,0,0,1-1.577-3.013v-7.42c0-1.16.706-1.694,1.577-1.191l38.912,22.466a3.776,3.776,0,0,1,1.577,3.013v7.42C373.1,204.362,372.4,204.9,371.527,204.393Z" transform="translate(-331.038 -170.113)" fill="#5793ce"/>
          <path id="Trazado_116868" data-name="Trazado 116868" d="M370.034,201.257l-36.678-21.176a1.917,1.917,0,0,1-.8-1.529v-5.578c0-.589.358-.86.8-.605l36.678,21.176a1.918,1.918,0,0,1,.8,1.529v5.578C370.833,201.241,370.475,201.512,370.034,201.257Z" transform="translate(-330.662 -169.579)" fill="#d4ecff" opacity="0.4"/>
          <path id="Trazado_116869" data-name="Trazado 116869" d="M340.564,180.866,335.09,177.7a1.858,1.858,0,0,1-.776-1.485h0c0-.571.347-.835.776-.586l5.474,3.16a1.859,1.859,0,0,1,.777,1.485h0C341.341,180.85,340.993,181.113,340.564,180.866Z" transform="translate(-330.227 -168.77)" fill="#d4ecff"/>
          <ellipse id="Elipse_7030" data-name="Elipse 7030" cx="0.733" cy="1.269" rx="0.733" ry="1.269" transform="matrix(0.866, -0.5, 0.5, 0.866, 12.836, 12.502)" fill="#173d7a"/>
          <path id="Trazado_116870" data-name="Trazado 116870" d="M345.956,182.935c0,.571-.4.8-.9.518a1.985,1.985,0,0,1-.9-1.554c0-.571.4-.8.9-.518A1.983,1.983,0,0,1,345.956,182.935Z" transform="translate(-327.789 -167.355)" fill="#173d7a"/>
          <path id="Trazado_116871" data-name="Trazado 116871" d="M348.493,184.4c0,.573-.4.8-.9.518a1.981,1.981,0,0,1-.9-1.553c0-.573.4-.8.9-.518A1.983,1.983,0,0,1,348.493,184.4Z" transform="translate(-327.161 -166.992)" fill="#d4ecff"/>
          <path id="Trazado_116872" data-name="Trazado 116872" d="M351.03,185.864c0,.573-.4.8-.9.518a1.979,1.979,0,0,1-.9-1.553c0-.573.4-.8.9-.519A1.985,1.985,0,0,1,351.03,185.864Z" transform="translate(-326.533 -166.629)" fill="#173d7a"/>
          <path id="Trazado_116873" data-name="Trazado 116873" d="M361.826,193.89l-1.844-1.064a1.2,1.2,0,0,1-.5-.953v-1.951c0-.367.223-.535.5-.377l1.844,1.064a1.2,1.2,0,0,1,.5.953v1.951C362.324,193.88,362.1,194.048,361.826,193.89Z" transform="translate(-323.996 -165.318)" fill="#173d7a"/>
        </g>
        <g id="Grupo_109223" data-name="Grupo 109223" transform="translate(1.922 102.039)">
          <path id="Trazado_116874" data-name="Trazado 116874" d="M371.527,214.881l-38.912-22.466a3.776,3.776,0,0,1-1.577-3.013v-7.42c0-1.161.706-1.694,1.577-1.191l38.912,22.466a3.776,3.776,0,0,1,1.577,3.013v7.42C373.1,214.85,372.4,215.384,371.527,214.881Z" transform="translate(-331.038 -180.601)" fill="#5793ce"/>
          <path id="Trazado_116875" data-name="Trazado 116875" d="M370.034,211.745l-36.678-21.176a1.919,1.919,0,0,1-.8-1.529v-5.578c0-.589.358-.86.8-.605l36.678,21.176a1.918,1.918,0,0,1,.8,1.529v5.578C370.833,211.729,370.475,212,370.034,211.745Z" transform="translate(-330.662 -180.066)" fill="#d4ecff" opacity="0.4"/>
          <path id="Trazado_116876" data-name="Trazado 116876" d="M340.564,191.354l-5.474-3.161a1.858,1.858,0,0,1-.776-1.485h0c0-.571.347-.835.776-.586l5.474,3.16a1.859,1.859,0,0,1,.777,1.485h0C341.341,191.338,340.993,191.6,340.564,191.354Z" transform="translate(-330.227 -179.258)" fill="#d4ecff"/>
          <path id="Trazado_116877" data-name="Trazado 116877" d="M344.538,192.821c0,1.08-.759,1.518-1.694.978a3.745,3.745,0,0,1-1.7-2.935c0-1.08.759-1.518,1.7-.978A3.745,3.745,0,0,1,344.538,192.821Z" transform="translate(-328.535 -178.36)" fill="#fff"/>
          <path id="Trazado_116878" data-name="Trazado 116878" d="M349.475,195.6c0,.573-.4.8-.9.518a1.981,1.981,0,0,1-.9-1.553c0-.573.4-.8.9-.518A1.983,1.983,0,0,1,349.475,195.6Z" transform="translate(-326.918 -177.303)" fill="#173d7a"/>
          <path id="Trazado_116879" data-name="Trazado 116879" d="M352.012,197.065c0,.573-.4.8-.9.518a1.983,1.983,0,0,1-.9-1.553c0-.573.4-.8.9-.519A1.985,1.985,0,0,1,352.012,197.065Z" transform="translate(-326.29 -176.941)" fill="#d4ecff"/>
          <path id="Trazado_116880" data-name="Trazado 116880" d="M354.549,198.53c0,.571-.4.8-.9.518a1.983,1.983,0,0,1-.9-1.554c0-.571.4-.8.9-.518A1.983,1.983,0,0,1,354.549,198.53Z" transform="translate(-325.662 -176.578)" fill="#173d7a"/>
          <path id="Trazado_116881" data-name="Trazado 116881" d="M361.826,204.378l-1.844-1.064a1.2,1.2,0,0,1-.5-.953V200.41c0-.367.223-.535.5-.377l1.844,1.064a1.2,1.2,0,0,1,.5.953V204C362.324,204.368,362.1,204.536,361.826,204.378Z" transform="translate(-323.996 -175.806)" fill="#d4ecff"/>
        </g>
      </g>
      <path id="Trazado_116882" data-name="Trazado 116882" d="M370.448,245.216a.777.777,0,0,1-.387-.1l-44.234-25.139a1.715,1.715,0,0,1-.025-2.968l18.977-11.2a2.213,2.213,0,0,0,1.085-1.9V191.563a.783.783,0,0,1,1.567,0v12.343a3.8,3.8,0,0,1-1.855,3.251l-18.976,11.2a.138.138,0,0,0-.072.128.139.139,0,0,0,.074.127l44.236,25.139a.783.783,0,0,1-.388,1.465Z" transform="translate(-310.486 -76.043)" fill="#5793ce"/>
      <g id="Grupo_109229" data-name="Grupo 109229" transform="translate(43.231 157.861)">
        <g id="Grupo_109228" data-name="Grupo 109228">
          <g id="Grupo_109227" data-name="Grupo 109227">
            <g id="Grupo_109225" data-name="Grupo 109225">
              <rect id="Rectángulo_40300" data-name="Rectángulo 40300" width="4.202" height="9.068" transform="translate(10.396 4.609) rotate(119.831)" fill="#5793ce"/>
              <path id="Trazado_116883" data-name="Trazado 116883" d="M348.011,228.13a3.288,3.288,0,0,1,1.478-2.579c.82-.475,1.486-.094,1.488.855a3.285,3.285,0,0,1-1.478,2.577C348.681,229.46,348.015,229.077,348.011,228.13Z" transform="translate(-348.011 -225.347)" fill="#5793ce"/>
            </g>
            <g id="Grupo_109226" data-name="Grupo 109226" transform="translate(4.349 2.34)">
              <rect id="Rectángulo_40301" data-name="Rectángulo 40301" width="6.81" height="14.223" transform="matrix(-0.497, 0.867, -0.867, -0.497, 17.659, 7.425)" fill="#5793ce"/>
              <path id="Trazado_116884" data-name="Trazado 116884" d="M356.25,228.75l-2.664-1.527a5.438,5.438,0,0,0-2.09,3.645l2.662,1.527A5.444,5.444,0,0,0,356.25,228.75Z" transform="translate(-351.497 -227.223)" fill="#396caa"/>
              <path id="Trazado_116885" data-name="Trazado 116885" d="M352.478,231.886a5.323,5.323,0,0,1,2.4-4.178c1.327-.771,2.407-.152,2.411,1.384a5.318,5.318,0,0,1-2.4,4.177C353.562,234.04,352.482,233.422,352.478,231.886Z" transform="translate(-351.254 -227.185)" fill="#5793ce"/>
            </g>
          </g>
        </g>
        <path id="Trazado_116886" data-name="Trazado 116886" d="M350.058,226.991a.426.426,0,0,1,0-.806,1.544,1.544,0,0,1,1.395,0,.425.425,0,0,1,0,.8A1.543,1.543,0,0,1,350.058,226.991Z" transform="translate(-347.576 -225.181)" fill="#d4ecff"/>
      </g>
      <g id="Grupo_109234" data-name="Grupo 109234" transform="translate(33.666 163.642)">
        <g id="Grupo_109233" data-name="Grupo 109233">
          <g id="Grupo_109232" data-name="Grupo 109232">
            <g id="Grupo_109230" data-name="Grupo 109230">
              <rect id="Rectángulo_40302" data-name="Rectángulo 40302" width="4.202" height="9.068" transform="translate(10.395 4.609) rotate(119.831)" fill="#5793ce"/>
              <path id="Trazado_116887" data-name="Trazado 116887" d="M340.344,232.764a3.284,3.284,0,0,1,1.477-2.579c.82-.475,1.486-.094,1.488.855a3.283,3.283,0,0,1-1.477,2.577C341.013,234.094,340.347,233.711,340.344,232.764Z" transform="translate(-340.344 -229.981)" fill="#5793ce"/>
            </g>
            <g id="Grupo_109231" data-name="Grupo 109231" transform="translate(4.348 2.34)">
              <rect id="Rectángulo_40303" data-name="Rectángulo 40303" width="6.81" height="14.223" transform="matrix(-0.497, 0.868, -0.868, -0.497, 17.66, 7.425)" fill="#5793ce"/>
              <path id="Trazado_116888" data-name="Trazado 116888" d="M348.582,233.384l-2.662-1.527a5.434,5.434,0,0,0-2.091,3.645l2.662,1.527A5.434,5.434,0,0,0,348.582,233.384Z" transform="translate(-343.829 -231.857)" fill="#396caa"/>
              <path id="Trazado_116889" data-name="Trazado 116889" d="M344.81,236.52a5.322,5.322,0,0,1,2.4-4.178c1.327-.771,2.408-.152,2.411,1.384a5.318,5.318,0,0,1-2.4,4.177C345.894,238.674,344.815,238.054,344.81,236.52Z" transform="translate(-343.586 -231.819)" fill="#5793ce"/>
            </g>
          </g>
        </g>
        <path id="Trazado_116890" data-name="Trazado 116890" d="M342.391,231.625a.426.426,0,0,1,0-.806,1.541,1.541,0,0,1,1.393,0,.425.425,0,0,1,0,.8A1.541,1.541,0,0,1,342.391,231.625Z" transform="translate(-339.909 -229.815)" fill="#d4ecff"/>
      </g>
      <g id="Grupo_109250" data-name="Grupo 109250" transform="translate(173.732 55.277)">
        <path id="Trazado_116891" data-name="Trazado 116891" d="M469.691,184.876a.783.783,0,0,1-.765-.959l7.644-33.189a.784.784,0,0,1,1.528.352l-7.644,33.189A.784.784,0,0,1,469.691,184.876Z" transform="translate(-448.584 -141.386)" fill="#5793ce"/>
        <path id="Trazado_116892" data-name="Trazado 116892" d="M461.547,183a.783.783,0,0,1-.765-.959l7.644-33.189a.784.784,0,1,1,1.528.353l-7.645,33.187A.782.782,0,0,1,461.547,183Z" transform="translate(-450.6 -141.85)" fill="#5793ce"/>
        <path id="Trazado_116893" data-name="Trazado 116893" d="M453.4,181.123a.779.779,0,0,1-.765-.959l7.644-33.189a.784.784,0,0,1,1.528.352l-7.645,33.189A.782.782,0,0,1,453.4,181.123Z" transform="translate(-452.617 -142.314)" fill="#5793ce"/>
        <g id="Grupo_109239" data-name="Grupo 109239" transform="translate(2.483 0)">
          <g id="Grupo_109238" data-name="Grupo 109238" transform="translate(0 0)">
            <g id="Grupo_109237" data-name="Grupo 109237">
              <g id="Grupo_109235" data-name="Grupo 109235" transform="translate(0 12.603)">
                <rect id="Rectángulo_40304" data-name="Rectángulo 40304" width="4.202" height="9.068" transform="translate(2.088 0) rotate(13.191)" fill="#5793ce"/>
                <path id="Trazado_116894" data-name="Trazado 116894" d="M457.923,162.11a3.285,3.285,0,0,1-2.893-.679.905.905,0,0,1,.39-1.67,3.282,3.282,0,0,1,2.893.679A.905.905,0,0,1,457.923,162.11Z" transform="translate(-454.607 -151.627)" fill="#5793ce"/>
              </g>
              <g id="Grupo_109236" data-name="Grupo 109236" transform="translate(0.427)">
                <rect id="Rectángulo_40305" data-name="Rectángulo 40305" width="6.81" height="14.223" transform="matrix(0.974, 0.228, -0.228, 0.974, 3.276, 0)" fill="#5793ce"/>
                <path id="Trazado_116895" data-name="Trazado 116895" d="M456.147,154.4l-.7,2.988a5.436,5.436,0,0,0,4.091.959l.7-2.988A5.439,5.439,0,0,0,456.147,154.4Z" transform="translate(-454.826 -140.346)" fill="#396caa"/>
                <path id="Trazado_116896" data-name="Trazado 116896" d="M460.322,157.155a5.323,5.323,0,0,1-4.688-1.1c-1.119-1.05-.836-2.263.634-2.707a5.323,5.323,0,0,1,4.688,1.1C462.075,155.5,461.792,156.711,460.322,157.155Z" transform="translate(-454.95 -140.627)" fill="#5793ce"/>
              </g>
            </g>
          </g>
          <path id="Trazado_116897" data-name="Trazado 116897" d="M456.187,160.24a.425.425,0,0,1-.771.233,1.538,1.538,0,0,1-.4-1.335.425.425,0,0,1,.77-.233A1.543,1.543,0,0,1,456.187,160.24Z" transform="translate(-454.514 -139.254)" fill="#d4ecff"/>
        </g>
        <g id="Grupo_109244" data-name="Grupo 109244" transform="translate(11.904 5.61)">
          <g id="Grupo_109243" data-name="Grupo 109243" transform="translate(0 0)">
            <g id="Grupo_109242" data-name="Grupo 109242" transform="translate(0 0)">
              <g id="Grupo_109240" data-name="Grupo 109240" transform="translate(0 12.603)">
                <rect id="Rectángulo_40306" data-name="Rectángulo 40306" width="4.202" height="9.068" transform="translate(2.088 0) rotate(13.191)" fill="#5793ce"/>
                <path id="Trazado_116898" data-name="Trazado 116898" d="M465.475,166.606a3.284,3.284,0,0,1-2.894-.677.906.906,0,0,1,.392-1.67,3.281,3.281,0,0,1,2.893.679A.9.9,0,0,1,465.475,166.606Z" transform="translate(-462.159 -156.124)" fill="#5793ce"/>
              </g>
              <g id="Grupo_109241" data-name="Grupo 109241" transform="translate(0.427 0)">
                <rect id="Rectángulo_40307" data-name="Rectángulo 40307" width="6.81" height="14.223" transform="translate(3.276 0) rotate(13.192)" fill="#5793ce"/>
                <path id="Trazado_116899" data-name="Trazado 116899" d="M463.7,158.9l-.7,2.988a5.436,5.436,0,0,0,4.091.959l.7-2.988A5.435,5.435,0,0,0,463.7,158.9Z" transform="translate(-462.378 -144.843)" fill="#396caa"/>
                <path id="Trazado_116900" data-name="Trazado 116900" d="M467.874,161.652a5.327,5.327,0,0,1-4.688-1.1c-1.119-1.052-.836-2.263.634-2.707a5.323,5.323,0,0,1,4.688,1.1C469.627,159.995,469.344,161.208,467.874,161.652Z" transform="translate(-462.502 -145.124)" fill="#5793ce"/>
              </g>
            </g>
          </g>
          <path id="Trazado_116901" data-name="Trazado 116901" d="M463.737,164.737a.425.425,0,0,1-.77.233,1.538,1.538,0,0,1-.4-1.335.424.424,0,0,1,.77-.233A1.538,1.538,0,0,1,463.737,164.737Z" transform="translate(-462.066 -143.751)" fill="#d4ecff"/>
        </g>
        <g id="Grupo_109249" data-name="Grupo 109249" transform="translate(21.431 11.177)">
          <g id="Grupo_109248" data-name="Grupo 109248" transform="translate(0 0)">
            <g id="Grupo_109247" data-name="Grupo 109247" transform="translate(0 0)">
              <g id="Grupo_109245" data-name="Grupo 109245" transform="translate(0 12.603)">
                <rect id="Rectángulo_40308" data-name="Rectángulo 40308" width="4.202" height="9.068" transform="translate(2.088 0) rotate(13.191)" fill="#5793ce"/>
                <path id="Trazado_116902" data-name="Trazado 116902" d="M473.111,171.069a3.286,3.286,0,0,1-2.893-.679.906.906,0,0,1,.392-1.67,3.286,3.286,0,0,1,2.893.679A.906.906,0,0,1,473.111,171.069Z" transform="translate(-469.796 -160.586)" fill="#5793ce"/>
              </g>
              <g id="Grupo_109246" data-name="Grupo 109246" transform="translate(0.427)">
                <rect id="Rectángulo_40309" data-name="Rectángulo 40309" width="6.81" height="14.223" transform="translate(3.276 0) rotate(13.192)" fill="#5793ce"/>
                <path id="Trazado_116903" data-name="Trazado 116903" d="M471.335,163.36l-.7,2.988a5.438,5.438,0,0,0,4.092.959l.7-2.988A5.438,5.438,0,0,0,471.335,163.36Z" transform="translate(-470.015 -149.305)" fill="#396caa"/>
                <path id="Trazado_116904" data-name="Trazado 116904" d="M475.51,166.114a5.323,5.323,0,0,1-4.688-1.1c-1.119-1.05-.836-2.263.635-2.707a5.324,5.324,0,0,1,4.687,1.1C477.264,164.458,476.98,165.669,475.51,166.114Z" transform="translate(-470.138 -149.586)" fill="#5793ce"/>
              </g>
            </g>
          </g>
          <path id="Trazado_116905" data-name="Trazado 116905" d="M471.374,169.2a.425.425,0,0,1-.771.233,1.542,1.542,0,0,1-.4-1.335.425.425,0,0,1,.771-.232A1.544,1.544,0,0,1,471.374,169.2Z" transform="translate(-469.702 -148.213)" fill="#d4ecff"/>
        </g>
      </g>
      <g id="Grupo_109256" data-name="Grupo 109256" transform="translate(39.7 56.832)">
        <g id="Grupo_109252" data-name="Grupo 109252">
          <path id="Trazado_116906" data-name="Trazado 116906" d="M437.953,314.2l-91.034-52.558c-2.575-1.486-2.252-4.083.721-5.8l61.987-35.776c2.974-1.717,7.472-1.9,10.046-.417L510.707,272.2c2.575,1.487,2.252,4.083-.721,5.8L448,313.781C445.025,315.5,440.528,315.684,437.953,314.2Z" transform="translate(-345.181 -125.977)" fill="#b2d3ea"/>
          <path id="Trazado_116907" data-name="Trazado 116907" d="M516.724,197.486,425.69,144.928a3.674,3.674,0,0,0-3.085-.378l.006-.01-.166.062-.04.016-3.29,1.259,2.953,1.446c-.014.054-.03.1-.042.16l-14.828,67.5c-.742,3.377.745,7.321,3.32,8.808l88.843,51.294-.316,3.765,3.6-1.394a5.056,5.056,0,0,0,2.575-3.663l14.827-67.5C520.785,202.916,519.3,198.973,516.724,197.486Z" transform="translate(-329.876 -144.365)" fill="#173d7a"/>
          <path id="Trazado_116908" data-name="Trazado 116908" d="M515.683,197.486l-91.034-52.558a3.674,3.674,0,0,0-3.085-.378l.006-.01-.166.062-.04.016-3.29,1.259,2.953,1.446c-.014.054-.03.1-.042.16l-9.773,44.484,44.541,34.7,62.805-25.555A7.067,7.067,0,0,0,515.683,197.486Z" transform="translate(-328.835 -144.365)" fill="#396caa"/>
          <path id="Trazado_116909" data-name="Trazado 116909" d="M493.56,197.224l6.93-2.95a8.678,8.678,0,0,0-2.808-6.939l-10.968,4.613Z" transform="translate(-310.144 -133.728)" fill="#274f89"/>
          <path id="Trazado_116910" data-name="Trazado 116910" d="M497.006,278.236l-91.033-52.558c-2.575-1.487-4.061-5.431-3.32-8.809l14.828-67.495c.742-3.377,3.431-4.91,6.006-3.423l91.034,52.558c2.575,1.486,4.061,5.429,3.32,8.808l-14.828,67.495C502.271,278.19,499.582,279.723,497.006,278.236Z" transform="translate(-331 -144.113)" fill="#d4ecff"/>
          <path id="Trazado_116911" data-name="Trazado 116911" d="M494.291,272.234l-85.616-49.407c-2.357-1.36-3.716-4.969-3.036-8.059L419.207,153c.679-3.09,3.14-4.494,5.5-3.133l85.614,49.405c2.357,1.361,3.716,4.969,3.038,8.06L499.786,269.1C499.108,272.191,496.647,273.593,494.291,272.234Z" transform="translate(-330.258 -143.131)" fill="#fff"/>
          <path id="Trazado_116912" data-name="Trazado 116912" d="M494.291,272.234l-85.616-49.407c-2.357-1.36-3.716-4.969-3.036-8.059L419.207,153c.679-3.09,3.14-4.494,5.5-3.133l85.614,49.405c2.357,1.361,3.716,4.969,3.038,8.06L499.786,269.1C499.108,272.191,496.647,273.593,494.291,272.234Z" transform="translate(-330.258 -143.131)" fill="#fff"/>
          <path id="Trazado_116913" data-name="Trazado 116913" d="M512.443,263.437,500,261.794l-80.327-46.376c-2.575-1.487-7.072-1.3-10.047.415l-56.918,32.85-7.525-.993v4.269h.007a2.932,2.932,0,0,0,1.728,2.637l91.034,52.558c2.575,1.486,7.072,1.3,10.047-.417l61.987-35.776c1.673-.967,2.506-2.211,2.458-3.38h0Z" transform="translate(-345.18 -127.024)" fill="#173d7a"/>
          <path id="Trazado_116914" data-name="Trazado 116914" d="M452.089,230.873l-5.708-3.295H383.639l-30.931,17.846-7.525-.993V248.7h.007a2.932,2.932,0,0,0,1.728,2.637L437.952,303.9a9.419,9.419,0,0,0,5.185.971Z" transform="translate(-345.18 -123.765)" fill="#396caa"/>
          <path id="Trazado_116915" data-name="Trazado 116915" d="M348.523,241.527l-3.34-.44v4.269h.007a2.932,2.932,0,0,0,1.728,2.637l1.6.926Z" transform="translate(-345.18 -120.421)" fill="#5793ce"/>
          <path id="Trazado_116916" data-name="Trazado 116916" d="M420.278,291.089a11.662,11.662,0,0,0,8.537-.53v-9.523h-8.537Z" transform="translate(-326.59 -110.532)" fill="#274f89"/>
          <path id="Trazado_116917" data-name="Trazado 116917" d="M437.953,304.295l-91.034-52.558c-2.575-1.486-2.252-4.083.721-5.8l61.987-35.776c2.974-1.717,7.472-1.9,10.046-.417L510.707,262.3c2.575,1.487,2.252,4.083-.721,5.8L448,303.879C445.025,305.6,440.528,305.782,437.953,304.295Z" transform="translate(-345.181 -128.429)" fill="#d4ecff"/>
          <path id="Trazado_116918" data-name="Trazado 116918" d="M509.985,258.668,448,294.445c-2.974,1.717-7.471,1.9-10.046.417L346.918,242.3a3.386,3.386,0,0,1-1.6-1.752c-.4,1.218.111,2.45,1.6,3.311l91.034,52.557c2.575,1.487,7.072,1.3,10.046-.415l61.987-35.776c2-1.154,2.793-2.7,2.322-4.051A4.833,4.833,0,0,1,509.985,258.668Z" transform="translate(-345.179 -120.554)" fill="#fff"/>
          <g id="Grupo_109251" data-name="Grupo 109251" transform="translate(36.114 83.548)">
            <path id="Trazado_116919" data-name="Trazado 116919" d="M378.471,230.471l-4.119-2.378c-.331-.191-.288-.524.094-.745l4.862-2.807a1.433,1.433,0,0,1,1.29-.054l4.118,2.378c.332.191.289.525-.092.745l-4.862,2.807A1.433,1.433,0,0,1,378.471,230.471Z" transform="translate(-374.128 -208.111)" fill="#173d7a"/>
            <path id="Trazado_116920" data-name="Trazado 116920" d="M383.57,233.415l-4.119-2.378c-.331-.191-.289-.525.092-.745l4.862-2.807a1.435,1.435,0,0,1,1.291-.054l4.118,2.378c.331.191.289.524-.092.745l-4.862,2.807A1.432,1.432,0,0,1,383.57,233.415Z" transform="translate(-372.866 -207.382)" fill="#173d7a"/>
            <path id="Trazado_116921" data-name="Trazado 116921" d="M388.667,236.359l-4.118-2.379c-.331-.191-.289-.524.092-.745l4.862-2.807a1.433,1.433,0,0,1,1.29-.052l4.119,2.378c.331.191.289.524-.094.745l-4.862,2.807A1.433,1.433,0,0,1,388.667,236.359Z" transform="translate(-371.604 -206.653)" fill="#173d7a"/>
            <path id="Trazado_116922" data-name="Trazado 116922" d="M395.72,233.838l-4.119-2.379c-.331-.191-.289-.524.094-.745l4.081-2.355a1.433,1.433,0,0,1,1.29-.054l4.119,2.378c.331.191.289.524-.094.745l-4.081,2.357A1.437,1.437,0,0,1,395.72,233.838Z" transform="translate(-369.858 -207.165)" fill="#173d7a"/>
            <path id="Trazado_116923" data-name="Trazado 116923" d="M400.819,236.781,396.7,234.4c-.331-.191-.289-.524.092-.745l4.082-2.357a1.436,1.436,0,0,1,1.29-.054l4.118,2.379c.331.191.289.524-.092.745l-4.081,2.355A1.432,1.432,0,0,1,400.819,236.781Z" transform="translate(-368.596 -206.437)" fill="#173d7a"/>
            <path id="Trazado_116924" data-name="Trazado 116924" d="M405.917,239.725l-4.118-2.378c-.332-.191-.289-.525.092-.745l4.081-2.357a1.433,1.433,0,0,1,1.29-.054l4.119,2.378c.331.191.289.525-.092.745l-4.082,2.357A1.433,1.433,0,0,1,405.917,239.725Z" transform="translate(-367.334 -205.708)" fill="#173d7a"/>
            <path id="Trazado_116925" data-name="Trazado 116925" d="M411.016,242.669l-4.119-2.378c-.331-.192-.289-.525.094-.746l4.081-2.355a1.433,1.433,0,0,1,1.29-.054l4.119,2.378c.331.191.288.524-.094.745l-4.081,2.357A1.433,1.433,0,0,1,411.016,242.669Z" transform="translate(-366.072 -204.979)" fill="#173d7a"/>
            <path id="Trazado_116926" data-name="Trazado 116926" d="M416.113,245.612,412,243.234c-.331-.191-.289-.524.092-.745l4.081-2.357a1.439,1.439,0,0,1,1.291-.052l4.118,2.378c.331.191.289.524-.092.745L417.4,245.56A1.439,1.439,0,0,1,416.113,245.612Z" transform="translate(-364.81 -204.251)" fill="#173d7a"/>
            <path id="Trazado_116927" data-name="Trazado 116927" d="M421.213,248.556l-4.118-2.378c-.332-.191-.289-.524.092-.745l4.081-2.357a1.432,1.432,0,0,1,1.29-.054l4.119,2.378c.331.191.289.525-.092.746L422.5,248.5A1.433,1.433,0,0,1,421.213,248.556Z" transform="translate(-363.548 -203.522)" fill="#173d7a"/>
            <path id="Trazado_116928" data-name="Trazado 116928" d="M426.312,251.5l-4.12-2.378c-.331-.191-.289-.525.092-.745l4.082-2.357a1.433,1.433,0,0,1,1.29-.054l4.119,2.378c.331.191.288.524-.094.745l-4.081,2.357A1.433,1.433,0,0,1,426.312,251.5Z" transform="translate(-362.285 -202.793)" fill="#173d7a"/>
            <path id="Trazado_116929" data-name="Trazado 116929" d="M431.409,254.443l-4.118-2.378c-.331-.191-.289-.524.092-.745l4.081-2.355a1.435,1.435,0,0,1,1.291-.054l4.118,2.378c.331.191.289.524-.092.745l-4.081,2.357A1.435,1.435,0,0,1,431.409,254.443Z" transform="translate(-361.023 -202.064)" fill="#173d7a"/>
            <path id="Trazado_116930" data-name="Trazado 116930" d="M436.509,257.387l-4.12-2.378c-.331-.191-.288-.524.094-.745l4.081-2.357a1.437,1.437,0,0,1,1.29-.054l4.119,2.379c.331.191.289.524-.092.745l-4.082,2.355A1.433,1.433,0,0,1,436.509,257.387Z" transform="translate(-359.761 -201.336)" fill="#173d7a"/>
            <path id="Trazado_116931" data-name="Trazado 116931" d="M441.608,260.331l-4.119-2.378c-.331-.191-.289-.525.092-.745l4.082-2.357a1.433,1.433,0,0,1,1.29-.054l4.118,2.378c.331.191.289.525-.092.745l-4.081,2.357A1.433,1.433,0,0,1,441.608,260.331Z" transform="translate(-358.499 -200.607)" fill="#173d7a"/>
            <path id="Trazado_116932" data-name="Trazado 116932" d="M403.231,232.444l-4.118-2.378c-.331-.191-.289-.525.092-.745l4.081-2.357a1.435,1.435,0,0,1,1.291-.054l4.118,2.378c.331.191.289.525-.092.745l-4.081,2.357A1.435,1.435,0,0,1,403.231,232.444Z" transform="translate(-367.999 -207.51)" fill="#396caa"/>
            <path id="Trazado_116933" data-name="Trazado 116933" d="M398.058,229.456l-4.119-2.378c-.331-.191-.289-.524.092-.745l4.082-2.357a1.432,1.432,0,0,1,1.29-.052l4.118,2.378c.332.191.289.524-.092.745l-4.081,2.355A1.433,1.433,0,0,1,398.058,229.456Z" transform="translate(-369.28 -208.25)" fill="#396caa"/>
            <path id="Trazado_116934" data-name="Trazado 116934" d="M393.816,227.009l-8.87-5.122c-.331-.191-.289-.524.092-.745l4.081-2.355a1.435,1.435,0,0,1,1.291-.054l8.87,5.121c.331.191.289.525-.092.745l-4.081,2.357A1.435,1.435,0,0,1,393.816,227.009Z" transform="translate(-371.506 -209.535)" fill="#173d7a"/>
            <path id="Trazado_116935" data-name="Trazado 116935" d="M397.109,223.178l-7.2-4.157c-.331-.191-.289-.524.092-.745l4.081-2.357a1.435,1.435,0,0,1,1.291-.054l7.2,4.157c.331.191.289.524-.092.745l-4.081,2.357A1.437,1.437,0,0,1,397.109,223.178Z" transform="translate(-370.277 -210.245)" fill="#173d7a"/>
            <path id="Trazado_116936" data-name="Trazado 116936" d="M408.331,235.388l-4.119-2.379c-.331-.191-.288-.524.094-.745l4.081-2.355a1.433,1.433,0,0,1,1.29-.054l4.119,2.378c.331.191.289.524-.092.745l-4.082,2.357A1.436,1.436,0,0,1,408.331,235.388Z" transform="translate(-366.737 -206.782)" fill="#396caa"/>
            <path id="Trazado_116937" data-name="Trazado 116937" d="M413.43,238.331l-4.119-2.378c-.331-.191-.289-.524.092-.745l4.082-2.357a1.432,1.432,0,0,1,1.29-.052l4.118,2.378c.332.191.289.524-.092.745l-4.081,2.355A1.432,1.432,0,0,1,413.43,238.331Z" transform="translate(-365.474 -206.053)" fill="#173d7a"/>
            <path id="Trazado_116938" data-name="Trazado 116938" d="M418.527,241.275l-4.118-2.378c-.331-.191-.289-.525.092-.745l4.081-2.357a1.435,1.435,0,0,1,1.291-.054l4.118,2.378c.331.191.289.525-.092.745l-4.081,2.357A1.435,1.435,0,0,1,418.527,241.275Z" transform="translate(-364.212 -205.324)" fill="#173d7a"/>
            <path id="Trazado_116939" data-name="Trazado 116939" d="M423.627,244.219l-4.119-2.378c-.331-.191-.288-.525.094-.746l4.081-2.355a1.433,1.433,0,0,1,1.29-.054l4.119,2.378c.331.191.289.524-.094.745l-4.081,2.357A1.433,1.433,0,0,1,423.627,244.219Z" transform="translate(-362.95 -204.596)" fill="#173d7a"/>
            <path id="Trazado_116940" data-name="Trazado 116940" d="M428.726,247.162l-4.119-2.378c-.331-.191-.289-.524.092-.745l4.082-2.355a1.433,1.433,0,0,1,1.29-.054l4.118,2.378c.33.191.289.524-.092.745l-4.081,2.357A1.436,1.436,0,0,1,428.726,247.162Z" transform="translate(-361.688 -203.867)" fill="#173d7a"/>
            <path id="Trazado_116941" data-name="Trazado 116941" d="M433.823,250.106l-4.118-2.378c-.331-.191-.289-.524.092-.745l4.081-2.357a1.432,1.432,0,0,1,1.29-.054l4.119,2.378c.331.192.289.525-.092.746l-4.082,2.355A1.433,1.433,0,0,1,433.823,250.106Z" transform="translate(-360.426 -203.138)" fill="#173d7a"/>
            <path id="Trazado_116942" data-name="Trazado 116942" d="M438.923,253.05l-4.119-2.378c-.331-.191-.289-.525.094-.745l4.081-2.357a1.433,1.433,0,0,1,1.29-.054l4.119,2.378c.331.191.288.525-.094.745L440.213,253A1.433,1.433,0,0,1,438.923,253.05Z" transform="translate(-359.164 -202.41)" fill="#173d7a"/>
            <path id="Trazado_116943" data-name="Trazado 116943" d="M444.022,255.994l-4.119-2.379c-.331-.191-.289-.524.092-.745l4.081-2.355a1.435,1.435,0,0,1,1.291-.054l4.118,2.378c.331.191.289.524-.092.745l-4.081,2.357A1.437,1.437,0,0,1,444.022,255.994Z" transform="translate(-357.901 -201.681)" fill="#173d7a"/>
            <path id="Trazado_116944" data-name="Trazado 116944" d="M449.12,258.937,445,256.56c-.332-.191-.289-.524.092-.745l4.081-2.357a1.437,1.437,0,0,1,1.29-.054l4.119,2.379c.331.191.289.524-.092.745l-4.082,2.355A1.433,1.433,0,0,1,449.12,258.937Z" transform="translate(-356.639 -200.952)" fill="#173d7a"/>
            <path id="Trazado_116945" data-name="Trazado 116945" d="M459.149,264.728l-8.986-5.189c-.331-.191-.289-.524.092-.745l4.081-2.355a1.433,1.433,0,0,1,1.29-.054l8.987,5.189c.331.191.289.524-.092.745l-4.081,2.357A1.435,1.435,0,0,1,459.149,264.728Z" transform="translate(-355.361 -200.214)" fill="#173d7a"/>
            <path id="Trazado_116946" data-name="Trazado 116946" d="M468.8,258.837l-7.586-4.379c-.331-.191-.288-.524.094-.745l4.081-2.357a1.433,1.433,0,0,1,1.29-.054l7.586,4.38c.331.191.288.524-.094.745l-4.081,2.357A1.432,1.432,0,0,1,468.8,258.837Z" transform="translate(-352.626 -201.472)" fill="#173d7a"/>
            <path id="Trazado_116947" data-name="Trazado 116947" d="M417.26,234.812l-4.119-2.378c-.331-.192-.289-.525.094-.746l4.081-2.355a1.433,1.433,0,0,1,1.29-.054l4.119,2.378c.331.191.288.524-.094.745l-4.081,2.357A1.433,1.433,0,0,1,417.26,234.812Z" transform="translate(-364.526 -206.924)" fill="#173d7a"/>
            <path id="Trazado_116948" data-name="Trazado 116948" d="M412.034,231.8l-4.118-2.378c-.331-.191-.289-.525.092-.746l4.081-2.355a1.435,1.435,0,0,1,1.291-.054l4.118,2.378c.331.191.289.524-.092.745l-4.081,2.357A1.435,1.435,0,0,1,412.034,231.8Z" transform="translate(-365.82 -207.671)" fill="#173d7a"/>
            <path id="Trazado_116949" data-name="Trazado 116949" d="M406.809,228.778l-4.119-2.378c-.331-.191-.288-.525.094-.745l4.081-2.357a1.433,1.433,0,0,1,1.29-.054l4.119,2.378c.331.191.289.525-.094.745l-4.081,2.357A1.433,1.433,0,0,1,406.809,228.778Z" transform="translate(-367.113 -208.418)" fill="#396caa"/>
            <path id="Trazado_116950" data-name="Trazado 116950" d="M401.582,225.761l-4.118-2.378c-.331-.191-.289-.525.092-.745l4.081-2.357a1.435,1.435,0,0,1,1.291-.054l4.118,2.378c.331.191.289.525-.092.745l-4.081,2.357A1.435,1.435,0,0,1,401.582,225.761Z" transform="translate(-368.407 -209.165)" fill="#173d7a"/>
            <path id="Trazado_116951" data-name="Trazado 116951" d="M422.358,237.755l-4.118-2.378c-.331-.191-.289-.524.092-.745l4.082-2.357a1.436,1.436,0,0,1,1.29-.052l4.118,2.378c.331.191.289.524-.092.745l-4.081,2.357A1.439,1.439,0,0,1,422.358,237.755Z" transform="translate(-363.264 -206.196)" fill="#173d7a"/>
            <path id="Trazado_116952" data-name="Trazado 116952" d="M427.457,240.7l-4.118-2.378c-.332-.191-.289-.524.092-.745l4.081-2.357a1.433,1.433,0,0,1,1.29-.054l4.119,2.378c.331.191.289.525-.092.746l-4.082,2.355A1.433,1.433,0,0,1,427.457,240.7Z" transform="translate(-362.002 -205.467)" fill="#173d7a"/>
            <path id="Trazado_116953" data-name="Trazado 116953" d="M432.556,243.643l-4.119-2.378c-.331-.191-.289-.525.092-.746l4.082-2.355a1.433,1.433,0,0,1,1.29-.054l4.119,2.378c.331.191.288.524-.094.745l-4.081,2.357A1.433,1.433,0,0,1,432.556,243.643Z" transform="translate(-360.74 -204.738)" fill="#173d7a"/>
            <path id="Trazado_116954" data-name="Trazado 116954" d="M437.653,246.586l-4.118-2.378c-.331-.191-.289-.524.092-.745l4.081-2.357a1.439,1.439,0,0,1,1.291-.052l4.118,2.378c.331.191.289.524-.092.745l-4.081,2.357A1.435,1.435,0,0,1,437.653,246.586Z" transform="translate(-359.477 -204.009)" fill="#173d7a"/>
            <path id="Trazado_116955" data-name="Trazado 116955" d="M442.753,249.53l-4.119-2.378c-.331-.191-.288-.524.094-.745l4.081-2.357A1.437,1.437,0,0,1,444.1,244l4.119,2.379c.331.191.289.524-.092.745l-4.082,2.355A1.433,1.433,0,0,1,442.753,249.53Z" transform="translate(-358.215 -203.281)" fill="#173d7a"/>
            <path id="Trazado_116956" data-name="Trazado 116956" d="M447.852,252.474l-4.119-2.378c-.331-.191-.289-.525.092-.745L447.907,247a1.433,1.433,0,0,1,1.29-.054l4.118,2.378c.332.191.289.525-.092.745l-4.081,2.357A1.433,1.433,0,0,1,447.852,252.474Z" transform="translate(-356.953 -202.552)" fill="#173d7a"/>
            <path id="Trazado_116957" data-name="Trazado 116957" d="M452.95,255.418l-4.118-2.379c-.331-.191-.289-.524.092-.745L453,249.939a1.433,1.433,0,0,1,1.29-.054l4.119,2.378c.331.191.289.524-.092.745l-4.081,2.357A1.439,1.439,0,0,1,452.95,255.418Z" transform="translate(-355.691 -201.823)" fill="#173d7a"/>
            <path id="Trazado_116958" data-name="Trazado 116958" d="M458.049,258.361l-4.119-2.378c-.331-.191-.288-.524.094-.745l4.081-2.357a1.437,1.437,0,0,1,1.29-.054l4.119,2.379c.331.191.29.524-.092.745l-4.082,2.355A1.433,1.433,0,0,1,458.049,258.361Z" transform="translate(-354.429 -201.095)" fill="#173d7a"/>
            <path id="Trazado_116959" data-name="Trazado 116959" d="M463.148,261.306l-4.119-2.378c-.331-.191-.289-.525.092-.745l4.082-2.357a1.433,1.433,0,0,1,1.29-.054l4.118,2.378c.331.191.289.525-.092.745l-4.081,2.357A1.433,1.433,0,0,1,463.148,261.306Z" transform="translate(-353.167 -200.366)" fill="#173d7a"/>
            <path id="Trazado_116960" data-name="Trazado 116960" d="M414.575,227.531l-4.118-2.379c-.332-.191-.289-.524.092-.745l4.081-2.355a1.433,1.433,0,0,1,1.29-.054l4.119,2.378c.331.191.289.524-.092.745l-4.082,2.357A1.436,1.436,0,0,1,414.575,227.531Z" transform="translate(-365.191 -208.727)" fill="#173d7a"/>
            <path id="Trazado_116961" data-name="Trazado 116961" d="M409.5,224.6l-4.119-2.379c-.331-.191-.289-.524.094-.745l4.081-2.355a1.433,1.433,0,0,1,1.29-.054l4.119,2.378c.331.191.288.524-.094.745l-4.081,2.357A1.437,1.437,0,0,1,409.5,224.6Z" transform="translate(-366.447 -209.452)" fill="#173d7a"/>
            <path id="Trazado_116962" data-name="Trazado 116962" d="M404.429,221.673l-4.119-2.379c-.331-.191-.289-.524.092-.745l4.082-2.355a1.432,1.432,0,0,1,1.29-.054l4.118,2.378c.331.191.289.524-.092.745l-4.081,2.357A1.437,1.437,0,0,1,404.429,221.673Z" transform="translate(-367.703 -210.177)" fill="#173d7a"/>
            <path id="Trazado_116963" data-name="Trazado 116963" d="M399.354,218.743l-4.118-2.378c-.331-.191-.289-.524.092-.745l4.081-2.355a1.433,1.433,0,0,1,1.29-.054l4.119,2.378c.331.191.289.524-.092.745l-4.081,2.357A1.435,1.435,0,0,1,399.354,218.743Z" transform="translate(-368.958 -210.902)" fill="#173d7a"/>
            <path id="Trazado_116964" data-name="Trazado 116964" d="M404.572,215.42l-4.118-2.379c-.332-.191-.289-.524.092-.745l1.349-.778a1.433,1.433,0,0,1,1.29-.054l4.119,2.378c.331.191.289.525-.092.745l-1.35.78A1.436,1.436,0,0,1,404.572,215.42Z" transform="translate(-367.667 -211.335)" fill="#173d7a"/>
            <path id="Trazado_116965" data-name="Trazado 116965" d="M411.193,219.241l-4.119-2.378c-.331-.191-.289-.525.092-.745l1.35-.78a1.437,1.437,0,0,1,1.29-.054l4.119,2.379c.331.191.289.524-.094.745l-1.349.778A1.433,1.433,0,0,1,411.193,219.241Z" transform="translate(-366.028 -210.388)" fill="#173d7a"/>
            <path id="Trazado_116966" data-name="Trazado 116966" d="M416.245,222.159l-4.119-2.378c-.331-.191-.288-.525.094-.745l1.349-.78a1.433,1.433,0,0,1,1.29-.054l4.119,2.378c.331.192.289.525-.092.746l-1.35.778A1.433,1.433,0,0,1,416.245,222.159Z" transform="translate(-364.777 -209.666)" fill="#173d7a"/>
            <path id="Trazado_116967" data-name="Trazado 116967" d="M421.3,225.076l-4.119-2.379c-.331-.191-.288-.524.094-.745l1.349-.778a1.433,1.433,0,0,1,1.29-.054l4.119,2.378c.331.191.289.525-.092.745l-1.35.78A1.437,1.437,0,0,1,421.3,225.076Z" transform="translate(-363.527 -208.944)" fill="#173d7a"/>
            <path id="Trazado_116968" data-name="Trazado 116968" d="M426.349,227.993l-4.118-2.379c-.332-.191-.289-.524.092-.745l1.349-.778a1.432,1.432,0,0,1,1.29-.054l4.119,2.378c.331.191.289.525-.092.745l-1.35.78A1.437,1.437,0,0,1,426.349,227.993Z" transform="translate(-362.276 -208.222)" fill="#173d7a"/>
            <path id="Trazado_116969" data-name="Trazado 116969" d="M454.553,244.277l-4.118-2.378c-.331-.191-.289-.525.092-.745l1.35-.78a1.433,1.433,0,0,1,1.29-.054l4.118,2.378c.331.192.289.525-.092.746l-1.349.779A1.435,1.435,0,0,1,454.553,244.277Z" transform="translate(-355.294 -204.191)" fill="#173d7a"/>
            <path id="Trazado_116970" data-name="Trazado 116970" d="M459.607,247.194l-4.119-2.379c-.331-.191-.289-.524.092-.745l1.35-.778a1.433,1.433,0,0,1,1.29-.054l4.118,2.378c.332.191.289.525-.092.745l-1.349.78A1.433,1.433,0,0,1,459.607,247.194Z" transform="translate(-354.043 -203.469)" fill="#173d7a"/>
            <path id="Trazado_116971" data-name="Trazado 116971" d="M464.659,250.109l-4.12-2.378c-.331-.191-.289-.524.092-.745l1.35-.779a1.432,1.432,0,0,1,1.29-.054l4.119,2.378c.331.191.288.525-.094.745l-1.349.78A1.432,1.432,0,0,1,464.659,250.109Z" transform="translate(-352.793 -202.747)" fill="#173d7a"/>
            <path id="Trazado_116972" data-name="Trazado 116972" d="M469.711,253.026l-4.119-2.378c-.331-.191-.289-.524.092-.745l1.35-.778a1.433,1.433,0,0,1,1.29-.054l4.119,2.378c.331.191.289.524-.094.745l-1.349.778A1.433,1.433,0,0,1,469.711,253.026Z" transform="translate(-351.542 -202.025)" fill="#173d7a"/>
            <path id="Trazado_116973" data-name="Trazado 116973" d="M419.674,230.474l-4.119-2.378c-.331-.191-.289-.524.092-.745L419.729,225a1.432,1.432,0,0,1,1.29-.052l4.119,2.378c.331.191.288.524-.094.745l-4.081,2.355A1.433,1.433,0,0,1,419.674,230.474Z" transform="translate(-363.929 -207.998)" fill="#173d7a"/>
            <path id="Trazado_116974" data-name="Trazado 116974" d="M424.771,233.418l-4.118-2.378c-.331-.191-.289-.525.092-.745l4.081-2.357a1.435,1.435,0,0,1,1.291-.054l4.118,2.378c.331.191.289.525-.092.745l-4.081,2.357A1.435,1.435,0,0,1,424.771,233.418Z" transform="translate(-362.667 -207.269)" fill="#173d7a"/>
            <path id="Trazado_116975" data-name="Trazado 116975" d="M429.871,236.362l-4.119-2.378c-.331-.191-.288-.525.094-.746l4.081-2.355a1.432,1.432,0,0,1,1.29-.054l4.119,2.378c.331.191.289.524-.092.745l-4.082,2.357A1.433,1.433,0,0,1,429.871,236.362Z" transform="translate(-361.404 -206.541)" fill="#173d7a"/>
            <path id="Trazado_116976" data-name="Trazado 116976" d="M434.97,239.305l-4.119-2.378c-.331-.191-.289-.524.092-.745l4.082-2.357a1.436,1.436,0,0,1,1.29-.052l4.118,2.378c.332.191.289.524-.092.745l-4.081,2.357A1.436,1.436,0,0,1,434.97,239.305Z" transform="translate(-360.142 -205.812)" fill="#173d7a"/>
            <path id="Trazado_116977" data-name="Trazado 116977" d="M440.067,242.249l-4.118-2.378c-.331-.191-.289-.524.092-.745l4.081-2.357a1.435,1.435,0,0,1,1.291-.054l4.118,2.378c.331.192.289.525-.092.746l-4.082,2.355A1.433,1.433,0,0,1,440.067,242.249Z" transform="translate(-358.88 -205.083)" fill="#173d7a"/>
            <path id="Trazado_116978" data-name="Trazado 116978" d="M445.167,245.193l-4.119-2.378c-.331-.191-.289-.525.094-.745l4.081-2.357a1.433,1.433,0,0,1,1.29-.054l4.119,2.378c.331.191.289.525-.094.745l-4.081,2.357A1.433,1.433,0,0,1,445.167,245.193Z" transform="translate(-357.618 -204.354)" fill="#173d7a"/>
            <path id="Trazado_116979" data-name="Trazado 116979" d="M450.266,248.137l-4.119-2.379c-.331-.191-.289-.524.092-.745l4.082-2.355a1.433,1.433,0,0,1,1.29-.054l4.118,2.378c.331.191.289.524-.092.745l-4.081,2.357A1.437,1.437,0,0,1,450.266,248.137Z" transform="translate(-356.356 -203.626)" fill="#173d7a"/>
            <path id="Trazado_116980" data-name="Trazado 116980" d="M455.363,251.08l-4.118-2.378c-.331-.191-.289-.524.092-.745l4.081-2.357a1.437,1.437,0,0,1,1.29-.054l4.119,2.379c.331.191.289.524-.092.745l-4.082,2.355A1.433,1.433,0,0,1,455.363,251.08Z" transform="translate(-355.093 -202.897)" fill="#173d7a"/>
            <path id="Trazado_116981" data-name="Trazado 116981" d="M460.463,254.024l-4.119-2.378c-.331-.191-.289-.525.092-.745l4.082-2.357a1.433,1.433,0,0,1,1.29-.054l4.119,2.378c.331.191.288.525-.094.745l-4.081,2.357A1.433,1.433,0,0,1,460.463,254.024Z" transform="translate(-353.831 -202.168)" fill="#173d7a"/>
            <path id="Trazado_116982" data-name="Trazado 116982" d="M392.113,231.756l-12.13-7c-.332-.191-.289-.524.092-.745l4.081-2.357a1.433,1.433,0,0,1,1.29-.054l12.131,7c.331.191.289.524-.092.745L393.4,231.7A1.433,1.433,0,0,1,392.113,231.756Z" transform="translate(-372.734 -208.826)" fill="#173d7a"/>
            <path id="Trazado_116983" data-name="Trazado 116983" d="M454.751,267.92l-12.131-7c-.331-.191-.288-.524.094-.745l4.081-2.357a1.433,1.433,0,0,1,1.29-.054l12.131,7c.331.191.289.525-.094.745l-4.081,2.357A1.433,1.433,0,0,1,454.751,267.92Z" transform="translate(-357.228 -199.874)" fill="#173d7a"/>
            <path id="Trazado_116984" data-name="Trazado 116984" d="M432.772,261.822l-4.119-2.378c-.331-.191-.289-.525.094-.745l4.86-2.807a1.435,1.435,0,0,1,1.291-.054l4.118,2.378c.331.191.289.524-.092.745l-4.862,2.807A1.432,1.432,0,0,1,432.772,261.822Z" transform="translate(-360.686 -200.35)" fill="#173d7a"/>
            <path id="Trazado_116985" data-name="Trazado 116985" d="M396.234,240.728l-6.587-3.8c-.331-.191-.289-.524.094-.745l4.862-2.807a1.433,1.433,0,0,1,1.29-.054l6.587,3.8c.331.191.289.524-.092.745l-4.862,2.807A1.435,1.435,0,0,1,396.234,240.728Z" transform="translate(-370.342 -205.924)" fill="#173d7a"/>
            <path id="Trazado_116986" data-name="Trazado 116986" d="M428.348,259.269l-6.587-3.8c-.331-.191-.289-.524.092-.745l4.862-2.807a1.435,1.435,0,0,1,1.291-.054l6.587,3.8c.331.191.289.524-.094.745l-4.862,2.807A1.437,1.437,0,0,1,428.348,259.269Z" transform="translate(-362.392 -201.335)" fill="#173d7a"/>
            <path id="Trazado_116987" data-name="Trazado 116987" d="M403.591,244.975l-6.588-3.8c-.331-.191-.288-.524.094-.745l4.862-2.807a1.433,1.433,0,0,1,1.29-.054l6.587,3.8c.331.191.289.524-.092.745l-4.862,2.807A1.433,1.433,0,0,1,403.591,244.975Z" transform="translate(-368.521 -204.873)" fill="#173d7a"/>
            <path id="Trazado_116988" data-name="Trazado 116988" d="M403.24,237.561,431.879,254.1a.392.392,0,0,1,0,.744l-4.958,2.862a1.424,1.424,0,0,1-1.286,0l-28.64-16.535Z" transform="translate(-368.468 -204.842)" fill="#173d7a"/>
            <path id="Trazado_116989" data-name="Trazado 116989" d="M446.816,265.967l4.587,2.649c.272.157.237.43-.076.611l-1.989,1.148a1.171,1.171,0,0,1-1.057.044l-4.588-2.649c-.271-.156-.237-.43.076-.61l1.989-1.149A1.177,1.177,0,0,1,446.816,265.967Z" transform="translate(-356.953 -197.837)" fill="#173d7a"/>
            <path id="Trazado_116990" data-name="Trazado 116990" d="M441.675,263l4.587,2.649c.272.157.237.43-.075.611l-1.99,1.148a1.171,1.171,0,0,1-1.057.044l-4.588-2.649c-.271-.156-.237-.43.076-.61l1.989-1.149A1.177,1.177,0,0,1,441.675,263Z" transform="translate(-358.226 -198.571)" fill="#173d7a"/>
            <path id="Trazado_116991" data-name="Trazado 116991" d="M436.576,260.055l4.588,2.65c.271.156.237.429-.076.61l-1.989,1.148a1.178,1.178,0,0,1-1.058.045l-4.589-2.65c-.271-.156-.237-.429.076-.61l1.989-1.149A1.181,1.181,0,0,1,436.576,260.055Z" transform="translate(-359.488 -199.3)" fill="#173d7a"/>
            <path id="Trazado_116992" data-name="Trazado 116992" d="M444.49,261.373l4.588,2.65c.271.156.237.429-.076.61l-1.989,1.149a1.181,1.181,0,0,1-1.058.044l-4.587-2.65c-.272-.156-.237-.429.075-.61l1.99-1.148A1.175,1.175,0,0,1,444.49,261.373Z" transform="translate(-357.529 -198.974)" fill="#173d7a"/>
          </g>
        </g>
        <g id="Grupo_109255" data-name="Grupo 109255" transform="translate(81.557 18.932)">
          <g id="Grupo_109253" data-name="Grupo 109253">
            <path id="Trazado_116993" data-name="Trazado 116993" d="M438.442,172.324l-6.087-3.514a1.739,1.739,0,0,1-.742-1.8h0a.847.847,0,0,1,1.3-.621L439,169.9a1.741,1.741,0,0,1,.742,1.8h0A.847.847,0,0,1,438.442,172.324Z" transform="translate(-405.35 -157.879)" fill="#d4ecff"/>
            <path id="Trazado_116994" data-name="Trazado 116994" d="M450.637,179.365l-8.975-5.181a1.743,1.743,0,0,1-.743-1.8h0a.847.847,0,0,1,1.3-.623l8.976,5.182a1.741,1.741,0,0,1,.742,1.8h0A.847.847,0,0,1,450.637,179.365Z" transform="translate(-403.047 -156.549)" fill="#d4ecff"/>
            <path id="Trazado_116995" data-name="Trazado 116995" d="M429.937,195.1l-6.087-3.514a1.741,1.741,0,0,1-.742-1.8h0a.847.847,0,0,1,1.3-.623l6.087,3.514a1.743,1.743,0,0,1,.742,1.8h0A.847.847,0,0,1,429.937,195.1Z" transform="translate(-407.456 -152.241)" fill="#d4ecff"/>
            <path id="Trazado_116996" data-name="Trazado 116996" d="M440.87,201.411l-8.975-5.182a1.738,1.738,0,0,1-.742-1.8h0a.846.846,0,0,1,1.3-.623l8.976,5.182a1.741,1.741,0,0,1,.742,1.8h0A.847.847,0,0,1,440.87,201.411Z" transform="translate(-405.464 -151.091)" fill="#d4ecff"/>
            <path id="Trazado_116997" data-name="Trazado 116997" d="M423.6,168.367l-3.8-2.194a1.743,1.743,0,0,1-.742-1.8h0a.847.847,0,0,1,1.3-.623l3.8,2.2a1.742,1.742,0,0,1,.742,1.8h0A.846.846,0,0,1,423.6,168.367Z" transform="translate(-408.46 -158.532)" fill="#d4ecff"/>
            <path id="Trazado_116998" data-name="Trazado 116998" d="M434.54,179.3l-11.618-6.708a1.74,1.74,0,0,1-.742-1.8h0a.847.847,0,0,1,1.3-.623l11.617,6.708a1.74,1.74,0,0,1,.744,1.8h0A.848.848,0,0,1,434.54,179.3Z" transform="translate(-407.685 -156.943)" fill="#d4ecff"/>
            <path id="Trazado_116999" data-name="Trazado 116999" d="M424.846,182.931l-3.8-2.2a1.739,1.739,0,0,1-.744-1.8h0a.847.847,0,0,1,1.3-.623l3.8,2.2a1.739,1.739,0,0,1,.742,1.8h0A.846.846,0,0,1,424.846,182.931Z" transform="translate(-408.151 -154.927)" fill="#d4ecff"/>
            <path id="Trazado_117000" data-name="Trazado 117000" d="M442.672,211.681l-10.155-5.863a1.742,1.742,0,0,1-.744-1.8h0a.847.847,0,0,1,1.3-.623l10.156,5.865a1.738,1.738,0,0,1,.742,1.8h0A.847.847,0,0,1,442.672,211.681Z" transform="translate(-405.31 -148.718)" fill="#d4ecff"/>
            <path id="Trazado_117001" data-name="Trazado 117001" d="M421.6,190.288l-2.44-1.41a1.738,1.738,0,0,1-.742-1.8h0a.847.847,0,0,1,1.3-.623l2.44,1.41a1.739,1.739,0,0,1,.742,1.8h0A.847.847,0,0,1,421.6,190.288Z" transform="translate(-408.616 -152.911)" fill="#d4ecff"/>
            <path id="Trazado_117002" data-name="Trazado 117002" d="M420.314,198.771l-3.032-1.75a1.74,1.74,0,0,1-.742-1.8h0a.847.847,0,0,1,1.3-.623l3.03,1.75a1.74,1.74,0,0,1,.744,1.8h0A.847.847,0,0,1,420.314,198.771Z" transform="translate(-409.081 -150.895)" fill="#d4ecff"/>
            <path id="Trazado_117003" data-name="Trazado 117003" d="M430.751,204.8l-7.992-4.613a1.741,1.741,0,0,1-.742-1.8h0a.847.847,0,0,1,1.3-.621l7.991,4.613a1.74,1.74,0,0,1,.744,1.8h0A.847.847,0,0,1,430.751,204.8Z" transform="translate(-407.726 -150.112)" fill="#d4ecff"/>
            <path id="Trazado_117004" data-name="Trazado 117004" d="M422.089,204.41l-5.746-3.317a1.741,1.741,0,0,1-.742-1.8h0a.847.847,0,0,1,1.3-.621l5.746,3.317a1.741,1.741,0,0,1,.742,1.8h0A.847.847,0,0,1,422.089,204.41Z" transform="translate(-409.314 -149.887)" fill="#d4ecff"/>
            <path id="Trazado_117005" data-name="Trazado 117005" d="M448.374,214.992l-3.689-2.13a1.741,1.741,0,0,1-.743-1.8h0a.846.846,0,0,1,1.3-.621l3.69,2.13a1.741,1.741,0,0,1,.742,1.8h0A.846.846,0,0,1,448.374,214.992Z" transform="translate(-402.298 -146.974)" fill="#d4ecff"/>
            <path id="Trazado_117006" data-name="Trazado 117006" d="M437.443,190.2l-10.156-5.863a1.741,1.741,0,0,1-.742-1.8h0a.847.847,0,0,1,1.3-.621L438,187.781a1.741,1.741,0,0,1,.742,1.8h0A.847.847,0,0,1,437.443,190.2Z" transform="translate(-406.605 -154.034)" fill="#d4ecff"/>
            <path id="Trazado_117007" data-name="Trazado 117007" d="M439.683,186.884l-17.7-10.22a1.741,1.741,0,0,1-.742-1.8h0a.846.846,0,0,1,1.3-.621l17.7,10.219a1.742,1.742,0,0,1,.744,1.8h0A.847.847,0,0,1,439.683,186.884Z" transform="translate(-407.918 -155.935)" fill="#d4ecff"/>
            <path id="Trazado_117008" data-name="Trazado 117008" d="M430.258,190.671,420.1,184.807a1.742,1.742,0,0,1-.744-1.8h0a.847.847,0,0,1,1.3-.621l10.156,5.863a1.739,1.739,0,0,1,.742,1.8h0A.847.847,0,0,1,430.258,190.671Z" transform="translate(-408.383 -153.919)" fill="#d4ecff"/>
            <path id="Trazado_117009" data-name="Trazado 117009" d="M442.335,193.029l-3.69-2.131a1.742,1.742,0,0,1-.744-1.8h0a.847.847,0,0,1,1.3-.621l3.69,2.131a1.742,1.742,0,0,1,.744,1.8h0A.847.847,0,0,1,442.335,193.029Z" transform="translate(-403.793 -152.411)" fill="#d4ecff"/>
            <path id="Trazado_117010" data-name="Trazado 117010" d="M475.135,193.509l-21.851-12.615a1.744,1.744,0,0,1-.744-1.8h0a.848.848,0,0,1,1.3-.623l21.852,12.616a1.741,1.741,0,0,1,.742,1.8h0A.846.846,0,0,1,475.135,193.509Z" transform="translate(-400.169 -154.888)" fill="#d4ecff"/>
            <path id="Trazado_117011" data-name="Trazado 117011" d="M430.431,200l-12.208-7.049a1.739,1.739,0,0,1-.742-1.8h0a.847.847,0,0,1,1.3-.621l12.207,7.049a1.739,1.739,0,0,1,.744,1.8h0A.847.847,0,0,1,430.431,200Z" transform="translate(-408.849 -151.903)" fill="#d4ecff"/>
            <path id="Trazado_117012" data-name="Trazado 117012" d="M429.708,167.282l-8.975-5.182a1.739,1.739,0,0,1-.742-1.8h0a.847.847,0,0,1,1.3-.621l8.975,5.182a1.738,1.738,0,0,1,.742,1.8h0A.847.847,0,0,1,429.708,167.282Z" transform="translate(-408.227 -159.54)" fill="#d4ecff"/>
            <path id="Trazado_117013" data-name="Trazado 117013" d="M421.73,208.817l-10.395-6a1.742,1.742,0,0,1-.743-1.8h0a.847.847,0,0,1,1.3-.621l10.4,6a1.741,1.741,0,0,1,.742,1.8h0A.847.847,0,0,1,421.73,208.817Z" transform="translate(-410.554 -149.461)" fill="#d4ecff"/>
          </g>
          <g id="Grupo_109254" data-name="Grupo 109254" transform="translate(67.636 51.496)">
            <path id="Trazado_117014" data-name="Trazado 117014" d="M477.264,225.885l-6.087-3.514a1.743,1.743,0,0,1-.744-1.8h0a.847.847,0,0,1,1.3-.621l6.087,3.514a1.739,1.739,0,0,1,.744,1.8h0A.848.848,0,0,1,477.264,225.885Z" transform="translate(-463.376 -196.116)" fill="#d4ecff"/>
            <path id="Trazado_117015" data-name="Trazado 117015" d="M481.866,210.086l-11.617-6.707a1.741,1.741,0,0,1-.742-1.8h0a.846.846,0,0,1,1.3-.623l11.618,6.708a1.739,1.739,0,0,1,.742,1.8h0A.847.847,0,0,1,481.866,210.086Z" transform="translate(-463.605 -200.818)" fill="#d4ecff"/>
            <path id="Trazado_117016" data-name="Trazado 117016" d="M472.171,213.717l-3.8-2.194a1.743,1.743,0,0,1-.742-1.8h0a.847.847,0,0,1,1.3-.623l3.8,2.2a1.741,1.741,0,0,1,.742,1.8h0A.846.846,0,0,1,472.171,213.717Z" transform="translate(-464.071 -198.802)" fill="#d4ecff"/>
            <path id="Trazado_117017" data-name="Trazado 117017" d="M468.93,221.074l-2.44-1.408a1.742,1.742,0,0,1-.743-1.8h0a.847.847,0,0,1,1.3-.623l2.441,1.41a1.741,1.741,0,0,1,.742,1.8h0A.847.847,0,0,1,468.93,221.074Z" transform="translate(-464.536 -196.786)" fill="#d4ecff"/>
            <path id="Trazado_117018" data-name="Trazado 117018" d="M484.77,220.99l-10.156-5.863a1.739,1.739,0,0,1-.742-1.8h0a.847.847,0,0,1,1.3-.621l10.155,5.864a1.74,1.74,0,0,1,.744,1.8h0A.847.847,0,0,1,484.77,220.99Z" transform="translate(-462.525 -197.909)" fill="#d4ecff"/>
            <path id="Trazado_117019" data-name="Trazado 117019" d="M487.009,217.67l-17.7-10.22a1.739,1.739,0,0,1-.742-1.8h0a.847.847,0,0,1,1.3-.621l17.7,10.22a1.738,1.738,0,0,1,.742,1.8h0A.847.847,0,0,1,487.009,217.67Z" transform="translate(-463.838 -199.81)" fill="#d4ecff"/>
            <path id="Trazado_117020" data-name="Trazado 117020" d="M477.585,221.457l-10.156-5.864a1.741,1.741,0,0,1-.742-1.8h0a.847.847,0,0,1,1.3-.621l10.156,5.863a1.741,1.741,0,0,1,.742,1.8h0A.847.847,0,0,1,477.585,221.457Z" transform="translate(-464.303 -197.794)" fill="#d4ecff"/>
            <path id="Trazado_117021" data-name="Trazado 117021" d="M477.757,230.785l-12.207-7.049a1.74,1.74,0,0,1-.743-1.8h0a.847.847,0,0,1,1.3-.621l12.209,7.049a1.739,1.739,0,0,1,.742,1.8h0A.847.847,0,0,1,477.757,230.785Z" transform="translate(-464.769 -195.778)" fill="#d4ecff"/>
          </g>
        </g>
      </g>
      <g id="Grupo_109263" data-name="Grupo 109263" transform="translate(155.335 7.304)">
        <g id="Grupo_109259" data-name="Grupo 109259">
          <path id="Trazado_117022" data-name="Trazado 117022" d="M497.083,173.816,506.675,170l-2.158-14.112-4.656,4.126Z" transform="translate(-423.211 -91.985)" fill="#5793ce"/>
          <path id="Trazado_117023" data-name="Trazado 117023" d="M445.624,119.357,468.8,110.1s-4.269,9.242-4.277,9.261-12.375,2.864-12.375,2.864Z" transform="translate(-435.95 -103.321)" fill="#5793ce"/>
          <path id="Trazado_117024" data-name="Trazado 117024" d="M515.625,159.1a10.175,10.175,0,0,0-3.755-1.29c1.279-8.529-2.405-17.532-9.476-21.618a15.425,15.425,0,0,0-6.627-2.082c2.771-10.338-1.51-22.087-10.231-27.127a16.067,16.067,0,0,0-13.824-1.332l0-.008-.213.085c-.112.044-.223.089-.334.133l-7.261,2.857,2.9,2.491a14.7,14.7,0,0,0-9.115,9.106c-3.307,8.656.085,19.18,7.575,23.509l44.529,37.535c5.625,3.25,9.04,1.893,11.524-4.607S521.25,162.349,515.625,159.1Z" transform="translate(-433.277 -104.665)" fill="#5793ce"/>
          <path id="Trazado_117025" data-name="Trazado 117025" d="M459.061,116.5l24.979-9.979a15.958,15.958,0,0,0-12.982-.875l0-.007-.213.085c-.112.044-.223.089-.334.133l-7.261,2.857,2.9,2.491A13.857,13.857,0,0,0,459.061,116.5Z" transform="translate(-432.624 -104.665)" fill="#5793ce"/>
          <path id="Trazado_117026" data-name="Trazado 117026" d="M490.222,147.871l16.5-6.578a19.876,19.876,0,0,0-8.684-11.235,16.117,16.117,0,0,0-1.665-.837l-22.72,9.075Z" transform="translate(-429.013 -98.586)" fill="#5793ce"/>
          <path id="Trazado_117027" data-name="Trazado 117027" d="M466.482,109.678l7.079,4.089,12.285-4.892a19.528,19.528,0,0,0-2.8-1.975,17.365,17.365,0,0,0-4.8-1.9Z" transform="translate(-430.787 -104.583)" fill="#d4ecff"/>
          <path id="Trazado_117028" data-name="Trazado 117028" d="M501.637,136.7l-11.873,4.726,3.5,4.922,10.188-4.051A22.84,22.84,0,0,0,501.637,136.7Z" transform="translate(-425.023 -96.735)" fill="#d4ecff"/>
          <path id="Trazado_117029" data-name="Trazado 117029" d="M512.278,161.6a10.2,10.2,0,0,0-3.755-1.291c1.279-8.53-2.5-17.587-9.573-21.672a14.936,14.936,0,0,0-6.531-2.027c2.771-10.337-1.508-22.087-10.231-27.127-9.382-5.419-20.343-1.025-24.483,9.813-.141.368-.269.739-.392,1.112-7.157-3.184-15.07.4-18.177,8.535-3.307,8.655.085,19.181,7.576,23.509l56.574,32.686c5.625,3.25,12.2.615,14.681-5.883S517.9,164.852,512.278,161.6Z" transform="translate(-437.87 -104.046)" fill="#d4ecff"/>
          <g id="Grupo_109257" data-name="Grupo 109257" transform="translate(8.551 2.465)">
            <path id="Trazado_117030" data-name="Trazado 117030" d="M507.736,161.078a10.2,10.2,0,0,0-3.755-1.291c1.279-8.528-2.5-17.587-9.572-21.672a14.94,14.94,0,0,0-6.531-2.026c2.771-10.338-1.509-22.088-10.232-27.127a15.97,15.97,0,0,0-16.71.076,15.991,15.991,0,0,1,15.543.576c8.723,5.04,13,16.79,10.231,27.127a14.936,14.936,0,0,1,6.531,2.027c7.072,4.086,10.851,13.143,9.573,21.672a10.2,10.2,0,0,1,3.755,1.291c5.625,3.25,8.173,11.153,5.69,17.653a11.658,11.658,0,0,1-4.423,5.676,11.322,11.322,0,0,0,5.589-6.33C515.908,172.231,513.361,164.328,507.736,161.078Z" transform="translate(-440.711 -106.641)" fill="#fff"/>
            <path id="Trazado_117031" data-name="Trazado 117031" d="M455.616,118.136c.106-.326.221-.649.342-.971a12.6,12.6,0,0,0-11.234,1.145A12.631,12.631,0,0,1,455.616,118.136Z" transform="translate(-444.724 -104.238)" fill="#fff"/>
          </g>
          <g id="Grupo_109258" data-name="Grupo 109258" transform="translate(3.645 5.956)">
            <path id="Trazado_117032" data-name="Trazado 117032" d="M450.2,121.539a7.431,7.431,0,0,0-2.984.6,10.823,10.823,0,0,0-5.328,6.238c-2.905,7.605.2,17.242,6.782,21.045l56.575,32.686a5.894,5.894,0,0,0,5.046.714,6.938,6.938,0,0,0,3.487-4.134c2.1-5.488-.146-12.443-4.9-15.188a7.343,7.343,0,0,0-2.69-.944l-2.3-.311.3-1.969c1.18-7.866-2.453-16.167-8.635-19.74a11.929,11.929,0,0,0-5.2-1.654L487.5,138.7l.64-2.389c2.541-9.479-1.567-20.429-9.352-24.926-3.62-2.092-7.434-2.514-10.736-1.191s-6,4.356-7.6,8.539c-.125.324-.238.651-.344.981l-1.527,4.686-4.437-1.974A9.742,9.742,0,0,0,450.2,121.539Z" transform="translate(-440.792 -109.439)" fill="#396caa"/>
          </g>
        </g>
        <g id="Grupo_109262" data-name="Grupo 109262" transform="translate(29.235 32.473)">
          <path id="Trazado_117033" data-name="Trazado 117033" d="M470.552,148.668l1.949-.785-1.516-1.166Z" transform="translate(-459.014 -126.728)" fill="#5793ce"/>
          <path id="Trazado_117034" data-name="Trazado 117034" d="M469.771,131.507l1.893-.767-.134.794Z" transform="translate(-459.207 -130.683)" fill="#5793ce"/>
          <path id="Trazado_117035" data-name="Trazado 117035" d="M475.638,145.058l1.975-.8-2.88-2.9Z" transform="translate(-457.979 -128.054)" fill="#5793ce"/>
          <g id="Grupo_109260" data-name="Grupo 109260" transform="translate(1.979)">
            <path id="Trazado_117036" data-name="Trazado 117036" d="M473.309,150.424l-7.55-4.359a1.224,1.224,0,0,1-.515-1.245l1.809-8.568,8.937,5.16-1.809,8.569A.569.569,0,0,1,473.309,150.424Z" transform="translate(-462.313 -129.319)" fill="#5793ce"/>
            <path id="Trazado_117037" data-name="Trazado 117037" d="M473.347,130.76l-10.2,5.144c-.433.218-.288,1.032.237,1.335l8.329,4.808,8.327,4.808c.525.3.944-.185.687-.8l-6.049-14.526C474.415,130.9,473.789,130.538,473.347,130.76Z" transform="translate(-462.89 -130.694)" fill="#5793ce"/>
          </g>
          <g id="Grupo_109261" data-name="Grupo 109261" transform="translate(0 0.799)">
            <path id="Trazado_117038" data-name="Trazado 117038" d="M471.722,151.064l-7.55-4.359a1.222,1.222,0,0,1-.515-1.244l1.809-8.568,8.937,5.16-1.809,8.568A.568.568,0,0,1,471.722,151.064Z" transform="translate(-460.727 -129.959)" fill="#d4ecff"/>
            <path id="Trazado_117039" data-name="Trazado 117039" d="M471.761,131.4l-10.2,5.144c-.433.217-.289,1.032.236,1.335l8.329,4.808,8.327,4.808c.526.3.946-.185.689-.8l-6.049-14.526C472.828,131.54,472.2,131.178,471.761,131.4Z" transform="translate(-461.303 -131.335)" fill="#d4ecff"/>
          </g>
        </g>
      </g>
      <g id="Grupo_109264" data-name="Grupo 109264" transform="translate(0 200.841)">
        <path id="Trazado_117040" data-name="Trazado 117040" d="M316.924,288.8l30.185-17.342c2.38-1.367,6.533-1.186,9.275.4l61.9,35.912c2.742,1.591,3.035,3.988.654,5.357l-30.183,17.342c-2.38,1.367-6.533,1.186-9.276-.4l-61.9-35.912C314.837,292.566,314.544,290.167,316.924,288.8Z" transform="translate(-312.874 -257.139)" fill="#b2d3ea"/>
        <path id="Trazado_117041" data-name="Trazado 117041" d="M390.443,326.614l30.909-17.759a3.577,3.577,0,0,0,2.068-2.906h0l.027-5.322-.994,1.713a7.439,7.439,0,0,0-1.939-1.562l-62.244-36.112c-3.527-2.046-8.868-2.278-11.929-.519l-30.909,17.759a5.506,5.506,0,0,0-.863.609L313.384,281l-.026,5h0c-.044,1.377.943,2.843,2.91,3.985L378.514,326.1C382.041,328.141,387.381,328.373,390.443,326.614Z" transform="translate(-313.358 -259.013)" fill="#396caa"/>
        <path id="Trazado_117042" data-name="Trazado 117042" d="M315.449,278.738l30.911-17.759c3.062-1.759,8.4-1.527,11.928.519l62.244,36.112c3.527,2.046,3.9,5.131.842,6.89l-30.909,17.759c-3.062,1.759-8.4,1.526-11.929-.52l-62.244-36.11C312.764,283.582,312.387,280.5,315.449,278.738Z" transform="translate(-313.353 -259.798)" fill="#d4ecff"/>
        <path id="Trazado_117043" data-name="Trazado 117043" d="M421.372,300.055l-30.909,17.76c-3.061,1.759-8.4,1.526-11.929-.52l-62.244-36.11a5.294,5.294,0,0,1-2.867-3.436c-.247,1.48.726,3.1,2.867,4.346l62.244,36.112c3.527,2.045,8.868,2.278,11.929.519l30.909-17.759c1.579-.907,2.236-2.167,2.026-3.454A3.738,3.738,0,0,1,421.372,300.055Z" transform="translate(-313.351 -255.354)" fill="#fff"/>
        <path id="Trazado_117044" data-name="Trazado 117044" d="M316.924,279.176l30.185-17.342c2.38-1.367,6.533-1.186,9.275.4l61.9,35.912c2.742,1.591,3.035,3.99.654,5.357L388.756,320.85c-2.38,1.369-6.533,1.188-9.276-.4l-61.9-35.913C314.837,282.943,314.544,280.545,316.924,279.176Z" transform="translate(-312.874 -259.521)" fill="#fff"/>
      </g>
      <g id="Grupo_109265" data-name="Grupo 109265" transform="translate(31.017 219.192)">
        <path id="Trazado_117045" data-name="Trazado 117045" d="M357.858,282.122l-11.174-6.451c-.414-.24-.362-.657.116-.934h0a1.8,1.8,0,0,1,1.617-.066l11.173,6.451c.415.24.363.657-.116.933h0A1.8,1.8,0,0,1,357.858,282.122Z" transform="translate(-336.194 -274.508)" fill="#b2d3ea"/>
        <path id="Trazado_117046" data-name="Trazado 117046" d="M347.941,279.546l-3.986-2.3c-.414-.238-.362-.656.116-.933h0a1.8,1.8,0,0,1,1.617-.066l3.986,2.3c.414.24.362.657-.116.933h0A1.794,1.794,0,0,1,347.941,279.546Z" transform="translate(-336.869 -274.118)" fill="#b2d3ea"/>
        <path id="Trazado_117047" data-name="Trazado 117047" d="M353.3,282.642l-3.986-2.3c-.414-.24-.362-.657.116-.933h0a1.8,1.8,0,0,1,1.617-.067l3.986,2.3c.414.24.362.657-.116.933h0A1.8,1.8,0,0,1,353.3,282.642Z" transform="translate(-335.542 -273.352)" fill="#396caa"/>
        <path id="Trazado_117048" data-name="Trazado 117048" d="M365.5,289.684l-10.823-6.248c-.414-.24-.363-.658.116-.933h0a1.794,1.794,0,0,1,1.617-.067l10.822,6.249c.414.238.362.656-.116.933h0A1.8,1.8,0,0,1,365.5,289.684Z" transform="translate(-334.215 -272.586)" fill="#b2d3ea"/>
        <path id="Trazado_117049" data-name="Trazado 117049" d="M355.189,286.88l-13.961-8.06c-.414-.238-.362-.656.116-.933h0a1.8,1.8,0,0,1,1.617-.066l13.961,8.06c.414.238.362.656-.116.933h0A1.8,1.8,0,0,1,355.189,286.88Z" transform="translate(-337.545 -273.728)" fill="#b2d3ea"/>
        <path id="Trazado_117050" data-name="Trazado 117050" d="M372.655,300.116,338.5,280.394c-.414-.238-.362-.656.116-.933h0a1.8,1.8,0,0,1,1.617-.066l34.154,19.72c.414.24.363.657-.116.933h0A1.791,1.791,0,0,1,372.655,300.116Z" transform="translate(-338.22 -273.339)" fill="#396caa"/>
        <path id="Trazado_117051" data-name="Trazado 117051" d="M377.765,293.615l-19.653-11.346c-.414-.239-.362-.656.116-.933h0a1.8,1.8,0,0,1,1.617-.067L379.5,292.614c.414.24.362.657-.116.933h0A1.794,1.794,0,0,1,377.765,293.615Z" transform="translate(-333.365 -272.875)" fill="#b2d3ea"/>
      </g>
      <path id="Trazado_117052" data-name="Trazado 117052" d="M355.186,306.6l-2.873-1.658a1.236,1.236,0,0,1-.518-.989h0c0-.382.231-.556.518-.392l2.873,1.658a1.24,1.24,0,0,1,.518.989h0C355.7,306.589,355.473,306.764,355.186,306.6Z" transform="translate(-303.843 -48.14)" fill="#d4ecff"/>
      <path id="Trazado_117053" data-name="Trazado 117053" d="M358.811,308.7l-2.873-1.658a1.237,1.237,0,0,1-.519-.989h0c0-.38.232-.556.519-.392l2.873,1.658a1.243,1.243,0,0,1,.518.989h0C359.329,308.688,359.1,308.864,358.811,308.7Z" transform="translate(-302.946 -47.62)" fill="#d4ecff"/>
    </g>
  </g>
</svg>
