<svg xmlns="http://www.w3.org/2000/svg" xmlns:xlink="http://www.w3.org/1999/xlink" width="144" height="187.959" viewBox="0 0 144 187.959">
  <defs>
    <radialGradient id="radial-gradient" cx="0.234" cy="0.38" r="0.644" gradientTransform="translate(-0.287) scale(1.574 1)" gradientUnits="objectBoundingBox">
      <stop offset="0" stop-color="#1b5b9d"/>
      <stop offset="1" stop-color="#0b3f79"/>
    </radialGradient>
    <linearGradient id="linear-gradient" x1="0.029" y1="0.235" x2="0.883" y2="0.916" gradientUnits="objectBoundingBox">
      <stop offset="0" stop-color="#cae8fb"/>
      <stop offset="0.221" stop-color="#c6e5f9"/>
      <stop offset="0.426" stop-color="#bbdef5"/>
      <stop offset="0.624" stop-color="#a8d2ef"/>
      <stop offset="0.818" stop-color="#8ec0e6"/>
      <stop offset="1" stop-color="#6eacdb"/>
    </linearGradient>
    <linearGradient id="linear-gradient-2" x1="-8.858" y1="11.696" x2="-7.732" y2="11.609" gradientUnits="objectBoundingBox">
      <stop offset="0" stop-color="#1b2e7f"/>
      <stop offset="1" stop-color="#2e3787"/>
    </linearGradient>
  </defs>
  <g id="Grupo_109419" data-name="Grupo 109419" transform="translate(-1391.395 -7877.491)">
    <circle id="Elipse_6985" data-name="Elipse 6985" cx="72" cy="72" r="72" transform="translate(1391.395 7921.45)" fill="#4dd0e1"/>
    <g id="Grupo_108725" data-name="Grupo 108725" transform="translate(1313.279 7825.988)">
      <g id="Grupo_108715" data-name="Grupo 108715">
        <g id="Grupo_108710" data-name="Grupo 108710">
          <g id="Grupo_108702" data-name="Grupo 108702">
            <g id="Grupo_108701" data-name="Grupo 108701">
              <g id="Grupo_108700" data-name="Grupo 108700">
                <path id="Trazado_115526" data-name="Trazado 115526" d="M149.206,112.461s-25.187,2.4-40.357,3.564l40.236,114.59,53.22-30.7.026-.016.1-.054,0-.005a2.962,2.962,0,0,0,1.087-2.627v-112a8.111,8.111,0,0,0-.924-3.575Z" fill="url(#radial-gradient)"/>
                <path id="Trazado_115527" data-name="Trazado 115527" d="M200.215,78.919,153.412,51.9a2.115,2.115,0,0,0-2.132-.184h0L97.846,82.539l2.517,9.317,13.4,38.157,2.522,1.456L202.589,81.64A6.584,6.584,0,0,0,200.215,78.919Z" fill="url(#linear-gradient)"/>
                <path id="Trazado_115528" data-name="Trazado 115528" d="M146.82,230.511l-46.8-27.022a7.891,7.891,0,0,1-3.3-6.3v-112c0-2.427,1.475-3.542,3.3-2.492l46.8,27.023a7.892,7.892,0,0,1,3.3,6.3v112C150.116,230.446,148.64,231.562,146.82,230.511Z" fill="#3882c5"/>
                <path id="Trazado_115529" data-name="Trazado 115529" d="M147.824,109.158l-46.8-27.023a1.947,1.947,0,0,0-2.593.191,2.439,2.439,0,0,1,1.59.372l46.8,27.022a7.9,7.9,0,0,1,3.3,6.3v112a3.423,3.423,0,0,1-.7,2.3c1.017-.161,1.706-1.206,1.706-2.864v-112A7.893,7.893,0,0,0,147.824,109.158Z" fill="#fff"/>
                <path id="Trazado_115530" data-name="Trazado 115530" d="M143.876,223.769l-40.915-23.623a6.9,6.9,0,0,1-2.881-5.5V90.623c0-2.121,1.29-3.1,2.881-2.178l40.915,23.622a6.9,6.9,0,0,1,2.881,5.5V221.591C146.757,223.712,145.467,224.687,143.876,223.769Z" fill="url(#linear-gradient-2)"/>
                <path id="Trazado_115531" data-name="Trazado 115531" d="M143.876,223.769l-40.915-23.623a6.9,6.9,0,0,1-2.881-5.5V90.623c0-2.121,1.29-3.1,2.881-2.178l40.915,23.622a6.9,6.9,0,0,1,2.881,5.5V221.591C146.757,223.712,145.467,224.687,143.876,223.769Z" fill="url(#linear-gradient-2)"/>
                <path id="Trazado_115532" data-name="Trazado 115532" d="M143.876,223.769l-40.915-23.623a6.9,6.9,0,0,1-2.881-5.5V90.623c0-2.121,1.29-3.1,2.881-2.178l40.915,23.622a6.9,6.9,0,0,1,2.881,5.5V221.591C146.757,223.712,145.467,224.687,143.876,223.769Z" fill="#003066"/>
                <path id="Trazado_115533" data-name="Trazado 115533" d="M145.213,222.982,104.3,199.36a6.9,6.9,0,0,1-2.881-5.505V89.837a3.325,3.325,0,0,1,.413-1.737c-1.029-.008-1.75.937-1.75,2.523V194.641a6.9,6.9,0,0,0,2.881,5.5l40.915,23.623a1.668,1.668,0,0,0,2.468-.442A2.315,2.315,0,0,1,145.213,222.982Z" fill="#1b5b9d"/>
              </g>
            </g>
          </g>
          <g id="Grupo_108704" data-name="Grupo 108704">
            <g id="Grupo_108703" data-name="Grupo 108703">
              <path id="Trazado_115534" data-name="Trazado 115534" d="M143.876,176.012l-15.208-8.78-24.254,14,42.343,24.446V181.517A6.9,6.9,0,0,0,143.876,176.012Z" fill="#003066"/>
              <path id="Trazado_115535" data-name="Trazado 115535" d="M143.876,154.7l-15.208-8.78-24.254,14,42.343,24.447V160.2A6.9,6.9,0,0,0,143.876,154.7Z" fill="#003066"/>
              <path id="Trazado_115536" data-name="Trazado 115536" d="M143.876,133.382l-15.208-8.78-24.254,14,42.343,24.447V138.887A6.9,6.9,0,0,0,143.876,133.382Z" fill="#003066"/>
              <path id="Trazado_115537" data-name="Trazado 115537" d="M143.876,112.067l-15.208-8.78-24.254,14,42.343,24.447V117.572A6.9,6.9,0,0,0,143.876,112.067Z" fill="#003066"/>
              <path id="Trazado_115538" data-name="Trazado 115538" d="M143.876,112.067,110.209,92.63l-5.795,3.345,42.343,24.447v-2.85A6.9,6.9,0,0,0,143.876,112.067Z" fill="#003066"/>
            </g>
            <path id="Trazado_115539" data-name="Trazado 115539" d="M146.757,120.423,104.414,95.976v13.472l42.343,24.447Z" fill="#3882c5"/>
            <path id="Trazado_115540" data-name="Trazado 115540" d="M146.757,141.738,104.414,117.29v13.472l42.343,24.447Z" fill="#3882c5"/>
            <path id="Trazado_115541" data-name="Trazado 115541" d="M146.757,163.052l-42.343-24.447v13.472l42.343,24.447Z" fill="#3882c5"/>
            <path id="Trazado_115542" data-name="Trazado 115542" d="M146.757,184.367,104.414,159.92v13.472l42.343,24.447Z" fill="#3882c5"/>
            <path id="Trazado_115543" data-name="Trazado 115543" d="M146.757,205.682l-42.343-24.447v13.472l42.343,24.447Z" fill="#3882c5"/>
          </g>
          <g id="Grupo_108705" data-name="Grupo 108705">
            <path id="Trazado_115544" data-name="Trazado 115544" d="M143.023,129.094,111.129,110.68a3.906,3.906,0,0,1-1.63-3.115v-3.608c0-1.2.73-1.753,1.63-1.233l31.894,18.414a3.906,3.906,0,0,1,1.63,3.115v3.608C144.653,129.062,143.923,129.614,143.023,129.094Z" fill="#003066"/>
            <path id="Trazado_115545" data-name="Trazado 115545" d="M112.741,109.989a3.9,3.9,0,0,1-1.63-3.115v-3.608a2.342,2.342,0,0,1,.059-.518l-.041-.024c-.9-.52-1.63.032-1.63,1.233v3.608a3.906,3.906,0,0,0,1.63,3.115l31.894,18.413a.975.975,0,0,0,1.57-.714Z" fill="#11152b" opacity="0.3"/>
            <path id="Trazado_115546" data-name="Trazado 115546" d="M133.014,119.205l-19.192-11.081a1.372,1.372,0,0,1-.573-1.1h0c0-.422.256-.616.573-.433l19.192,11.08a1.374,1.374,0,0,1,.574,1.1h0C133.588,119.194,133.331,119.388,133.014,119.205Z" fill="#fff"/>
          </g>
          <g id="Grupo_108706" data-name="Grupo 108706">
            <path id="Trazado_115547" data-name="Trazado 115547" d="M143.023,150.277l-31.894-18.414a3.9,3.9,0,0,1-1.63-3.115V125.14c0-1.2.73-1.752,1.63-1.232l31.894,18.413a3.907,3.907,0,0,1,1.63,3.116v3.607C144.653,150.245,143.923,150.8,143.023,150.277Z" fill="#003066"/>
            <path id="Trazado_115548" data-name="Trazado 115548" d="M112.741,131.173a3.907,3.907,0,0,1-1.63-3.116v-3.608a2.342,2.342,0,0,1,.059-.518l-.041-.023c-.9-.52-1.63.031-1.63,1.232v3.608a3.9,3.9,0,0,0,1.63,3.115l31.894,18.414a.976.976,0,0,0,1.57-.715Z" fill="#11152b" opacity="0.3"/>
            <path id="Trazado_115549" data-name="Trazado 115549" d="M133.014,140.388l-19.192-11.08a1.373,1.373,0,0,1-.573-1.1h0c0-.423.256-.617.573-.434l19.192,11.081a1.373,1.373,0,0,1,.574,1.1h0C133.588,140.377,133.331,140.571,133.014,140.388Z" fill="#fff"/>
          </g>
          <g id="Grupo_108707" data-name="Grupo 108707">
            <path id="Trazado_115550" data-name="Trazado 115550" d="M143.023,171.658l-31.894-18.414a3.906,3.906,0,0,1-1.63-3.115v-3.608c0-1.2.73-1.753,1.63-1.233L143.023,163.7a3.906,3.906,0,0,1,1.63,3.115v3.608C144.653,171.626,143.923,172.178,143.023,171.658Z" fill="#003066"/>
            <path id="Trazado_115551" data-name="Trazado 115551" d="M112.741,152.553a3.9,3.9,0,0,1-1.63-3.115V145.83a2.342,2.342,0,0,1,.059-.518l-.041-.024c-.9-.52-1.63.032-1.63,1.233v3.608a3.906,3.906,0,0,0,1.63,3.115l31.894,18.414a.976.976,0,0,0,1.57-.715Z" fill="#11152b" opacity="0.3"/>
            <path id="Trazado_115552" data-name="Trazado 115552" d="M133.014,161.769l-19.192-11.081a1.372,1.372,0,0,1-.573-1.1h0c0-.422.256-.616.573-.433l19.192,11.081a1.371,1.371,0,0,1,.574,1.1h0C133.588,161.758,133.331,161.952,133.014,161.769Z" fill="#cae8fb"/>
          </g>
          <g id="Grupo_108708" data-name="Grupo 108708">
            <path id="Trazado_115553" data-name="Trazado 115553" d="M143.023,193.236l-31.894-18.414a3.906,3.906,0,0,1-1.63-3.115V168.1c0-1.2.73-1.753,1.63-1.233l31.894,18.414a3.906,3.906,0,0,1,1.63,3.115V192C144.653,193.2,143.923,193.756,143.023,193.236Z" fill="#003066"/>
            <path id="Trazado_115554" data-name="Trazado 115554" d="M112.741,174.131a3.9,3.9,0,0,1-1.63-3.115v-3.608a2.342,2.342,0,0,1,.059-.518l-.041-.024c-.9-.52-1.63.032-1.63,1.233v3.608a3.9,3.9,0,0,0,1.63,3.115l31.894,18.414a.976.976,0,0,0,1.57-.715Z" fill="#11152b" opacity="0.3"/>
            <path id="Trazado_115555" data-name="Trazado 115555" d="M133.014,183.347l-19.192-11.081a1.37,1.37,0,0,1-.573-1.1h0c0-.423.256-.617.573-.434l19.192,11.081a1.373,1.373,0,0,1,.574,1.1h0C133.588,183.336,133.331,183.53,133.014,183.347Z" fill="#dc257d"/>
          </g>
          <g id="Grupo_108709" data-name="Grupo 108709">
            <path id="Trazado_115556" data-name="Trazado 115556" d="M143.023,214.386l-31.894-18.413a3.907,3.907,0,0,1-1.63-3.116v-3.608c0-1.2.73-1.752,1.63-1.232l31.894,18.413a3.907,3.907,0,0,1,1.63,3.116v3.608C144.653,214.354,143.923,214.906,143.023,214.386Z" fill="#003066"/>
            <path id="Trazado_115557" data-name="Trazado 115557" d="M112.741,195.282a3.907,3.907,0,0,1-1.63-3.116v-3.607a2.358,2.358,0,0,1,.059-.519l-.041-.023c-.9-.52-1.63.032-1.63,1.232v3.608a3.907,3.907,0,0,0,1.63,3.116l31.894,18.413a.975.975,0,0,0,1.57-.714Z" fill="#11152b" opacity="0.3"/>
            <path id="Trazado_115558" data-name="Trazado 115558" d="M133.014,204.5l-19.192-11.081a1.373,1.373,0,0,1-.573-1.1h0c0-.422.256-.616.573-.434l19.192,11.081a1.374,1.374,0,0,1,.574,1.1h0C133.588,204.486,133.331,204.68,133.014,204.5Z" fill="#cae8fb"/>
          </g>
          <path id="Trazado_115559" data-name="Trazado 115559" d="M104.414,95.976l3.334,1.925v13.472l-3.334-1.925Z" fill="#003066" opacity="0.5"/>
          <path id="Trazado_115560" data-name="Trazado 115560" d="M104.414,117.29l3.334,1.925v13.472l-3.334-1.925Z" fill="#003066" opacity="0.5"/>
          <path id="Trazado_115561" data-name="Trazado 115561" d="M104.414,138.605l3.334,1.925V154l-3.334-1.925Z" fill="#003066" opacity="0.5"/>
          <path id="Trazado_115562" data-name="Trazado 115562" d="M104.414,159.92l3.334,1.925v13.472l-3.334-1.925Z" fill="#003066" opacity="0.5"/>
          <path id="Trazado_115563" data-name="Trazado 115563" d="M104.414,181.235l3.334,1.925v13.472l-3.334-1.925Z" fill="#003066" opacity="0.5"/>
        </g>
        <ellipse id="Elipse_6987" data-name="Elipse 6987" cx="0.551" cy="0.955" rx="0.551" ry="0.955" transform="matrix(0.866, -0.5, 0.5, 0.866, 135.166, 119.594)" fill="#cae8fb"/>
        <path id="Trazado_115564" data-name="Trazado 115564" d="M139.658,122.188c0,.43-.3.6-.675.39a1.494,1.494,0,0,1-.676-1.17c0-.43.3-.6.676-.39A1.5,1.5,0,0,1,139.658,122.188Z" fill="#dc257d"/>
        <path id="Trazado_115565" data-name="Trazado 115565" d="M142.52,123.84c0,.431-.3.605-.675.39a1.492,1.492,0,0,1-.675-1.169c0-.431.3-.6.675-.39A1.492,1.492,0,0,1,142.52,123.84Z" fill="#cae8fb"/>
        <path id="Trazado_115566" data-name="Trazado 115566" d="M136.8,141.839c0,.431-.3.6-.676.39a1.494,1.494,0,0,1-.675-1.169c0-.431.3-.6.675-.39A1.493,1.493,0,0,1,136.8,141.839Z" fill="#dc257d"/>
        <path id="Trazado_115567" data-name="Trazado 115567" d="M139.658,143.492c0,.43-.3.6-.675.39a1.494,1.494,0,0,1-.676-1.17c0-.43.3-.605.676-.389A1.493,1.493,0,0,1,139.658,143.492Z" fill="#cae8fb"/>
        <path id="Trazado_115568" data-name="Trazado 115568" d="M142.52,145.144c0,.431-.3.6-.675.39a1.492,1.492,0,0,1-.675-1.169c0-.431.3-.605.675-.39A1.492,1.492,0,0,1,142.52,145.144Z" fill="#fff"/>
        <path id="Trazado_115569" data-name="Trazado 115569" d="M136.8,163.3c0,.431-.3.6-.676.39a1.494,1.494,0,0,1-.675-1.169c0-.431.3-.6.675-.39A1.493,1.493,0,0,1,136.8,163.3Z" fill="#fff"/>
        <path id="Trazado_115570" data-name="Trazado 115570" d="M139.658,164.957c0,.43-.3.6-.675.39a1.494,1.494,0,0,1-.676-1.17c0-.43.3-.6.676-.389A1.493,1.493,0,0,1,139.658,164.957Z" fill="#dc257d"/>
        <path id="Trazado_115571" data-name="Trazado 115571" d="M142.52,166.609c0,.431-.3.605-.675.39a1.492,1.492,0,0,1-.675-1.169c0-.431.3-.6.675-.39A1.492,1.492,0,0,1,142.52,166.609Z" fill="#fff"/>
        <path id="Trazado_115572" data-name="Trazado 115572" d="M136.8,184.457c0,.43-.3.6-.676.39a1.5,1.5,0,0,1-.675-1.17c0-.43.3-.6.675-.389A1.491,1.491,0,0,1,136.8,184.457Z" fill="#fff"/>
        <path id="Trazado_115573" data-name="Trazado 115573" d="M139.658,186.109c0,.431-.3.605-.675.39a1.493,1.493,0,0,1-.676-1.169c0-.431.3-.6.676-.39A1.494,1.494,0,0,1,139.658,186.109Z" fill="#cae8fb"/>
        <path id="Trazado_115574" data-name="Trazado 115574" d="M142.52,187.762c0,.43-.3.605-.675.39a1.493,1.493,0,0,1-.675-1.17c0-.43.3-.6.675-.39A1.493,1.493,0,0,1,142.52,187.762Z" fill="#cae8fb"/>
        <path id="Trazado_115575" data-name="Trazado 115575" d="M136.8,205.9c0,.43-.3.605-.676.39a1.5,1.5,0,0,1-.675-1.17c0-.43.3-.6.675-.39A1.494,1.494,0,0,1,136.8,205.9Z" fill="#fff"/>
        <path id="Trazado_115576" data-name="Trazado 115576" d="M139.658,207.55c0,.431-.3.6-.675.39a1.493,1.493,0,0,1-.676-1.169c0-.431.3-.6.676-.39A1.494,1.494,0,0,1,139.658,207.55Z" fill="#dc257d"/>
        <path id="Trazado_115577" data-name="Trazado 115577" d="M142.52,209.2c0,.43-.3.6-.675.39a1.493,1.493,0,0,1-.675-1.17c0-.43.3-.605.675-.39A1.493,1.493,0,0,1,142.52,209.2Z" fill="#cae8fb"/>
        <g id="Grupo_108711" data-name="Grupo 108711">
          <path id="Trazado_115578" data-name="Trazado 115578" d="M157.165,215.372V120l.2-.113,39.858-23.013v95.372l-.2.113Zm.79-94.915V214l38.477-22.215V98.242Z" fill="#003066"/>
        </g>
        <g id="Grupo_108714" data-name="Grupo 108714">
          <path id="Trazado_115579" data-name="Trazado 115579" d="M186.867,139.785,168.995,150.1c-1.2.693-2.174-.043-2.174-1.644v-9.909a5.2,5.2,0,0,1,2.174-4.153l17.872-10.319c1.2-.693,2.174.043,2.174,1.644v9.909A5.206,5.206,0,0,1,186.867,139.785Z" fill="#003066"/>
          <path id="Trazado_115580" data-name="Trazado 115580" d="M187.3,123.887a2.879,2.879,0,0,1,.161.994v9.909a5.205,5.205,0,0,1-2.174,4.154l-17.872,10.318a2.076,2.076,0,0,1-.433.192,1.267,1.267,0,0,0,2.012.65l17.872-10.319a5.206,5.206,0,0,0,2.174-4.153v-9.909C189.041,124.32,188.293,123.582,187.3,123.887Z" fill="#3882c5"/>
          <g id="Grupo_108713" data-name="Grupo 108713">
            <g id="Grupo_108712" data-name="Grupo 108712">
              <path id="Trazado_115581" data-name="Trazado 115581" d="M183.6,133.818c.33-.191.6-.036.6.345v2.257a1.322,1.322,0,0,1-.6,1.036c-.331.191-.6.037-.6-.345v-2.257A1.319,1.319,0,0,1,183.6,133.818Z" fill="#fff"/>
              <path id="Trazado_115582" data-name="Trazado 115582" d="M181.039,135.58c.33-.191.6-.036.6.345V137.9a1.321,1.321,0,0,1-.6,1.036c-.331.191-.6.037-.6-.345v-1.975A1.321,1.321,0,0,1,181.039,135.58Z" fill="#cae8fb"/>
              <path id="Trazado_115583" data-name="Trazado 115583" d="M178.475,134.856c.33-.19.6-.036.6.346v4.179a1.324,1.324,0,0,1-.6,1.036c-.331.19-.6.036-.6-.346v-4.178A1.322,1.322,0,0,1,178.475,134.856Z" fill="#dc257d"/>
              <path id="Trazado_115584" data-name="Trazado 115584" d="M175.911,133.929c.331-.191.6-.036.6.345v6.587a1.321,1.321,0,0,1-.6,1.036c-.33.191-.6.036-.6-.345v-6.587A1.321,1.321,0,0,1,175.911,133.929Z" fill="#cae8fb"/>
              <path id="Trazado_115585" data-name="Trazado 115585" d="M173.347,136.1c.331-.191.6-.036.6.345v5.9a1.321,1.321,0,0,1-.6,1.036c-.33.191-.6.036-.6-.345v-5.9A1.321,1.321,0,0,1,173.347,136.1Z" fill="#cae8fb"/>
              <path id="Trazado_115586" data-name="Trazado 115586" d="M170.784,140.274c.33-.191.6-.037.6.345v3.2a1.322,1.322,0,0,1-.6,1.036c-.331.191-.6.037-.6-.345v-3.2A1.319,1.319,0,0,1,170.784,140.274Z" fill="#fff"/>
            </g>
            <path id="Trazado_115587" data-name="Trazado 115587" d="M183.014,132.677c0,.375.264.528.589.34a1.3,1.3,0,0,0,.588-1.019c0-.375-.264-.527-.588-.34A1.3,1.3,0,0,0,183.014,132.677Z" fill="#dc257d"/>
            <ellipse id="Elipse_6988" data-name="Elipse 6988" cx="0.832" cy="0.48" rx="0.832" ry="0.48" transform="matrix(0.5, -0.866, 0.866, 0.5, 182.77, 130.696)" fill="#fff"/>
          </g>
        </g>
      </g>
    </g>
    <circle id="Elipse_6997" data-name="Elipse 6997" cx="31.18" cy="31.18" r="31.18" transform="translate(1469.621 7979.317)" fill="#fd9927"/>
    <g id="Grupo_108731" data-name="Grupo 108731" transform="translate(1306.466 6964.373)">
      <path id="Trazado_115617" data-name="Trazado 115617" d="M181.034,1063.768a7.14,7.14,0,0,1-1.094-.418,3.026,3.026,0,0,1-1.589-2.781q-.007-5.027,0-10.055c0-2.561,0-5.121,0-7.681a.972.972,0,0,1,.309-.748c.94-.928,1.868-1.871,2.809-2.8a.787.787,0,0,0,.265-.621c-.012-2.019-.007-4.038-.006-6.058,0-.617.205-.821.825-.821h8.772a2.068,2.068,0,0,1,.249.006.621.621,0,0,1,.016,1.235,2.224,2.224,0,0,1-.312.008h-8.286c-.006.125-.015.226-.015.326q0,6.089.006,12.178a.674.674,0,0,0,.158.436q5.508,5.531,11.031,11.046c.043.043.091.082.145.13.082-.078.158-.148.231-.221q5.464-5.464,10.931-10.926a.731.731,0,0,0,.234-.571q-.01-6.011,0-12.022v-.375h-8.44c-.459,0-.724-.206-.749-.574a.612.612,0,0,1,.525-.666,1.869,1.869,0,0,1,.281-.008h8.8c.624,0,.829.2.829.817,0,2.04,0,4.08,0,6.12a.655.655,0,0,0,.218.515q1.378,1.36,2.738,2.737c.152.153.281.328.421.492v18.614c-.022.066-.049.131-.065.2a3.105,3.105,0,0,1-2.213,2.367c-.135.042-.271.081-.407.121Zm-.379-1.364a9.627,9.627,0,0,0,1,.11q12.677.008,25.354,0a1.881,1.881,0,0,0,.342-.009c.2-.038.4-.1.573-.138l-8.562-8.564a1.743,1.743,0,0,1-.179.244q-2.138,2.145-4.282,4.285c-.453.453-.74.453-1.189,0q-2.142-2.141-4.281-4.286a1.157,1.157,0,0,1-.159-.275Zm19.781-9.522,8.524,8.526a7.65,7.65,0,0,0,.11-.915q.01-7.977,0-15.954c0-.1-.008-.2-.012-.284Zm-20.838-8.589v11.1c0,1.728-.006,3.455.006,5.183a5.87,5.87,0,0,0,.126.839l8.494-8.494Zm2.107-3.394-1.74,1.754,1.74,1.74Zm25.267-.07v3.562l1.789-1.792-1.556-1.553C207.14,1040.982,207.072,1040.922,206.972,1040.829Z" fill="#fff"/>
      <path id="Trazado_115618" data-name="Trazado 115618" d="M209.8,1051.467a2.723,2.723,0,0,1-2,.9,3.017,3.017,0,0,1-2.772-1.945,4.1,4.1,0,0,1,.711-4.606,2.878,2.878,0,0,1,3.738-.351c.033.021.071.036.119.061.008-.089.009-.163.022-.233a.633.633,0,0,1,.659-.542.625.625,0,0,1,.58.622c.005.094,0,.188,0,.281,0,1.582,0,3.164,0,4.747a1.644,1.644,0,0,0,.078.52.727.727,0,0,0,.8.509,1.6,1.6,0,0,0,1.368-1.04,4.656,4.656,0,0,0-.738-5.322,5.552,5.552,0,0,0-9.737,3.007,5.55,5.55,0,0,0,5.111,6.115c.094.006.187.011.28.025a.626.626,0,0,1,.577.656.6.6,0,0,1-.684.572,9.985,9.985,0,0,1-1.687-.274,6.762,6.762,0,0,1-4.863-7.014,6.8,6.8,0,0,1,13.314-1.364,5.959,5.959,0,0,1-.549,4.326,2.737,2.737,0,0,1-2.329,1.561,1.916,1.916,0,0,1-1.878-.992C209.89,1051.624,209.856,1051.562,209.8,1051.467Zm-.185-3.107a7.442,7.442,0,0,0-.239-1.008,1.6,1.6,0,0,0-1.346-1.153,1.729,1.729,0,0,0-1.624.743,2.985,2.985,0,0,0,.241,3.682,1.477,1.477,0,0,0,2.294-.089A3.276,3.276,0,0,0,209.616,1048.359Z" transform="translate(-13.773 -6.026)" fill="#fff"/>
      <path id="Trazado_115619" data-name="Trazado 115619" d="M216.6,1032.406a.615.615,0,0,1,.616-.614.623.623,0,1,1-.018,1.245A.615.615,0,0,1,216.6,1032.406Z" transform="translate(-22.895 -0.004)" fill="#fff"/>
    </g>
  </g>
</svg>
