<svg xmlns="http://www.w3.org/2000/svg" width="105" height="105" viewBox="0 0 105 105">
  <g id="Grupo_109420" data-name="Grupo 109420" transform="translate(-810 -2133.5)">
    <circle id="Elipse_4751" data-name="Elipse 4751" cx="52.5" cy="52.5" r="52.5" transform="translate(810 2133.5)" fill="#4dd0e1"/>
    <g id="Grupo_108458" data-name="Grupo 108458" transform="translate(38.013 1063.857)">
      <path id="Trazado_114009" data-name="Trazado 114009" d="M798.82,1105.884c0-2.74,0-5.39,0-8.04a2.817,2.817,0,0,1,3.083-3.106q3.86,0,7.719,0a2.822,2.822,0,0,1,3.128,3.121c0,.172,0,.344,0,.594h16.374a2.824,2.824,0,0,1,3.129,3.12c0,1.41,0,2.82,0,4.282.215.011.4.026.585.028,1.105.01,1.454.485,1.132,1.558q-1.352,4.494-2.709,8.987c-.267.888-.518,1.781-.8,2.662a.659.659,0,0,0,.157.772,2.566,2.566,0,0,1,.709,1.848c0,.27,0,.539,0,.894h.7c4.392,0,8.785.076,13.175-.02,5.225-.114,5.83.428,5.637,5.684-.02.559,0,1.119,0,1.766.267,0,.508,0,.75,0,.877.017,1.262.528,1.009,1.377q-2,6.718-4.021,13.433c-.355,1.184-.7,2.37-1.072,3.55a2.753,2.753,0,0,1-2.806,2.072q-10.563.005-21.127,0a2.794,2.794,0,0,1-2.885-2.21q-2.51-8.351-5.009-16.705c-.309-1.031.051-1.511,1.123-1.518.173,0,.346,0,.6,0v-3.715H805.189a2.851,2.851,0,0,1-3.125-2.355q-2.464-8.214-4.93-16.427c-.368-1.224-.062-1.637,1.23-1.653C798.5,1105.882,798.628,1105.884,798.82,1105.884Zm18.922,26.038c.036.145.06.256.092.364q2.312,7.711,4.628,15.421c.225.747.452.9,1.263.9h20.711c.9,0,1.109-.154,1.366-1.008q2.274-7.571,4.544-15.144c.052-.172.084-.35.127-.537Zm14.186-24.152H799.171c.028.125.044.218.071.308q2.332,7.765,4.667,15.529c.21.7.45.853,1.241.853q5.859,0,11.718,0c.166,0,.333-.021.527-.034,0-.874,0-1.7,0-2.533a2.8,2.8,0,0,1,3.009-3c2.533,0,5.066-.014,7.6.011.444,0,.641-.119.762-.548.407-1.45.853-2.888,1.286-4.33C830.671,1111.954,831.293,1109.886,831.928,1107.77Zm-1.581-1.911a.868.868,0,0,0,.042-.159q.005-2.06.006-4.12c0-.981-.292-1.268-1.285-1.269H818.957q-3.453,0-6.905,0c-.831,0-1.151-.328-1.158-1.162,0-.445,0-.89,0-1.335,0-.908-.31-1.216-1.221-1.216q-3.888,0-7.775,0c-.912,0-1.218.306-1.219,1.217q0,3.772,0,7.544c0,.166.021.333.032.5h1.824c0-.853,0-1.679,0-2.505,0-.868.319-1.182,1.2-1.182q11.808,0,23.617,0c.873,0,1.187.316,1.191,1.187,0,.826,0,1.651,0,2.5Zm18.624,24.149c0-1.456,0-2.865,0-4.274,0-.984-.291-1.272-1.281-1.272h-9.516c-2.534,0-5.068,0-7.6,0-.759,0-1.091-.342-1.1-1.1-.007-.464,0-.929,0-1.393,0-.911-.308-1.219-1.217-1.22q-3.888,0-7.776,0c-.914,0-1.222.305-1.222,1.213q0,3.772,0,7.544c0,.167.021.333.031.484h1.825c0-.858,0-1.67,0-2.482,0-.871.316-1.185,1.192-1.185q11.808,0,23.616,0c.874,0,1.19.316,1.195,1.183,0,.826,0,1.652,0,2.5Zm-22.316-25.941H804.44v1.787h22.216Zm18.574,24.149H823.014v1.79H845.23Z" transform="translate(0)" fill="#fff"/>
      <path id="Trazado_114010" data-name="Trazado 114010" d="M833.436,1332.67c-.83-.822-1.568-1.5-2.233-2.243a1.437,1.437,0,0,1-.363-1.014c.108-.735,1-.922,1.587-.353,1.067,1.039,2.111,2.1,3.164,3.155,1.358,1.359,1.359,1.411.017,2.752q-1.559,1.559-3.118,3.119a.949.949,0,0,1-1.3.226.918.918,0,0,1-.058-1.494c.717-.731,1.453-1.441,2.312-2.29h-.755q-4.41,0-8.82,0a2.8,2.8,0,0,1-3.071-3.057q0-6.645,0-13.289a2.564,2.564,0,0,1,.019-.521.921.921,0,0,1,1.818.008,2.877,2.877,0,0,1,.019.578q0,6.558,0,13.115c0,1.028.278,1.307,1.3,1.307Z" transform="translate(-20.121 -187.774)" fill="#fff"/>
      <path id="Trazado_114011" data-name="Trazado 114011" d="M1052.032,1105.248c.732.716,1.476,1.42,2.191,2.152a.9.9,0,0,1-.064,1.455.85.85,0,0,1-1.166-.079q-1.988-1.95-3.939-3.937a.877.877,0,0,1,.022-1.345q1.911-1.945,3.856-3.856a.925.925,0,1,1,1.308,1.3c-.724.74-1.478,1.451-2.219,2.174l.069.135h.552c2.069,0,4.138,0,6.207,0a2.775,2.775,0,0,1,2.919,2.914q.009,7.688,0,15.375a2.071,2.071,0,0,1-.014.405.882.882,0,0,1-.919.8.869.869,0,0,1-.908-.806,4.746,4.746,0,0,1-.016-.753q0-7.368,0-14.737c0-1.069-.269-1.339-1.33-1.339H1052.1Z" transform="translate(-212.799 -3.869)" fill="#fff"/>
      <path id="Trazado_114012" data-name="Trazado 114012" d="M967.674,1401.09c-.58,0-1.16,0-1.739,0a.943.943,0,0,1-.984-.734c-.34-1.126-.691-2.25-1.016-3.381a.938.938,0,1,1,1.78-.529c.244.773.494,1.545.691,2.33.1.383.28.477.645.464.772-.025,1.546-.015,2.319-.005.654.008,1.039.349,1.051.9.012.583-.381.939-1.065.95C968.8,1401.1,968.235,1401.09,967.674,1401.09Z" transform="translate(-141.057 -254.336)" fill="#fff"/>
      <path id="Trazado_114013" data-name="Trazado 114013" d="M1094.247,1348.666c-.807,0-1.522.005-2.236,0-.686-.007-1.1-.359-1.1-.922s.409-.928,1.093-.932q1.683-.011,3.366,0c.884.007,1.272.535,1.006,1.371s-.539,1.653-.822,2.475c-.222.643-.705.926-1.228.741a.958.958,0,0,1-.527-1.335C1093.934,1349.623,1094.079,1349.185,1094.247,1348.666Z" transform="translate(-248.431 -213.058)" fill="#fff"/>
      <path id="Trazado_114014" data-name="Trazado 114014" d="M847.609,1245.035c-.58,0-1.16,0-1.739,0a.922.922,0,0,1-.95-.7c-.352-1.144-.7-2.287-1.032-3.437a.932.932,0,1,1,1.772-.536c.259.808.513,1.619.732,2.439a.442.442,0,0,0,.525.385c.792-.017,1.585-.011,2.377,0,.694.006,1.087.349,1.086.928s-.4.918-1.089.926C848.73,1245.041,848.17,1245.035,847.609,1245.035Z" transform="translate(-39.591 -122.432)" fill="#fff"/>
      <path id="Trazado_114015" data-name="Trazado 114015" d="M974.213,1192.608c-.793,0-1.525.007-2.257,0-.673-.008-1.091-.384-1.078-.948a.941.941,0,0,1,1.061-.905q1.712-.013,3.424,0a.937.937,0,0,1,.988,1.34q-.4,1.271-.838,2.531a.935.935,0,1,1-1.755-.588C973.9,1193.578,974.049,1193.122,974.213,1192.608Z" transform="translate(-146.978 -81.151)" fill="#fff"/>
    </g>
  </g>
</svg>
