<svg xmlns="http://www.w3.org/2000/svg" width="105" height="105" viewBox="0 0 105 105">
  <g id="Grupo_109437" data-name="Grupo 109437" transform="translate(-810 -1819.5)">
    <g id="Grupo_109436" data-name="Grupo 109436">
      <g id="Grupo_109435" data-name="Grupo 109435">
        <g id="Grupo_109434" data-name="Grupo 109434">
          <g id="Grupo_109433" data-name="Grupo 109433">
            <g id="Grupo_109432" data-name="Grupo 109432">
              <g id="Grupo_109431" data-name="Grupo 109431">
                <g id="Grupo_109430" data-name="Grupo 109430">
                  <g id="Grupo_109429" data-name="Grupo 109429">
                    <g id="Grupo_109428" data-name="Grupo 109428">
                      <g id="Grupo_109427" data-name="Grupo 109427">
                        <g id="Grupo_109426" data-name="Grupo 109426">
                          <g id="Grupo_109425" data-name="Grupo 109425">
                            <g id="Grupo_109424" data-name="Grupo 109424">
                              <g id="Grupo_109423" data-name="Grupo 109423">
                                <g id="Grupo_109422" data-name="Grupo 109422">
                                  <g id="Grupo_109421" data-name="Grupo 109421">
                                    <g id="Grupo_109420" data-name="Grupo 109420">
                                      <circle id="Elipse_4749" data-name="Elipse 4749" cx="52.5" cy="52.5" r="52.5" transform="translate(810 1819.5)" fill="#4dd0e1"/>
                                    </g>
                                  </g>
                                </g>
                              </g>
                            </g>
                          </g>
                        </g>
                      </g>
                    </g>
                  </g>
                </g>
              </g>
            </g>
          </g>
        </g>
      </g>
      <g id="Grupo_108459" data-name="Grupo 108459" transform="translate(86.159 1528.478)">
        <path id="Trazado_114017" data-name="Trazado 114017" d="M792.706,357.158v.666c0,4.573.014,9.146-.022,13.718a2.023,2.023,0,0,1-.5,1.342,1.249,1.249,0,0,1-2.036-.86,4.645,4.645,0,0,1-.013-.561q0-18.732,0-37.465a6.414,6.414,0,0,1,12.819-.482c.041,1.416.013,2.834.013,4.252q0,18.452-.013,36.9a1.4,1.4,0,0,0,.611,1.262,11.552,11.552,0,1,1-13.234-.573c.954-.6,1.732-.538,2.175.169s.166,1.453-.756,2.063a8.891,8.891,0,0,0-3.987,9.439,8.6,8.6,0,0,0,6.834,6.958,9,9,0,0,0,6.844-16.334,1.992,1.992,0,0,1-1.055-1.891c.027-5.776.014-11.553.014-17.329a1.9,1.9,0,0,0-2.657-1.916,10.534,10.534,0,0,1-1.9.609C794.838,357.234,793.8,357.158,792.706,357.158Zm7.691-2.881c0-7.031.013-13.924-.014-20.816a3.372,3.372,0,0,0-1.376-2.7,3.768,3.768,0,0,0-4.144-.47,3.645,3.645,0,0,0-2.154,3.554c-.006,6.387.018,12.773-.023,19.16a1.364,1.364,0,0,0,1.24,1.564,3.391,3.391,0,0,0,1.792-.112A6.272,6.272,0,0,1,800.4,354.277Z" transform="translate(-18.946 -19.149)" fill="#fff"/>
        <path id="Trazado_114018" data-name="Trazado 114018" d="M808.117,333.58c0,6.417.008,12.834-.012,19.25a2.112,2.112,0,0,0,.588,1.563,16.891,16.891,0,0,1,4.55,11.1c.034,1.07-.385,1.582-1.236,1.6s-1.288-.474-1.326-1.524a14.122,14.122,0,0,0-4.412-9.917,2.233,2.233,0,0,1-.728-1.756q.022-19.491.009-38.982a8.991,8.991,0,0,0-17.97-.661,1.831,1.831,0,0,1-.386,1.231,1.9,1.9,0,0,1-1.375.285c-.637-.113-.819-.7-.8-1.311a11.545,11.545,0,0,1,17.014-10.008A10.956,10.956,0,0,1,808.1,314.57C808.168,320.906,808.116,327.243,808.117,333.58Z" transform="translate(-18.956)" fill="#fff"/>
        <path id="Trazado_114019" data-name="Trazado 114019" d="M768.626,428.912c0,4.251-.01,8.5.01,12.752a2.133,2.133,0,0,1-.724,1.69,14.075,14.075,0,0,0,10.668,24.283,13.5,13.5,0,0,0,12.048-8.813c.072-.172.131-.351.215-.517a1.373,1.373,0,0,1,1.885-.69,1.271,1.271,0,0,1,.57,1.716,16.1,16.1,0,0,1-3.959,6.055c-4.689,4.427-10.214,5.981-16.41,4.164a15.827,15.827,0,0,1-11.569-12.34,16.162,16.162,0,0,1,4.146-15.124,2,2,0,0,0,.563-1.484q-.022-12.151-.009-24.3a5.1,5.1,0,0,1,.02-.8,1.278,1.278,0,0,1,2.528.018,4.8,4.8,0,0,1,.018.721Q768.627,422.576,768.626,428.912Z" transform="translate(0 -87.612)" fill="#fff"/>
        <path id="Trazado_114020" data-name="Trazado 114020" d="M815.185,599.157a6.38,6.38,0,0,1-6.136-6.125c-.025-.98.393-1.524,1.2-1.564s1.291.449,1.359,1.419a3.779,3.779,0,0,0,3.691,3.707c.98.069,1.467.527,1.434,1.345S816.157,599.181,815.185,599.157Z" transform="translate(-37.848 -226.792)" fill="#fff"/>
        <path id="Trazado_114021" data-name="Trazado 114021" d="M787.525,377.952c0,.453.026.907-.007,1.358a1.272,1.272,0,0,1-2.54-.019c-.036-.9-.036-1.812,0-2.716a1.179,1.179,0,0,1,1.237-1.194,1.2,1.2,0,0,1,1.3,1.213C787.55,377.045,787.525,377.5,787.525,377.952Z" transform="translate(-18.905 -56.918)" fill="#fff"/>
        <path id="Trazado_114022" data-name="Trazado 114022" d="M907.6,377.877c-.426,0-.853.02-1.278,0a1.211,1.211,0,0,1-1.26-1.259,1.193,1.193,0,0,1,1.226-1.288c.878-.034,1.758-.031,2.635,0a1.274,1.274,0,0,1,.035,2.547C908.506,377.9,908.052,377.876,907.6,377.877Z" transform="translate(-113.327 -56.856)" fill="#fff"/>
        <path id="Trazado_114023" data-name="Trazado 114023" d="M907.694,411.369c.453,0,.908-.034,1.357.007a1.186,1.186,0,0,1,1.129,1.3,1.139,1.139,0,0,1-1.116,1.226,26.344,26.344,0,0,1-2.874,0,1.175,1.175,0,0,1-1.13-1.3,1.193,1.193,0,0,1,1.2-1.237c.477-.032.958-.006,1.437-.006Z" transform="translate(-113.326 -85.2)" fill="#fff"/>
        <path id="Trazado_114024" data-name="Trazado 114024" d="M907.584,449.9c-.453,0-.908.03-1.357-.007a1.2,1.2,0,0,1-1.166-1.268,1.177,1.177,0,0,1,1.162-1.267c.93-.042,1.865-.041,2.794,0a1.179,1.179,0,0,1,1.167,1.263,1.219,1.219,0,0,1-1.163,1.278,1.423,1.423,0,0,1-.16.006h-1.278Z" transform="translate(-113.328 -113.478)" fill="#fff"/>
        <path id="Trazado_114025" data-name="Trazado 114025" d="M907.6,485.923c-.426,0-.853.02-1.278,0a1.211,1.211,0,0,1-1.26-1.259,1.193,1.193,0,0,1,1.226-1.288c.878-.034,1.758-.031,2.635,0a1.274,1.274,0,0,1,.035,2.547C908.506,485.945,908.052,485.922,907.6,485.923Z" transform="translate(-113.327 -141.796)" fill="#fff"/>
        <path id="Trazado_114026" data-name="Trazado 114026" d="M907.629,519.411c.453,0,.907-.025,1.357.006a1.272,1.272,0,0,1-.017,2.541c-.9.036-1.811.037-2.715,0a1.182,1.182,0,0,1-1.195-1.238,1.2,1.2,0,0,1,1.212-1.3C906.722,519.386,907.177,519.411,907.629,519.411Z" transform="translate(-113.326 -170.139)" fill="#fff"/>
      </g>
    </g>
  </g>
</svg>
