<svg xmlns="http://www.w3.org/2000/svg" width="105" height="105" viewBox="0 0 105 105">
  <g id="Grupo_109420" data-name="Grupo 109420" transform="translate(-268 -2133.5)">
    <circle id="Elipse_4750" data-name="Elipse 4750" cx="52.5" cy="52.5" r="52.5" transform="translate(268 2133.5)" fill="#4dd0e1"/>
    <g id="Grupo_108460" data-name="Grupo 108460" transform="translate(-322.745 687.501)">
      <path id="Trazado_114027" data-name="Trazado 114027" d="M673.8,1507.658c-.193.566-.352,1.146-.586,1.694a1.23,1.23,0,0,1-1.654.772,1.215,1.215,0,0,1-.655-1.655,7.14,7.14,0,0,0,.4-2.816c-.023-1.406.038-2.817-.074-4.216a3.64,3.64,0,0,0-3.563-3.386c-.156-.01-.312-.009-.469-.009H620.37a3.765,3.765,0,0,0-3.945,2.755,2.429,2.429,0,0,0-.109.631c-.019,1.835-.124,3.677-.013,5.505.139,2.3,1.7,3.62,4.066,3.624q5.978.012,11.957,0,4.161,0,8.322,0a1.373,1.373,0,0,1,1.384.681,1.2,1.2,0,0,1-.691,1.713,2.96,2.96,0,0,1-.866.1q-10.081.007-20.162,0a3.773,3.773,0,0,0-3.909,2.807,2.306,2.306,0,0,0-.087.576c-.018,1.835-.123,3.677-.013,5.5.139,2.3,1.7,3.622,4.065,3.626q7.707.012,15.415,0c.215,0,.431-.005.644.011a1.235,1.235,0,0,1,.556,2.327c-.08.05-.158.1-.236.155H619.16c-.047-.031-.092-.083-.142-.09a6.341,6.341,0,0,1-5.262-6.494c.057-1.5-.02-3.01.024-4.513a8.928,8.928,0,0,1,.3-2.015,6.092,6.092,0,0,1,2.163-3.11.533.533,0,0,0-.065-.131c-.068-.069-.145-.13-.218-.195a6.135,6.135,0,0,1-2.186-4.682q-.038-2.549,0-5.1a6.089,6.089,0,0,1,2.121-4.592,4.593,4.593,0,0,1,.455-.314,6.676,6.676,0,0,1-2.594-5.988c.052-1.092.051-2.19,0-3.282a7.912,7.912,0,0,1,1.335-4.7q3.621-5.748,7.181-11.535a6.485,6.485,0,0,1,5.927-3.3q15.561.025,31.122,0a6.52,6.52,0,0,1,5.98,3.316c2.019,3.3,4.08,6.567,6.121,9.849a15.143,15.143,0,0,1,2.375,4.785v6.684a7.264,7.264,0,0,1-.509,1.524c-.558.937-1.217,1.814-1.771,2.622.55.794,1.2,1.634,1.734,2.542a8.034,8.034,0,0,1,.547,1.638Zm-30.015-24.627q-11.633,0-23.266,0a6.956,6.956,0,0,0-1.051.059,3.562,3.562,0,0,0-3.129,3.3c-.106,1.83-.075,3.67-.043,5.5a3.742,3.742,0,0,0,.377,1.514,3.85,3.85,0,0,0,3.843,2.146q23.266-.012,46.532,0c.137,0,.274,0,.411,0a3.655,3.655,0,0,0,3.743-3.128c.125-1.964.053-3.94.056-5.911a2.6,2.6,0,0,0-.109-.691,3.761,3.761,0,0,0-3.922-2.784Q655.5,1483.028,643.783,1483.031Zm-24.265-2.513h48.545c-1.684-2.709-3.342-5.354-4.977-8.013a3.945,3.945,0,0,0-3.6-1.994q-15.707.008-31.414,0a3.943,3.943,0,0,0-3.6,2c-1.553,2.528-3.132,5.041-4.7,7.56C619.69,1480.2,619.619,1480.34,619.518,1480.518Z" fill="#fff"/>
      <path id="Trazado_114028" data-name="Trazado 114028" d="M674.489,1573.388a7.6,7.6,0,0,1-3.295-1.536,6.215,6.215,0,0,1,.191-9.573,11.438,11.438,0,0,1,2.276-1.155c.28-.123.437-.217.486-.547a11.186,11.186,0,0,1,12.639-9.58,10.77,10.77,0,0,1,7.3,4.245,1.434,1.434,0,0,0,1.279.669,8.674,8.674,0,0,1,8.566,7.419,1.954,1.954,0,0,0,.109.324v1.994a1.333,1.333,0,0,0-.106.261,8.613,8.613,0,0,1-5.842,7c-.577.214-1.193.323-1.791.48Zm10.946-2.494c2.207,0,4.415.007,6.622,0,1.308-.006,2.623.043,3.923-.073a6.232,6.232,0,0,0,1.648-11.976,5.387,5.387,0,0,0-3.037-.386,1.594,1.594,0,0,1-1.908-.874,3.834,3.834,0,0,0-.222-.344,8.7,8.7,0,0,0-15.9,4.325c-.115,1.5-.3,1.69-1.822,1.865a3.758,3.758,0,0,0,.855,7.463C678.87,1570.9,682.152,1570.894,685.434,1570.894Z" transform="translate(-30.238 -45.324)" fill="#fff"/>
      <path id="Trazado_114029" data-name="Trazado 114029" d="M691.266,1542.307q-4.744,0-9.487,0c-1.113,0-1.706-.427-1.726-1.235s.6-1.284,1.735-1.284h19.032c1.112,0,1.705.427,1.726,1.234s-.6,1.284-1.735,1.284Z" transform="translate(-36.262 -39.253)" fill="#fff"/>
      <path id="Trazado_114030" data-name="Trazado 114030" d="M628.579,1547.3a3.743,3.743,0,0,1,.051-7.486,3.743,3.743,0,1,1-.051,7.486Zm.054-4.964a1.249,1.249,0,0,0-1.269,1.184,1.283,1.283,0,0,0,1.24,1.286,1.256,1.256,0,0,0,1.229-1.228A1.217,1.217,0,0,0,628.634,1542.336Z" transform="translate(-6.084 -39.267)" fill="#fff"/>
      <path id="Trazado_114031" data-name="Trazado 114031" d="M628.585,1580.427a3.743,3.743,0,0,1,.039-7.487,3.743,3.743,0,1,1-.039,7.487Zm0-4.966a1.255,1.255,0,0,0-1.222,1.237,1.289,1.289,0,0,0,1.234,1.236,1.251,1.251,0,0,0,1.235-1.279A1.216,1.216,0,0,0,628.583,1575.461Z" transform="translate(-6.084 -57.384)" fill="#fff"/>
      <path id="Trazado_114032" data-name="Trazado 114032" d="M691.366,1506.66h9.428c1.147,0,1.759.444,1.753,1.266s-.612,1.252-1.767,1.252H681.807c-1.15,0-1.759-.442-1.753-1.266s.612-1.252,1.767-1.252Z" transform="translate(-36.263 -21.136)" fill="#fff"/>
      <path id="Trazado_114033" data-name="Trazado 114033" d="M691.27,1520.212h-9.32c-.176,0-.352,0-.527,0a1.251,1.251,0,1,1,.03-2.486c2.208-.013,4.416,0,6.623,0h12.895c.99.007,1.587.487,1.575,1.266-.012.76-.585,1.224-1.546,1.226Q696.135,1520.217,691.27,1520.212Z" transform="translate(-36.262 -27.183)" fill="#fff"/>
      <path id="Trazado_114034" data-name="Trazado 114034" d="M628.62,1514.168a3.744,3.744,0,0,1-.033-7.487,3.744,3.744,0,1,1,.033,7.487Zm-.038-4.964a1.255,1.255,0,0,0-1.221,1.237,1.29,1.29,0,0,0,1.235,1.235,1.251,1.251,0,0,0,1.234-1.28A1.216,1.216,0,0,0,628.582,1509.2Z" transform="translate(-6.083 -21.148)" fill="#fff"/>
    </g>
  </g>
</svg>
