<svg xmlns="http://www.w3.org/2000/svg" xmlns:xlink="http://www.w3.org/1999/xlink" width="144" height="186.929" viewBox="0 0 144 186.929">
  <defs>
    <radialGradient id="radial-gradient" cx="0.234" cy="0.38" r="0.644" gradientTransform="translate(-0.287) scale(1.574 1)" gradientUnits="objectBoundingBox">
      <stop offset="0" stop-color="#1b5b9d"/>
      <stop offset="1" stop-color="#0b3f79"/>
    </radialGradient>
    <linearGradient id="linear-gradient" x1="0.029" y1="0.235" x2="0.883" y2="0.916" gradientUnits="objectBoundingBox">
      <stop offset="0" stop-color="#cae8fb"/>
      <stop offset="0.221" stop-color="#c6e5f9"/>
      <stop offset="0.426" stop-color="#bbdef5"/>
      <stop offset="0.624" stop-color="#a8d2ef"/>
      <stop offset="0.818" stop-color="#8ec0e6"/>
      <stop offset="1" stop-color="#6eacdb"/>
    </linearGradient>
    <linearGradient id="linear-gradient-2" x1="-8.858" y1="11.696" x2="-7.732" y2="11.609" gradientUnits="objectBoundingBox">
      <stop offset="0" stop-color="#1b2e7f"/>
      <stop offset="1" stop-color="#2e3787"/>
    </linearGradient>
  </defs>
  <g id="Grupo_109419" data-name="Grupo 109419" transform="translate(-1378.726 -7317.485)">
    <circle id="Elipse_6983" data-name="Elipse 6983" cx="72" cy="72" r="72" transform="translate(1378.726 7360.415)" fill="#4dd0e1"/>
    <g id="Grupo_108723" data-name="Grupo 108723" transform="translate(1300.609 7265.982)">
      <g id="Grupo_108715" data-name="Grupo 108715">
        <g id="Grupo_108710" data-name="Grupo 108710">
          <g id="Grupo_108702" data-name="Grupo 108702">
            <g id="Grupo_108701" data-name="Grupo 108701">
              <g id="Grupo_108700" data-name="Grupo 108700">
                <path id="Trazado_115526" data-name="Trazado 115526" d="M149.206,112.461s-25.187,2.4-40.357,3.564l40.236,114.59,53.22-30.7.026-.016.1-.054,0-.005a2.962,2.962,0,0,0,1.087-2.627v-112a8.111,8.111,0,0,0-.924-3.575Z" fill="url(#radial-gradient)"/>
                <path id="Trazado_115527" data-name="Trazado 115527" d="M200.215,78.919,153.412,51.9a2.115,2.115,0,0,0-2.132-.184h0L97.846,82.539l2.517,9.317,13.4,38.157,2.522,1.456L202.589,81.64A6.584,6.584,0,0,0,200.215,78.919Z" fill="url(#linear-gradient)"/>
                <path id="Trazado_115528" data-name="Trazado 115528" d="M146.82,230.511l-46.8-27.022a7.891,7.891,0,0,1-3.3-6.3v-112c0-2.427,1.475-3.542,3.3-2.492l46.8,27.023a7.892,7.892,0,0,1,3.3,6.3v112C150.116,230.446,148.64,231.562,146.82,230.511Z" fill="#3882c5"/>
                <path id="Trazado_115529" data-name="Trazado 115529" d="M147.824,109.158l-46.8-27.023a1.947,1.947,0,0,0-2.593.191,2.439,2.439,0,0,1,1.59.372l46.8,27.022a7.9,7.9,0,0,1,3.3,6.3v112a3.423,3.423,0,0,1-.7,2.3c1.017-.161,1.706-1.206,1.706-2.864v-112A7.893,7.893,0,0,0,147.824,109.158Z" fill="#fff"/>
                <path id="Trazado_115530" data-name="Trazado 115530" d="M143.876,223.769l-40.915-23.623a6.9,6.9,0,0,1-2.881-5.5V90.623c0-2.121,1.29-3.1,2.881-2.178l40.915,23.622a6.9,6.9,0,0,1,2.881,5.5V221.591C146.757,223.712,145.467,224.687,143.876,223.769Z" fill="url(#linear-gradient-2)"/>
                <path id="Trazado_115531" data-name="Trazado 115531" d="M143.876,223.769l-40.915-23.623a6.9,6.9,0,0,1-2.881-5.5V90.623c0-2.121,1.29-3.1,2.881-2.178l40.915,23.622a6.9,6.9,0,0,1,2.881,5.5V221.591C146.757,223.712,145.467,224.687,143.876,223.769Z" fill="url(#linear-gradient-2)"/>
                <path id="Trazado_115532" data-name="Trazado 115532" d="M143.876,223.769l-40.915-23.623a6.9,6.9,0,0,1-2.881-5.5V90.623c0-2.121,1.29-3.1,2.881-2.178l40.915,23.622a6.9,6.9,0,0,1,2.881,5.5V221.591C146.757,223.712,145.467,224.687,143.876,223.769Z" fill="#003066"/>
                <path id="Trazado_115533" data-name="Trazado 115533" d="M145.213,222.982,104.3,199.36a6.9,6.9,0,0,1-2.881-5.505V89.837a3.325,3.325,0,0,1,.413-1.737c-1.029-.008-1.75.937-1.75,2.523V194.641a6.9,6.9,0,0,0,2.881,5.5l40.915,23.623a1.668,1.668,0,0,0,2.468-.442A2.315,2.315,0,0,1,145.213,222.982Z" fill="#1b5b9d"/>
              </g>
            </g>
          </g>
          <g id="Grupo_108704" data-name="Grupo 108704">
            <g id="Grupo_108703" data-name="Grupo 108703">
              <path id="Trazado_115534" data-name="Trazado 115534" d="M143.876,176.012l-15.208-8.78-24.254,14,42.343,24.446V181.517A6.9,6.9,0,0,0,143.876,176.012Z" fill="#003066"/>
              <path id="Trazado_115535" data-name="Trazado 115535" d="M143.876,154.7l-15.208-8.78-24.254,14,42.343,24.447V160.2A6.9,6.9,0,0,0,143.876,154.7Z" fill="#003066"/>
              <path id="Trazado_115536" data-name="Trazado 115536" d="M143.876,133.382l-15.208-8.78-24.254,14,42.343,24.447V138.887A6.9,6.9,0,0,0,143.876,133.382Z" fill="#003066"/>
              <path id="Trazado_115537" data-name="Trazado 115537" d="M143.876,112.067l-15.208-8.78-24.254,14,42.343,24.447V117.572A6.9,6.9,0,0,0,143.876,112.067Z" fill="#003066"/>
              <path id="Trazado_115538" data-name="Trazado 115538" d="M143.876,112.067,110.209,92.63l-5.795,3.345,42.343,24.447v-2.85A6.9,6.9,0,0,0,143.876,112.067Z" fill="#003066"/>
            </g>
            <path id="Trazado_115539" data-name="Trazado 115539" d="M146.757,120.423,104.414,95.976v13.472l42.343,24.447Z" fill="#3882c5"/>
            <path id="Trazado_115540" data-name="Trazado 115540" d="M146.757,141.738,104.414,117.29v13.472l42.343,24.447Z" fill="#3882c5"/>
            <path id="Trazado_115541" data-name="Trazado 115541" d="M146.757,163.052l-42.343-24.447v13.472l42.343,24.447Z" fill="#3882c5"/>
            <path id="Trazado_115542" data-name="Trazado 115542" d="M146.757,184.367,104.414,159.92v13.472l42.343,24.447Z" fill="#3882c5"/>
            <path id="Trazado_115543" data-name="Trazado 115543" d="M146.757,205.682l-42.343-24.447v13.472l42.343,24.447Z" fill="#3882c5"/>
          </g>
          <g id="Grupo_108705" data-name="Grupo 108705">
            <path id="Trazado_115544" data-name="Trazado 115544" d="M143.023,129.094,111.129,110.68a3.906,3.906,0,0,1-1.63-3.115v-3.608c0-1.2.73-1.753,1.63-1.233l31.894,18.414a3.906,3.906,0,0,1,1.63,3.115v3.608C144.653,129.062,143.923,129.614,143.023,129.094Z" fill="#003066"/>
            <path id="Trazado_115545" data-name="Trazado 115545" d="M112.741,109.989a3.9,3.9,0,0,1-1.63-3.115v-3.608a2.342,2.342,0,0,1,.059-.518l-.041-.024c-.9-.52-1.63.032-1.63,1.233v3.608a3.906,3.906,0,0,0,1.63,3.115l31.894,18.413a.975.975,0,0,0,1.57-.714Z" fill="#11152b" opacity="0.3"/>
            <path id="Trazado_115546" data-name="Trazado 115546" d="M133.014,119.205l-19.192-11.081a1.372,1.372,0,0,1-.573-1.1h0c0-.422.256-.616.573-.433l19.192,11.08a1.374,1.374,0,0,1,.574,1.1h0C133.588,119.194,133.331,119.388,133.014,119.205Z" fill="#fff"/>
          </g>
          <g id="Grupo_108706" data-name="Grupo 108706">
            <path id="Trazado_115547" data-name="Trazado 115547" d="M143.023,150.277l-31.894-18.414a3.9,3.9,0,0,1-1.63-3.115V125.14c0-1.2.73-1.752,1.63-1.232l31.894,18.413a3.907,3.907,0,0,1,1.63,3.116v3.607C144.653,150.245,143.923,150.8,143.023,150.277Z" fill="#003066"/>
            <path id="Trazado_115548" data-name="Trazado 115548" d="M112.741,131.173a3.907,3.907,0,0,1-1.63-3.116v-3.608a2.342,2.342,0,0,1,.059-.518l-.041-.023c-.9-.52-1.63.031-1.63,1.232v3.608a3.9,3.9,0,0,0,1.63,3.115l31.894,18.414a.976.976,0,0,0,1.57-.715Z" fill="#11152b" opacity="0.3"/>
            <path id="Trazado_115549" data-name="Trazado 115549" d="M133.014,140.388l-19.192-11.08a1.373,1.373,0,0,1-.573-1.1h0c0-.423.256-.617.573-.434l19.192,11.081a1.373,1.373,0,0,1,.574,1.1h0C133.588,140.377,133.331,140.571,133.014,140.388Z" fill="#fff"/>
          </g>
          <g id="Grupo_108707" data-name="Grupo 108707">
            <path id="Trazado_115550" data-name="Trazado 115550" d="M143.023,171.658l-31.894-18.414a3.906,3.906,0,0,1-1.63-3.115v-3.608c0-1.2.73-1.753,1.63-1.233L143.023,163.7a3.906,3.906,0,0,1,1.63,3.115v3.608C144.653,171.626,143.923,172.178,143.023,171.658Z" fill="#003066"/>
            <path id="Trazado_115551" data-name="Trazado 115551" d="M112.741,152.553a3.9,3.9,0,0,1-1.63-3.115V145.83a2.342,2.342,0,0,1,.059-.518l-.041-.024c-.9-.52-1.63.032-1.63,1.233v3.608a3.906,3.906,0,0,0,1.63,3.115l31.894,18.414a.976.976,0,0,0,1.57-.715Z" fill="#11152b" opacity="0.3"/>
            <path id="Trazado_115552" data-name="Trazado 115552" d="M133.014,161.769l-19.192-11.081a1.372,1.372,0,0,1-.573-1.1h0c0-.422.256-.616.573-.433l19.192,11.081a1.371,1.371,0,0,1,.574,1.1h0C133.588,161.758,133.331,161.952,133.014,161.769Z" fill="#cae8fb"/>
          </g>
          <g id="Grupo_108708" data-name="Grupo 108708">
            <path id="Trazado_115553" data-name="Trazado 115553" d="M143.023,193.236l-31.894-18.414a3.906,3.906,0,0,1-1.63-3.115V168.1c0-1.2.73-1.753,1.63-1.233l31.894,18.414a3.906,3.906,0,0,1,1.63,3.115V192C144.653,193.2,143.923,193.756,143.023,193.236Z" fill="#003066"/>
            <path id="Trazado_115554" data-name="Trazado 115554" d="M112.741,174.131a3.9,3.9,0,0,1-1.63-3.115v-3.608a2.342,2.342,0,0,1,.059-.518l-.041-.024c-.9-.52-1.63.032-1.63,1.233v3.608a3.9,3.9,0,0,0,1.63,3.115l31.894,18.414a.976.976,0,0,0,1.57-.715Z" fill="#11152b" opacity="0.3"/>
            <path id="Trazado_115555" data-name="Trazado 115555" d="M133.014,183.347l-19.192-11.081a1.37,1.37,0,0,1-.573-1.1h0c0-.423.256-.617.573-.434l19.192,11.081a1.373,1.373,0,0,1,.574,1.1h0C133.588,183.336,133.331,183.53,133.014,183.347Z" fill="#dc257d"/>
          </g>
          <g id="Grupo_108709" data-name="Grupo 108709">
            <path id="Trazado_115556" data-name="Trazado 115556" d="M143.023,214.386l-31.894-18.413a3.907,3.907,0,0,1-1.63-3.116v-3.608c0-1.2.73-1.752,1.63-1.232l31.894,18.413a3.907,3.907,0,0,1,1.63,3.116v3.608C144.653,214.354,143.923,214.906,143.023,214.386Z" fill="#003066"/>
            <path id="Trazado_115557" data-name="Trazado 115557" d="M112.741,195.282a3.907,3.907,0,0,1-1.63-3.116v-3.607a2.358,2.358,0,0,1,.059-.519l-.041-.023c-.9-.52-1.63.032-1.63,1.232v3.608a3.907,3.907,0,0,0,1.63,3.116l31.894,18.413a.975.975,0,0,0,1.57-.714Z" fill="#11152b" opacity="0.3"/>
            <path id="Trazado_115558" data-name="Trazado 115558" d="M133.014,204.5l-19.192-11.081a1.373,1.373,0,0,1-.573-1.1h0c0-.422.256-.616.573-.434l19.192,11.081a1.374,1.374,0,0,1,.574,1.1h0C133.588,204.486,133.331,204.68,133.014,204.5Z" fill="#cae8fb"/>
          </g>
          <path id="Trazado_115559" data-name="Trazado 115559" d="M104.414,95.976l3.334,1.925v13.472l-3.334-1.925Z" fill="#003066" opacity="0.5"/>
          <path id="Trazado_115560" data-name="Trazado 115560" d="M104.414,117.29l3.334,1.925v13.472l-3.334-1.925Z" fill="#003066" opacity="0.5"/>
          <path id="Trazado_115561" data-name="Trazado 115561" d="M104.414,138.605l3.334,1.925V154l-3.334-1.925Z" fill="#003066" opacity="0.5"/>
          <path id="Trazado_115562" data-name="Trazado 115562" d="M104.414,159.92l3.334,1.925v13.472l-3.334-1.925Z" fill="#003066" opacity="0.5"/>
          <path id="Trazado_115563" data-name="Trazado 115563" d="M104.414,181.235l3.334,1.925v13.472l-3.334-1.925Z" fill="#003066" opacity="0.5"/>
        </g>
        <ellipse id="Elipse_6987" data-name="Elipse 6987" cx="0.551" cy="0.955" rx="0.551" ry="0.955" transform="matrix(0.866, -0.5, 0.5, 0.866, 135.166, 119.594)" fill="#cae8fb"/>
        <path id="Trazado_115564" data-name="Trazado 115564" d="M139.658,122.188c0,.43-.3.6-.675.39a1.494,1.494,0,0,1-.676-1.17c0-.43.3-.6.676-.39A1.5,1.5,0,0,1,139.658,122.188Z" fill="#dc257d"/>
        <path id="Trazado_115565" data-name="Trazado 115565" d="M142.52,123.84c0,.431-.3.605-.675.39a1.492,1.492,0,0,1-.675-1.169c0-.431.3-.6.675-.39A1.492,1.492,0,0,1,142.52,123.84Z" fill="#cae8fb"/>
        <path id="Trazado_115566" data-name="Trazado 115566" d="M136.8,141.839c0,.431-.3.6-.676.39a1.494,1.494,0,0,1-.675-1.169c0-.431.3-.6.675-.39A1.493,1.493,0,0,1,136.8,141.839Z" fill="#dc257d"/>
        <path id="Trazado_115567" data-name="Trazado 115567" d="M139.658,143.492c0,.43-.3.6-.675.39a1.494,1.494,0,0,1-.676-1.17c0-.43.3-.605.676-.389A1.493,1.493,0,0,1,139.658,143.492Z" fill="#cae8fb"/>
        <path id="Trazado_115568" data-name="Trazado 115568" d="M142.52,145.144c0,.431-.3.6-.675.39a1.492,1.492,0,0,1-.675-1.169c0-.431.3-.605.675-.39A1.492,1.492,0,0,1,142.52,145.144Z" fill="#fff"/>
        <path id="Trazado_115569" data-name="Trazado 115569" d="M136.8,163.3c0,.431-.3.6-.676.39a1.494,1.494,0,0,1-.675-1.169c0-.431.3-.6.675-.39A1.493,1.493,0,0,1,136.8,163.3Z" fill="#fff"/>
        <path id="Trazado_115570" data-name="Trazado 115570" d="M139.658,164.957c0,.43-.3.6-.675.39a1.494,1.494,0,0,1-.676-1.17c0-.43.3-.6.676-.389A1.493,1.493,0,0,1,139.658,164.957Z" fill="#dc257d"/>
        <path id="Trazado_115571" data-name="Trazado 115571" d="M142.52,166.609c0,.431-.3.605-.675.39a1.492,1.492,0,0,1-.675-1.169c0-.431.3-.6.675-.39A1.492,1.492,0,0,1,142.52,166.609Z" fill="#fff"/>
        <path id="Trazado_115572" data-name="Trazado 115572" d="M136.8,184.457c0,.43-.3.6-.676.39a1.5,1.5,0,0,1-.675-1.17c0-.43.3-.6.675-.389A1.491,1.491,0,0,1,136.8,184.457Z" fill="#fff"/>
        <path id="Trazado_115573" data-name="Trazado 115573" d="M139.658,186.109c0,.431-.3.605-.675.39a1.493,1.493,0,0,1-.676-1.169c0-.431.3-.6.676-.39A1.494,1.494,0,0,1,139.658,186.109Z" fill="#cae8fb"/>
        <path id="Trazado_115574" data-name="Trazado 115574" d="M142.52,187.762c0,.43-.3.605-.675.39a1.493,1.493,0,0,1-.675-1.17c0-.43.3-.6.675-.39A1.493,1.493,0,0,1,142.52,187.762Z" fill="#cae8fb"/>
        <path id="Trazado_115575" data-name="Trazado 115575" d="M136.8,205.9c0,.43-.3.605-.676.39a1.5,1.5,0,0,1-.675-1.17c0-.43.3-.6.675-.39A1.494,1.494,0,0,1,136.8,205.9Z" fill="#fff"/>
        <path id="Trazado_115576" data-name="Trazado 115576" d="M139.658,207.55c0,.431-.3.6-.675.39a1.493,1.493,0,0,1-.676-1.169c0-.431.3-.6.676-.39A1.494,1.494,0,0,1,139.658,207.55Z" fill="#dc257d"/>
        <path id="Trazado_115577" data-name="Trazado 115577" d="M142.52,209.2c0,.43-.3.6-.675.39a1.493,1.493,0,0,1-.675-1.17c0-.43.3-.605.675-.39A1.493,1.493,0,0,1,142.52,209.2Z" fill="#cae8fb"/>
        <g id="Grupo_108711" data-name="Grupo 108711">
          <path id="Trazado_115578" data-name="Trazado 115578" d="M157.165,215.372V120l.2-.113,39.858-23.013v95.372l-.2.113Zm.79-94.915V214l38.477-22.215V98.242Z" fill="#003066"/>
        </g>
        <g id="Grupo_108714" data-name="Grupo 108714">
          <path id="Trazado_115579" data-name="Trazado 115579" d="M186.867,139.785,168.995,150.1c-1.2.693-2.174-.043-2.174-1.644v-9.909a5.2,5.2,0,0,1,2.174-4.153l17.872-10.319c1.2-.693,2.174.043,2.174,1.644v9.909A5.206,5.206,0,0,1,186.867,139.785Z" fill="#003066"/>
          <path id="Trazado_115580" data-name="Trazado 115580" d="M187.3,123.887a2.879,2.879,0,0,1,.161.994v9.909a5.205,5.205,0,0,1-2.174,4.154l-17.872,10.318a2.076,2.076,0,0,1-.433.192,1.267,1.267,0,0,0,2.012.65l17.872-10.319a5.206,5.206,0,0,0,2.174-4.153v-9.909C189.041,124.32,188.293,123.582,187.3,123.887Z" fill="#3882c5"/>
          <g id="Grupo_108713" data-name="Grupo 108713">
            <g id="Grupo_108712" data-name="Grupo 108712">
              <path id="Trazado_115581" data-name="Trazado 115581" d="M183.6,133.818c.33-.191.6-.036.6.345v2.257a1.322,1.322,0,0,1-.6,1.036c-.331.191-.6.037-.6-.345v-2.257A1.319,1.319,0,0,1,183.6,133.818Z" fill="#fff"/>
              <path id="Trazado_115582" data-name="Trazado 115582" d="M181.039,135.58c.33-.191.6-.036.6.345V137.9a1.321,1.321,0,0,1-.6,1.036c-.331.191-.6.037-.6-.345v-1.975A1.321,1.321,0,0,1,181.039,135.58Z" fill="#cae8fb"/>
              <path id="Trazado_115583" data-name="Trazado 115583" d="M178.475,134.856c.33-.19.6-.036.6.346v4.179a1.324,1.324,0,0,1-.6,1.036c-.331.19-.6.036-.6-.346v-4.178A1.322,1.322,0,0,1,178.475,134.856Z" fill="#dc257d"/>
              <path id="Trazado_115584" data-name="Trazado 115584" d="M175.911,133.929c.331-.191.6-.036.6.345v6.587a1.321,1.321,0,0,1-.6,1.036c-.33.191-.6.036-.6-.345v-6.587A1.321,1.321,0,0,1,175.911,133.929Z" fill="#cae8fb"/>
              <path id="Trazado_115585" data-name="Trazado 115585" d="M173.347,136.1c.331-.191.6-.036.6.345v5.9a1.321,1.321,0,0,1-.6,1.036c-.33.191-.6.036-.6-.345v-5.9A1.321,1.321,0,0,1,173.347,136.1Z" fill="#cae8fb"/>
              <path id="Trazado_115586" data-name="Trazado 115586" d="M170.784,140.274c.33-.191.6-.037.6.345v3.2a1.322,1.322,0,0,1-.6,1.036c-.331.191-.6.037-.6-.345v-3.2A1.319,1.319,0,0,1,170.784,140.274Z" fill="#fff"/>
            </g>
            <path id="Trazado_115587" data-name="Trazado 115587" d="M183.014,132.677c0,.375.264.528.589.34a1.3,1.3,0,0,0,.588-1.019c0-.375-.264-.527-.588-.34A1.3,1.3,0,0,0,183.014,132.677Z" fill="#dc257d"/>
            <ellipse id="Elipse_6988" data-name="Elipse 6988" cx="0.832" cy="0.48" rx="0.832" ry="0.48" transform="matrix(0.5, -0.866, 0.866, 0.5, 182.77, 130.696)" fill="#fff"/>
          </g>
        </g>
      </g>
    </g>
    <circle id="Elipse_6995" data-name="Elipse 6995" cx="31.18" cy="31.18" r="31.18" transform="translate(1460.366 7417.14)" fill="#fd9927"/>
    <g id="Grupo_108732" data-name="Grupo 108732" transform="translate(1010.437 6433.129)">
      <path id="Trazado_115620" data-name="Trazado 115620" d="M463,1026.283c.038-.109.079-.217.113-.327a2.624,2.624,0,0,1,2.362-1.877,2.6,2.6,0,0,1,2.606,1.625.405.405,0,0,0,.457.3c1.8-.009,3.607-.005,5.411-.005h.36c.007-.138.012-.241.018-.344a1.773,1.773,0,0,1,1.765-1.719c.764-.017,1.528,0,2.351,0v-1.005a1.832,1.832,0,0,1,1.847-2.116.311.311,0,0,0,.078-.042v-2.555c-.77,0-1.521,0-2.273,0a.73.73,0,0,1-.791-.79.709.709,0,0,1,.662-.625c.129-.01.259,0,.389,0q7.339,0,14.678,0a1.636,1.636,0,0,0,1.761-1.267,1.719,1.719,0,0,0,.038-.385q0-5.234,0-10.469c0-.081-.009-.163-.016-.266H467.382v.361q0,5.11,0,10.221a1.633,1.633,0,0,0,1.788,1.805c.8,0,1.6,0,2.405,0a.709.709,0,0,1,.794.707.718.718,0,0,1-.8.711c-.813.006-1.627,0-2.44,0a3.026,3.026,0,0,1-3.173-3.182q-.007-4.421,0-8.842,0-4.244,0-8.488a1.874,1.874,0,0,1,2.072-2.082c2.582,0,5.164.024,7.745-.012a2.984,2.984,0,0,1,2.544,1.109c.447.546.976,1.023,1.452,1.546a.749.749,0,0,0,.613.262q6.348-.011,12.7,0a3,3,0,0,1,3.044,2.161,3.568,3.568,0,0,1,.127.975q.012,6.7,0,13.4a3.021,3.021,0,0,1-3.166,3.151q-5.412,0-10.823,0h-.435v2.572a6.061,6.061,0,0,1,.621.111,1.739,1.739,0,0,1,1.279,1.637c.013.446,0,.893,0,1.4h.97c.436,0,.872-.006,1.309,0a1.767,1.767,0,0,1,1.844,1.744c.006.093.012.186.019.3h6.141c.038-.1.076-.2.122-.309a2.647,2.647,0,1,1,2.972,3.637,2.626,2.626,0,0,1-2.956-1.534.48.48,0,0,0-.53-.358c-1.78.014-3.56.007-5.34.007h-.4c-.022.13-.04.233-.057.335a1.766,1.766,0,0,1-1.5,1.438,4.6,4.6,0,0,1-.564.029q-4.6,0-9.2,0c-1.438,0-1.938-.391-2.283-1.8h-1.722c-1.356,0-2.712,0-4.068,0a.345.345,0,0,0-.392.245,2.591,2.591,0,0,1-2.671,1.68,2.629,2.629,0,0,1-2.366-2.053,1.15,1.15,0,0,0-.066-.157Zm4.382-23.354H494.83c0-.532.027-1.039-.006-1.542a1.633,1.633,0,0,0-1.744-1.446c-4.349.02-8.7,0-13.048.015a1.3,1.3,0,0,1-1.053-.453c-.625-.69-1.288-1.345-1.918-2.03a1.2,1.2,0,0,0-.958-.426c-2.711.01-5.422,0-8.133,0-.455,0-.586.135-.586.592q0,2.511,0,5.021Zm13.713,24.863q2.4,0,4.808,0c.438,0,.523-.088.526-.516q.006-.707,0-1.414c0-.407-.1-.5-.5-.5-.908,0-1.815,0-2.722,0-.627,0-.887-.259-.889-.877,0-.578,0-1.155,0-1.733,0-.389-.113-.5-.51-.5q-.707,0-1.414,0c-.406,0-.505.1-.509.5-.006.577,0,1.155,0,1.733-.006.619-.268.875-.89.877-.919,0-1.839.006-2.758,0a.412.412,0,0,0-.478.469q0,.636,0,1.273c0,.632.06.695.678.7Zm15.48.133a1.214,1.214,0,1,0-1.228-1.2A1.222,1.222,0,0,0,496.576,1027.925Zm-30.928,0a1.214,1.214,0,1,0-1.224-1.2A1.22,1.22,0,0,0,465.648,1027.925Z" fill="#fff"/>
      <path id="Trazado_115621" data-name="Trazado 115621" d="M520.423,1030.863c0,.5.005.934,0,1.369a.7.7,0,1,1-1.4.013q-.015-2.42,0-4.84a.692.692,0,0,1,.678-.76,15.79,15.79,0,0,1,2.185.049,2,2,0,0,1,1.727,2.311,1.962,1.962,0,0,1-1.986,1.857C521.235,1030.873,520.849,1030.863,520.423,1030.863Zm.018-1.261a8.872,8.872,0,0,0,1.062-.009.855.855,0,0,0-.01-1.671,9.061,9.061,0,0,0-1.052-.008Z" transform="translate(-34.71 -19.224)" fill="#fff"/>
      <path id="Trazado_115622" data-name="Trazado 115622" d="M491.559,1027.888v1.24c.417,0,.815,0,1.212,0,.485,0,.767.242.765.635s-.287.632-.769.641c-.376.007-.753.006-1.129.01-.021,0-.041.018-.1.045,0,.568.009,1.153,0,1.738a.706.706,0,0,1-.938.733.679.679,0,0,1-.475-.675c0-1.636,0-3.273,0-4.909a.693.693,0,0,1,.728-.741c.742-.014,1.483-.012,2.225,0a.631.631,0,0,1,.669.663.623.623,0,0,1-.672.618C492.581,1027.9,492.089,1027.888,491.559,1027.888Z" transform="translate(-16.807 -19.204)" fill="#fff"/>
      <path id="Trazado_115623" data-name="Trazado 115623" d="M504.939,1027.921c-.324,0-.6.007-.884,0a.636.636,0,1,1-.013-1.27q1.607-.018,3.216,0a.628.628,0,0,1,.655.643.621.621,0,0,1-.652.641c-.291.014-.582,0-.91,0v.424c0,1.272,0,2.545,0,3.817,0,.506-.261.815-.677.821a.724.724,0,0,1-.733-.812c0-1.272,0-2.545,0-3.817Z" transform="translate(-25.026 -19.23)" fill="#fff"/>
      <path id="Trazado_115624" data-name="Trazado 115624" d="M492.968,1051.323a.691.691,0,0,1,.7.714.7.7,0,0,1-.687.7.729.729,0,0,1-.732-.7A.711.711,0,0,1,492.968,1051.323Z" transform="translate(-18.129 -34.527)" fill="#fff"/>
    </g>
  </g>
</svg>
